<?xml version="1.0" encoding="UTF-8" standalone="no"?>
<svg
   xmlns:dc="http://purl.org/dc/elements/1.1/"
   xmlns:cc="http://creativecommons.org/ns#"
   xmlns:rdf="http://www.w3.org/1999/02/22-rdf-syntax-ns#"
   xmlns:svg="http://www.w3.org/2000/svg"
   xmlns="http://www.w3.org/2000/svg"
   xmlns:sodipodi="http://sodipodi.sourceforge.net/DTD/sodipodi-0.dtd"
   xmlns:inkscape="http://www.inkscape.org/namespaces/inkscape"
   width="666mm"
   height="443mm"
   viewBox="0 0 666 443"
   version="1.1"
   preserveAspectRatio="xMidYMid meet"
   id="svg15"
   sodipodi:docname="schwarze-box.svg"
   inkscape:version="0.92.4 5da689c313, 2019-01-14">
  <metadata
     id="metadata21">
    <rdf:RDF>
      <cc:Work
         rdf:about="">
        <dc:format>image/svg+xml</dc:format>
        <dc:type
           rdf:resource="http://purl.org/dc/dcmitype/StillImage" />
        <dc:title></dc:title>
      </cc:Work>
    </rdf:RDF>
  </metadata>
  <defs
     id="defs19" />
  <sodipodi:namedview
     pagecolor="#ffffff"
     bordercolor="#666666"
     borderopacity="1"
     objecttolerance="10"
     gridtolerance="10"
     guidetolerance="10"
     inkscape:pageopacity="0"
     inkscape:pageshadow="2"
     inkscape:window-width="1366"
     inkscape:window-height="720"
     id="namedview17"
     showgrid="false"
     inkscape:zoom="0.36318222"
     inkscape:cx="1260.5039"
     inkscape:cy="837.16535"
     inkscape:window-x="0"
     inkscape:window-y="0"
     inkscape:window-maximized="1"
     inkscape:current-layer="svg15"
     inkscape:document-units="mm" />
  <g
     id="svgGroup"
     stroke-linecap="round"
     fill-rule="evenodd"
     font-size="9pt"
     stroke="#000"
     stroke-width="0.25mm"
     fill="none"
     style="stroke:#000;stroke-width:0.25mm;fill:none">
    <path
       d="M 0 223 L 0 241.875 L 3 241.875 L 3 262.125 L 0 262.125 L 0 282.375 L 3 282.375 L 3 302.625 L 0 302.625 L 0 322.875 L 3 322.875 L 3 343.125 L 0 343.125 L 0 363.375 L 3 363.375 L 3 383.625 L 0 383.625 L 0 403.875 L 3 403.875 L 3 424.125 L 0 424.125 L 0 443 L 18.875 443 L 18.875 440 L 39.125 440 L 39.125 443 L 59.375 443 L 59.375 440 L 79.625 440 L 79.625 443 L 99.875 443 L 99.875 440 L 120.125 440 L 120.125 443 L 140.375 443 L 140.375 440 L 160.625 440 L 160.625 443 L 180.875 443 L 180.875 440 L 201.125 440 L 201.125 443 L 220 443 L 220 424.125 L 217 424.125 L 217 403.875 L 220 403.875 L 220 383.625 L 217 383.625 L 217 363.375 L 220 363.375 L 220 343.125 L 217 343.125 L 217 322.875 L 220 322.875 L 220 302.625 L 217 302.625 L 217 282.375 L 220 282.375 L 220 262.125 L 217 262.125 L 217 241.875 L 220 241.875 L 220 223 L 201.125 223 L 201.125 226 L 180.875 226 L 180.875 223 L 160.625 223 L 160.625 226 L 140.375 226 L 140.375 223 L 120.125 223 L 120.125 226 L 99.875 226 L 99.875 223 L 79.625 223 L 79.625 226 L 59.375 226 L 59.375 223 L 39.125 223 L 39.125 226 L 18.875 226 L 18.875 223 L 0 223 Z"
       id="front_outsideCutPath"
       stroke="#FF0000"
       stroke-width="0.1"
       style="stroke:#FF0000;stroke-width:0.1"
       vector-effect="non-scaling-stroke" />
    <path
       d="M 142.065 349.618 L 138.499 349.618 L 138.499 334.385 Q 138.499 332.55 137.966 331.309 A 4.243 4.243 0 0 0 137.188 330.088 Q 136.127 328.94 134.095 328.722 A 9.455 9.455 0 0 0 133.085 328.67 Q 130.651 328.67 129.074 329.537 A 5.028 5.028 0 0 0 127.671 330.668 A 5.83 5.83 0 0 0 126.658 332.44 Q 126.047 334.066 125.965 336.49 A 22.848 22.848 0 0 0 125.952 337.264 L 125.952 349.618 L 122.386 349.618 L 122.386 326.071 L 125.286 326.071 L 125.866 329.293 L 126.038 329.293 A 7.222 7.222 0 0 1 128.867 326.72 A 8.684 8.684 0 0 1 129.11 326.597 A 9.657 9.657 0 0 1 132.547 325.681 A 11.678 11.678 0 0 1 133.515 325.641 A 14.081 14.081 0 0 1 135.911 325.832 Q 138.423 326.266 139.917 327.693 A 6.181 6.181 0 0 1 141.423 330.057 Q 142.065 331.789 142.065 334.256 L 142.065 349.618 Z M 73.552 326.071 L 73.552 328.842 L 67.558 328.842 L 67.558 349.618 L 63.991 349.618 L 63.991 328.842 L 59.78 328.842 L 59.78 327.231 L 63.991 325.942 L 63.991 324.631 A 14.454 14.454 0 0 1 64.329 321.356 Q 65.372 316.888 69.643 316.114 A 10.84 10.84 0 0 1 71.575 315.952 Q 73.444 315.952 75.958 316.704 L 75.034 319.561 Q 72.972 318.895 71.511 318.895 Q 69.491 318.895 68.524 320.238 Q 67.647 321.456 67.566 324.009 A 16.838 16.838 0 0 0 67.558 324.545 L 67.558 326.071 L 73.552 326.071 Z M 160.22 346.674 L 160.22 349.403 A 3.508 3.508 0 0 1 159.804 349.568 Q 159.287 349.739 158.512 349.865 Q 157.459 350.035 156.602 350.047 A 9.143 9.143 0 0 1 156.481 350.047 A 9.315 9.315 0 0 1 153.736 349.678 Q 150.719 348.747 149.929 345.469 A 11.21 11.21 0 0 1 149.649 342.85 L 149.649 328.842 L 146.276 328.842 L 146.276 327.124 L 149.649 325.641 L 151.153 320.614 L 153.216 320.614 L 153.216 326.071 L 160.048 326.071 L 160.048 328.842 L 153.216 328.842 L 153.216 342.7 A 7.182 7.182 0 0 0 153.319 343.961 Q 153.539 345.191 154.226 345.965 A 3.313 3.313 0 0 0 156.262 347.05 A 4.767 4.767 0 0 0 156.997 347.104 A 11.713 11.713 0 0 0 158.713 346.981 A 10.8 10.8 0 0 0 158.823 346.964 A 19.292 19.292 0 0 0 159.338 346.876 Q 159.83 346.784 160.172 346.688 A 5.356 5.356 0 0 0 160.22 346.674 Z M 91.405 325.899 L 90.911 329.208 A 15.718 15.718 0 0 0 89.781 328.999 Q 89.217 328.917 88.716 328.894 A 8.365 8.365 0 0 0 88.333 328.885 Q 85.476 328.885 83.445 331.206 A 8.144 8.144 0 0 0 81.481 335.779 A 10.825 10.825 0 0 0 81.415 336.985 L 81.415 349.618 L 77.849 349.618 L 77.849 326.071 L 80.792 326.071 L 81.2 330.432 L 81.372 330.432 A 12.044 12.044 0 0 1 82.719 328.508 A 9.2 9.2 0 0 1 84.53 326.887 Q 86.378 325.641 88.591 325.641 A 16.373 16.373 0 0 1 90.057 325.704 A 11.95 11.95 0 0 1 91.405 325.899 Z M 115.806 341.406 A 18.422 18.422 0 0 0 116.134 337.823 Q 116.134 335.534 115.649 333.631 A 11.105 11.105 0 0 0 113.223 328.928 Q 110.312 325.641 105.37 325.641 A 13.852 13.852 0 0 0 102.882 325.855 A 9.433 9.433 0 0 0 97.378 328.853 A 9.853 9.853 0 0 0 96.168 330.531 Q 95.235 332.156 94.824 334.242 A 18.518 18.518 0 0 0 94.499 337.823 A 17.841 17.841 0 0 0 94.723 340.713 A 13.193 13.193 0 0 0 95.831 344.311 A 11.722 11.722 0 0 0 96.091 344.819 A 9.655 9.655 0 0 0 99.612 348.565 A 9.931 9.931 0 0 0 101.892 349.579 A 11.453 11.453 0 0 0 105.22 350.047 A 13.849 13.849 0 0 0 107.638 349.845 A 9.508 9.508 0 0 0 113.233 346.814 Q 115.159 344.667 115.806 341.406 Z M 98.954 342.773 A 7.482 7.482 0 0 0 99.999 344.698 A 5.845 5.845 0 0 0 103.806 346.94 A 8.858 8.858 0 0 0 105.306 347.061 A 8.284 8.284 0 0 0 107.491 346.789 A 5.765 5.765 0 0 0 110.623 344.709 A 7.656 7.656 0 0 0 111.815 342.386 Q 112.438 340.479 112.438 337.823 A 17.795 17.795 0 0 0 112.27 335.287 Q 112.084 333.996 111.691 332.95 A 7.343 7.343 0 0 0 110.623 331.001 A 5.867 5.867 0 0 0 106.976 328.825 A 8.995 8.995 0 0 0 105.263 328.67 A 8.488 8.488 0 0 0 103.15 328.918 A 5.68 5.68 0 0 0 99.978 330.969 Q 98.694 332.624 98.334 335.448 A 18.846 18.846 0 0 0 98.194 337.823 Q 98.194 340.75 98.954 342.773 Z"
       id="front_labelLayer"
       stroke="#777777"
       fill="#777777"
       style="stroke:#777777;fill:#777777"
       vector-effect="non-scaling-stroke" />
    <path
       d="M 226 223 L 226 241.875 L 223 241.875 L 223 262.125 L 226 262.125 L 226 282.375 L 223 282.375 L 223 302.625 L 226 302.625 L 226 322.875 L 223 322.875 L 223 343.125 L 226 343.125 L 226 363.375 L 223 363.375 L 223 383.625 L 226 383.625 L 226 403.875 L 223 403.875 L 223 424.125 L 226 424.125 L 226 443 L 241.875 443 L 241.875 440 L 262.125 440 L 262.125 443 L 282.375 443 L 282.375 440 L 302.625 440 L 302.625 443 L 322.875 443 L 322.875 440 L 343.125 440 L 343.125 443 L 363.375 443 L 363.375 440 L 383.625 440 L 383.625 443 L 403.875 443 L 403.875 440 L 424.125 440 L 424.125 443 L 440 443 L 440 424.125 L 443 424.125 L 443 403.875 L 440 403.875 L 440 383.625 L 443 383.625 L 443 363.375 L 440 363.375 L 440 343.125 L 443 343.125 L 443 322.875 L 440 322.875 L 440 302.625 L 443 302.625 L 443 282.375 L 440 282.375 L 440 262.125 L 443 262.125 L 443 241.875 L 440 241.875 L 440 223 L 424.125 223 L 424.125 226 L 403.875 226 L 403.875 223 L 383.625 223 L 383.625 226 L 363.375 226 L 363.375 223 L 343.125 223 L 343.125 226 L 322.875 226 L 322.875 223 L 302.625 223 L 302.625 226 L 282.375 226 L 282.375 223 L 262.125 223 L 262.125 226 L 241.875 226 L 241.875 223 L 226 223 Z"
       id="left_outsideCutPath"
       stroke="#FF0000"
       stroke-width="0.1"
       style="stroke:#FF0000;stroke-width:0.1"
       vector-effect="non-scaling-stroke" />
    <path
       d="M 348.651 326.071 L 348.651 328.842 L 342.657 328.842 L 342.657 349.618 L 339.091 349.618 L 339.091 328.842 L 334.88 328.842 L 334.88 327.231 L 339.091 325.942 L 339.091 324.631 A 14.454 14.454 0 0 1 339.428 321.356 Q 340.472 316.888 344.743 316.114 A 10.84 10.84 0 0 1 346.675 315.952 Q 348.544 315.952 351.058 316.704 L 350.134 319.561 Q 348.071 318.895 346.61 318.895 Q 344.591 318.895 343.624 320.238 Q 342.747 321.456 342.666 324.009 A 16.838 16.838 0 0 0 342.657 324.545 L 342.657 326.071 L 348.651 326.071 Z M 331.958 336.233 L 331.958 338.489 L 315.737 338.489 Q 315.845 342.635 317.832 344.784 A 6.48 6.48 0 0 0 321.235 346.701 A 9.819 9.819 0 0 0 323.429 346.932 A 18.836 18.836 0 0 0 330.483 345.535 A 21.584 21.584 0 0 0 330.948 345.342 L 330.948 348.522 A 21.41 21.41 0 0 1 328.997 349.259 A 16.373 16.373 0 0 1 327.371 349.693 Q 325.685 350.047 323.3 350.047 A 13.859 13.859 0 0 1 319.832 349.637 A 9.813 9.813 0 0 1 315.061 346.868 Q 312.216 343.871 312.052 338.681 A 20.372 20.372 0 0 1 312.042 338.038 Q 312.042 333.397 313.905 330.312 A 10.561 10.561 0 0 1 314.846 328.993 A 9.139 9.139 0 0 1 321.507 325.671 A 12.607 12.607 0 0 1 322.376 325.641 A 10.865 10.865 0 0 1 325.435 326.051 A 8.268 8.268 0 0 1 329.38 328.552 A 9.972 9.972 0 0 1 331.639 333.109 A 14.516 14.516 0 0 1 331.958 336.233 Z M 363.776 346.674 L 363.776 349.403 A 3.508 3.508 0 0 1 363.36 349.568 Q 362.844 349.739 362.068 349.865 Q 361.015 350.035 360.159 350.047 A 9.143 9.143 0 0 1 360.038 350.047 A 9.315 9.315 0 0 1 357.293 349.678 Q 354.276 348.747 353.486 345.469 A 11.21 11.21 0 0 1 353.206 342.85 L 353.206 328.842 L 349.833 328.842 L 349.833 327.124 L 353.206 325.641 L 354.71 320.614 L 356.772 320.614 L 356.772 326.071 L 363.604 326.071 L 363.604 328.842 L 356.772 328.842 L 356.772 342.7 A 7.182 7.182 0 0 0 356.876 343.961 Q 357.096 345.191 357.782 345.965 A 3.313 3.313 0 0 0 359.819 347.05 A 4.767 4.767 0 0 0 360.554 347.104 A 11.713 11.713 0 0 0 362.27 346.981 A 10.8 10.8 0 0 0 362.38 346.964 A 19.292 19.292 0 0 0 362.895 346.876 Q 363.387 346.784 363.729 346.688 A 5.356 5.356 0 0 0 363.776 346.674 Z M 305.79 316.188 L 305.79 349.618 L 302.224 349.618 L 302.224 316.188 L 305.79 316.188 Z M 315.823 335.588 L 328.134 335.588 Q 328.134 333.307 327.446 331.748 A 5.518 5.518 0 0 0 326.63 330.421 A 4.886 4.886 0 0 0 323.687 328.747 A 7.329 7.329 0 0 0 322.333 328.627 A 7.03 7.03 0 0 0 320.302 328.907 A 5.431 5.431 0 0 0 317.811 330.475 A 7.045 7.045 0 0 0 316.41 332.838 Q 315.964 334.058 315.823 335.588 Z"
       id="left_labelLayer"
       stroke="#777777"
       fill="#777777"
       style="stroke:#777777;fill:#777777"
       vector-effect="non-scaling-stroke" />
    <path
       d="M 449 226 L 449 241.875 L 446 241.875 L 446 262.125 L 449 262.125 L 449 282.375 L 446 282.375 L 446 302.625 L 449 302.625 L 449 322.875 L 446 322.875 L 446 343.125 L 449 343.125 L 449 363.375 L 446 363.375 L 446 383.625 L 449 383.625 L 449 403.875 L 446 403.875 L 446 424.125 L 449 424.125 L 449 440 L 464.875 440 L 464.875 443 L 485.125 443 L 485.125 440 L 505.375 440 L 505.375 443 L 525.625 443 L 525.625 440 L 545.875 440 L 545.875 443 L 566.125 443 L 566.125 440 L 586.375 440 L 586.375 443 L 606.625 443 L 606.625 440 L 626.875 440 L 626.875 443 L 647.125 443 L 647.125 440 L 663 440 L 663 424.125 L 666 424.125 L 666 403.875 L 663 403.875 L 663 383.625 L 666 383.625 L 666 363.375 L 663 363.375 L 663 343.125 L 666 343.125 L 666 322.875 L 663 322.875 L 663 302.625 L 666 302.625 L 666 282.375 L 663 282.375 L 663 262.125 L 666 262.125 L 666 241.875 L 663 241.875 L 663 226 L 647.125 226 L 647.125 223 L 626.875 223 L 626.875 226 L 606.625 226 L 606.625 223 L 586.375 223 L 586.375 226 L 566.125 226 L 566.125 223 L 545.875 223 L 545.875 226 L 525.625 226 L 525.625 223 L 505.375 223 L 505.375 226 L 485.125 226 L 485.125 223 L 464.875 223 L 464.875 226 L 449 226 Z"
       id="top_outsideCutPath"
       stroke="#FF0000"
       stroke-width="0.1"
       style="stroke:#FF0000;stroke-width:0.1"
       vector-effect="non-scaling-stroke" />
    <path
       d="M 571.812 339.188 L 571.555 339.188 A 33.751 33.751 0 0 1 571.776 341.682 A 28.282 28.282 0 0 1 571.812 343.098 L 571.812 352.787 L 568.246 352.787 L 568.246 318.67 L 571.146 318.67 L 571.64 321.893 L 571.812 321.893 Q 573.187 319.959 575.013 319.1 Q 576.84 318.24 579.203 318.24 A 10.932 10.932 0 0 1 582.291 318.653 A 8.08 8.08 0 0 1 586.432 321.441 A 10.709 10.709 0 0 1 588.26 325.009 Q 588.978 327.352 588.978 330.422 A 20.911 20.911 0 0 1 588.701 333.94 Q 588.381 335.815 587.689 337.319 A 10.024 10.024 0 0 1 586.389 339.435 A 8.443 8.443 0 0 1 580.389 342.59 A 12.096 12.096 0 0 1 579.203 342.646 A 10.818 10.818 0 0 1 576.485 342.315 A 9.412 9.412 0 0 1 575.003 341.798 Q 573.101 340.949 571.812 339.188 Z M 536.965 339.273 L 536.965 342.002 A 3.508 3.508 0 0 1 536.549 342.167 Q 536.032 342.338 535.257 342.464 Q 534.204 342.634 533.347 342.646 A 9.143 9.143 0 0 1 533.226 342.646 A 9.315 9.315 0 0 1 530.481 342.277 Q 527.464 341.346 526.674 338.068 A 11.21 11.21 0 0 1 526.394 335.449 L 526.394 321.441 L 523.021 321.441 L 523.021 319.723 L 526.394 318.24 L 527.898 313.213 L 529.961 313.213 L 529.961 318.67 L 536.793 318.67 L 536.793 321.441 L 529.961 321.441 L 529.961 335.299 A 7.182 7.182 0 0 0 530.064 336.56 Q 530.284 337.791 530.971 338.564 A 3.313 3.313 0 0 0 533.007 339.649 A 4.767 4.767 0 0 0 533.742 339.703 A 11.713 11.713 0 0 0 535.458 339.58 A 10.8 10.8 0 0 0 535.568 339.563 A 19.292 19.292 0 0 0 536.083 339.475 Q 536.575 339.383 536.917 339.287 A 5.356 5.356 0 0 0 536.965 339.273 Z M 561.667 334.006 A 18.422 18.422 0 0 0 561.994 330.422 Q 561.994 328.133 561.509 326.231 A 11.105 11.105 0 0 0 559.083 321.527 Q 556.172 318.24 551.23 318.24 A 13.852 13.852 0 0 0 548.742 318.454 A 9.433 9.433 0 0 0 543.238 321.452 A 9.853 9.853 0 0 0 542.028 323.13 Q 541.096 324.755 540.684 326.841 A 18.518 18.518 0 0 0 540.359 330.422 A 17.841 17.841 0 0 0 540.583 333.312 A 13.193 13.193 0 0 0 541.691 336.91 A 11.722 11.722 0 0 0 541.951 337.418 A 9.655 9.655 0 0 0 545.472 341.164 A 9.931 9.931 0 0 0 547.752 342.178 A 11.453 11.453 0 0 0 551.08 342.646 A 13.849 13.849 0 0 0 553.498 342.444 A 9.508 9.508 0 0 0 559.094 339.413 Q 561.02 337.266 561.667 334.006 Z M 544.814 335.373 A 7.482 7.482 0 0 0 545.859 337.297 A 5.845 5.845 0 0 0 549.666 339.539 A 8.858 8.858 0 0 0 551.166 339.66 A 8.284 8.284 0 0 0 553.351 339.388 A 5.765 5.765 0 0 0 556.483 337.308 A 7.656 7.656 0 0 0 557.675 334.986 Q 558.299 333.078 558.299 330.422 A 17.795 17.795 0 0 0 558.13 327.886 Q 557.944 326.595 557.552 325.55 A 7.343 7.343 0 0 0 556.483 323.601 A 5.867 5.867 0 0 0 552.836 321.424 A 8.995 8.995 0 0 0 551.123 321.27 A 8.488 8.488 0 0 0 549.01 321.517 A 5.68 5.68 0 0 0 545.838 323.568 Q 544.554 325.223 544.194 328.047 A 18.846 18.846 0 0 0 544.055 330.422 Q 544.055 333.35 544.814 335.373 Z M 571.812 329.627 L 571.812 330.422 Q 571.812 334.637 573.006 336.814 A 5.379 5.379 0 0 0 573.467 337.522 A 5.174 5.174 0 0 0 576.091 339.294 Q 577.261 339.66 578.773 339.66 A 6.009 6.009 0 0 0 581.11 339.221 Q 582.457 338.659 583.419 337.376 A 7.107 7.107 0 0 0 583.554 337.189 A 8.623 8.623 0 0 0 584.736 334.67 Q 585.078 333.514 585.206 332.127 A 19 19 0 0 0 585.283 330.379 A 17.997 17.997 0 0 0 585.114 327.827 Q 584.928 326.533 584.538 325.482 A 7.561 7.561 0 0 0 583.554 323.622 A 5.548 5.548 0 0 0 579.496 321.311 A 7.673 7.673 0 0 0 578.687 321.27 Q 576.371 321.27 574.878 322.092 A 4.713 4.713 0 0 0 573.467 323.268 A 6.11 6.11 0 0 0 572.511 325.009 Q 571.907 326.651 571.824 329.08 A 22.698 22.698 0 0 0 571.812 329.627 Z"
       id="top_labelLayer"
       stroke="#777777"
       fill="#777777"
       style="stroke:#777777;fill:#777777"
       vector-effect="non-scaling-stroke" />
    <path
       d="M 0 0 L 0 18.875 L 3 18.875 L 3 39.125 L 0 39.125 L 0 59.375 L 3 59.375 L 3 79.625 L 0 79.625 L 0 99.875 L 3 99.875 L 3 120.125 L 0 120.125 L 0 140.375 L 3 140.375 L 3 160.625 L 0 160.625 L 0 180.875 L 3 180.875 L 3 201.125 L 0 201.125 L 0 220 L 18.875 220 L 18.875 217 L 39.125 217 L 39.125 220 L 59.375 220 L 59.375 217 L 79.625 217 L 79.625 220 L 99.875 220 L 99.875 217 L 120.125 217 L 120.125 220 L 140.375 220 L 140.375 217 L 160.625 217 L 160.625 220 L 180.875 220 L 180.875 217 L 201.125 217 L 201.125 220 L 220 220 L 220 201.125 L 217 201.125 L 217 180.875 L 220 180.875 L 220 160.625 L 217 160.625 L 217 140.375 L 220 140.375 L 220 120.125 L 217 120.125 L 217 99.875 L 220 99.875 L 220 79.625 L 217 79.625 L 217 59.375 L 220 59.375 L 220 39.125 L 217 39.125 L 217 18.875 L 220 18.875 L 220 0 L 201.125 0 L 201.125 3 L 180.875 3 L 180.875 0 L 160.625 0 L 160.625 3 L 140.375 3 L 140.375 0 L 120.125 0 L 120.125 3 L 99.875 3 L 99.875 0 L 79.625 0 L 79.625 3 L 59.375 3 L 59.375 0 L 39.125 0 L 39.125 3 L 18.875 3 L 18.875 0 L 0 0 Z"
       id="back_outsideCutPath"
       stroke="#FF0000"
       stroke-width="0.1"
       style="stroke:#FF0000;stroke-width:0.1"
       vector-effect="non-scaling-stroke" />
    <path
       d="M 140.121 114.447 L 140.293 114.447 A 21.113 21.113 0 0 1 140.815 113.741 Q 141.416 112.96 142.274 111.962 A 76.631 76.631 0 0 1 143.107 111.01 L 150.713 102.953 L 154.945 102.953 L 145.406 112.986 L 155.611 126.5 L 151.293 126.5 L 142.979 115.371 L 140.293 117.691 L 140.293 126.5 L 136.77 126.5 L 136.77 93.07 L 140.293 93.07 L 140.293 110.795 Q 140.293 111.955 140.127 114.358 A 145.758 145.758 0 0 1 140.121 114.447 Z M 67.955 123.47 L 67.697 123.47 L 66.945 126.5 L 64.389 126.5 L 64.389 93.07 L 67.955 93.07 L 67.955 101.191 A 74.357 74.357 0 0 1 67.915 103.703 Q 67.872 104.971 67.783 106.09 L 67.955 106.09 Q 70.447 102.566 75.346 102.566 A 10.9 10.9 0 0 1 78.413 102.975 A 8.16 8.16 0 0 1 82.554 105.735 A 10.509 10.509 0 0 1 84.397 109.284 Q 85.121 111.623 85.121 114.705 A 20.911 20.911 0 0 1 84.844 118.223 Q 84.523 120.098 83.832 121.602 A 10.024 10.024 0 0 1 82.532 123.718 A 8.443 8.443 0 0 1 76.532 126.873 A 12.096 12.096 0 0 1 75.346 126.929 A 10.818 10.818 0 0 1 72.627 126.598 A 9.412 9.412 0 0 1 71.146 126.081 Q 69.244 125.232 67.955 123.47 Z M 108.475 126.5 L 105.832 126.5 L 105.123 123.148 L 104.951 123.148 A 14.785 14.785 0 0 1 103.755 124.487 Q 102.594 125.628 101.438 126.145 Q 99.995 126.792 97.961 126.905 A 16.05 16.05 0 0 1 97.066 126.929 Q 94.265 126.929 92.433 125.775 A 6.141 6.141 0 0 1 91.577 125.125 A 5.862 5.862 0 0 1 89.809 122.033 A 8.974 8.974 0 0 1 89.59 119.99 A 6.171 6.171 0 0 1 93.1 114.166 Q 95.918 112.667 100.998 112.513 L 104.994 112.385 L 104.994 110.924 Q 104.994 109.23 104.549 108.077 A 3.98 3.98 0 0 0 103.802 106.831 A 3.62 3.62 0 0 0 102.319 105.863 Q 101.725 105.648 100.99 105.564 A 8.812 8.812 0 0 0 99.988 105.51 A 11.611 11.611 0 0 0 97.316 105.843 Q 96.09 106.133 94.756 106.676 A 23.885 23.885 0 0 0 93.328 107.314 L 92.232 104.586 A 16.444 16.444 0 0 1 95.406 103.281 A 18.717 18.717 0 0 1 96.046 103.103 Q 98.119 102.566 100.203 102.566 Q 102.837 102.566 104.617 103.297 A 6.07 6.07 0 0 1 106.444 104.435 A 5.648 5.648 0 0 1 107.902 106.683 Q 108.242 107.606 108.38 108.754 A 14.033 14.033 0 0 1 108.475 110.429 L 108.475 126.5 Z M 131.527 103.748 L 130.432 106.777 A 15.866 15.866 0 0 0 128.711 106.205 A 18.949 18.949 0 0 0 127.854 105.993 Q 126.659 105.726 125.7 105.688 A 7.906 7.906 0 0 0 125.383 105.681 A 7.911 7.911 0 0 0 122.17 106.285 Q 118.803 107.769 118.297 112.902 A 19.707 19.707 0 0 0 118.207 114.834 Q 118.207 117.682 118.961 119.66 A 7.397 7.397 0 0 0 119.958 121.494 A 5.664 5.664 0 0 0 123.628 123.687 A 8.628 8.628 0 0 0 125.146 123.814 A 14.929 14.929 0 0 0 129.265 123.215 A 18.433 18.433 0 0 0 131.184 122.547 L 131.184 125.705 A 10.145 10.145 0 0 1 128.702 126.583 Q 127.14 126.929 125.232 126.929 A 13.329 13.329 0 0 1 121.99 126.558 A 9.038 9.038 0 0 1 117.315 123.782 A 10.316 10.316 0 0 1 115.17 119.842 Q 114.697 118.278 114.564 116.397 A 21.565 21.565 0 0 1 114.512 114.877 Q 114.512 108.969 117.358 105.746 A 9.235 9.235 0 0 1 122.415 102.838 A 14 14 0 0 1 125.469 102.523 Q 127.166 102.523 128.863 102.888 Q 130.542 103.25 131.506 103.737 A 5.341 5.341 0 0 1 131.527 103.748 Z M 74.83 105.552 A 10.022 10.022 0 0 0 72.889 105.728 Q 71.784 105.946 70.944 106.438 A 4.743 4.743 0 0 0 69.566 107.647 A 6.105 6.105 0 0 0 68.682 109.331 Q 68.086 111.002 67.979 113.542 A 27.478 27.478 0 0 0 67.955 114.705 Q 67.955 118.92 69.149 121.097 A 5.379 5.379 0 0 0 69.609 121.805 A 5.174 5.174 0 0 0 72.234 123.577 Q 73.404 123.943 74.916 123.943 A 7.11 7.11 0 0 0 76.935 123.673 A 5.129 5.129 0 0 0 79.814 121.548 Q 80.966 119.836 81.294 117.056 A 20.435 20.435 0 0 0 81.426 114.662 A 21.071 21.071 0 0 0 81.298 112.261 Q 80.996 109.635 79.978 108.049 A 5.917 5.917 0 0 0 79.814 107.808 Q 78.203 105.552 74.83 105.552 Z M 104.908 117.047 L 104.908 114.92 L 101.342 115.07 A 26.187 26.187 0 0 0 99.249 115.222 Q 96.589 115.531 95.208 116.391 A 3.806 3.806 0 0 0 93.394 119.152 A 5.633 5.633 0 0 0 93.328 120.033 A 5.097 5.097 0 0 0 93.454 121.202 Q 93.712 122.298 94.499 122.976 Q 95.67 123.986 97.775 123.986 A 9.819 9.819 0 0 0 99.896 123.77 Q 101.373 123.444 102.464 122.622 A 5.954 5.954 0 0 0 103.007 122.16 A 5.973 5.973 0 0 0 104.673 119.177 Q 104.908 118.202 104.908 117.047 Z"
       id="back_labelLayer"
       stroke="#777777"
       fill="#777777"
       style="stroke:#777777;fill:#777777"
       vector-effect="non-scaling-stroke" />
    <path
       d="M 226 0 L 226 18.875 L 223 18.875 L 223 39.125 L 226 39.125 L 226 59.375 L 223 59.375 L 223 79.625 L 226 79.625 L 226 99.875 L 223 99.875 L 223 120.125 L 226 120.125 L 226 140.375 L 223 140.375 L 223 160.625 L 226 160.625 L 226 180.875 L 223 180.875 L 223 201.125 L 226 201.125 L 226 220 L 241.875 220 L 241.875 217 L 262.125 217 L 262.125 220 L 282.375 220 L 282.375 217 L 302.625 217 L 302.625 220 L 322.875 220 L 322.875 217 L 343.125 217 L 343.125 220 L 363.375 220 L 363.375 217 L 383.625 217 L 383.625 220 L 403.875 220 L 403.875 217 L 424.125 217 L 424.125 220 L 440 220 L 440 201.125 L 443 201.125 L 443 180.875 L 440 180.875 L 440 160.625 L 443 160.625 L 443 140.375 L 440 140.375 L 440 120.125 L 443 120.125 L 443 99.875 L 440 99.875 L 440 79.625 L 443 79.625 L 443 59.375 L 440 59.375 L 440 39.125 L 443 39.125 L 443 18.875 L 440 18.875 L 440 0 L 424.125 0 L 424.125 3 L 403.875 3 L 403.875 0 L 383.625 0 L 383.625 3 L 363.375 3 L 363.375 0 L 343.125 0 L 343.125 3 L 322.875 3 L 322.875 0 L 302.625 0 L 302.625 3 L 282.375 3 L 282.375 0 L 262.125 0 L 262.125 3 L 241.875 3 L 241.875 0 L 226 0 Z"
       id="right_outsideCutPath"
       stroke="#FF0000"
       stroke-width="0.1"
       style="stroke:#FF0000;stroke-width:0.1"
       vector-effect="non-scaling-stroke" />
    <path
       d="M 360.36 121.43 L 356.794 121.43 L 356.794 106.197 Q 356.794 104.362 356.261 103.12 A 4.243 4.243 0 0 0 355.483 101.9 Q 354.422 100.752 352.39 100.534 A 9.455 9.455 0 0 0 351.38 100.482 A 10.792 10.792 0 0 0 349.362 100.658 Q 348.244 100.871 347.382 101.343 A 4.993 4.993 0 0 0 345.955 102.502 Q 344.393 104.348 344.26 108.35 A 23.018 23.018 0 0 0 344.247 109.119 L 344.247 121.43 L 340.681 121.43 L 340.681 88 L 344.247 88 L 344.247 98.119 A 32.083 32.083 0 0 1 344.225 99.351 Q 344.203 99.928 344.158 100.425 A 13.951 13.951 0 0 1 344.075 101.148 L 344.29 101.148 A 7.125 7.125 0 0 1 346.786 98.746 A 8.705 8.705 0 0 1 347.287 98.474 A 9.155 9.155 0 0 1 350.292 97.582 A 11.575 11.575 0 0 1 351.724 97.496 Q 356.042 97.496 358.201 99.548 A 6.21 6.21 0 0 1 359.733 101.953 Q 360.101 102.953 360.253 104.194 A 15.422 15.422 0 0 1 360.36 106.068 L 360.36 121.43 Z M 327.704 97.883 L 335.847 97.883 L 335.847 100.139 L 331.485 100.654 A 5.796 5.796 0 0 1 331.987 101.401 Q 332.207 101.786 332.407 102.247 A 10.994 10.994 0 0 1 332.56 102.62 A 6.861 6.861 0 0 1 332.966 104.259 A 8.811 8.811 0 0 1 333.032 105.359 A 8.176 8.176 0 0 1 332.657 107.894 A 6.613 6.613 0 0 1 330.669 110.881 A 7.91 7.91 0 0 1 327.557 112.52 Q 326.38 112.851 324.981 112.923 A 15.49 15.49 0 0 1 324.181 112.943 A 11.462 11.462 0 0 1 322.854 112.869 A 9.679 9.679 0 0 1 322.204 112.771 A 6.346 6.346 0 0 0 321.181 113.433 Q 319.927 114.445 319.927 115.801 Q 319.927 116.767 320.722 117.229 A 2.502 2.502 0 0 0 321.276 117.458 Q 322.076 117.691 323.45 117.691 L 327.618 117.691 Q 331.442 117.691 333.494 119.303 A 5.217 5.217 0 0 1 335.433 122.626 A 7.836 7.836 0 0 1 335.546 123.986 Q 335.546 127.896 332.409 129.948 A 10.695 10.695 0 0 1 329.652 131.198 Q 327.017 132 323.257 132 A 19.982 19.982 0 0 1 320.577 131.832 Q 319.216 131.647 318.106 131.26 A 8.288 8.288 0 0 1 316.135 130.281 Q 313.632 128.562 313.632 125.426 Q 313.632 123.277 315.007 121.709 A 6.227 6.227 0 0 1 317.146 120.15 A 8.827 8.827 0 0 1 318.874 119.582 A 3.701 3.701 0 0 1 317.437 118.42 A 4.394 4.394 0 0 1 317.359 118.314 A 3.306 3.306 0 0 1 316.752 116.527 A 4.095 4.095 0 0 1 316.747 116.316 Q 316.747 115.027 317.435 114.06 Q 318.122 113.094 319.604 112.191 Q 317.778 111.439 316.629 109.635 A 7.373 7.373 0 0 1 315.497 106.082 A 8.998 8.998 0 0 1 315.479 105.51 A 10.304 10.304 0 0 1 315.751 103.073 A 6.779 6.779 0 0 1 317.8 99.548 Q 320.12 97.453 324.374 97.453 A 13.67 13.67 0 0 1 326.182 97.567 A 10.412 10.412 0 0 1 327.704 97.883 Z M 378.515 118.486 L 378.515 121.215 A 3.508 3.508 0 0 1 378.099 121.38 Q 377.582 121.551 376.807 121.677 Q 375.754 121.847 374.897 121.858 A 9.143 9.143 0 0 1 374.776 121.859 A 9.315 9.315 0 0 1 372.031 121.49 Q 369.014 120.559 368.224 117.281 A 11.21 11.21 0 0 1 367.944 114.662 L 367.944 100.654 L 364.571 100.654 L 364.571 98.935 L 367.944 97.453 L 369.448 92.426 L 371.511 92.426 L 371.511 97.883 L 378.343 97.883 L 378.343 100.654 L 371.511 100.654 L 371.511 114.512 A 7.182 7.182 0 0 0 371.614 115.773 Q 371.834 117.003 372.521 117.777 A 3.313 3.313 0 0 0 374.557 118.861 A 4.767 4.767 0 0 0 375.292 118.916 A 11.713 11.713 0 0 0 377.008 118.793 A 10.8 10.8 0 0 0 377.118 118.776 A 19.292 19.292 0 0 0 377.633 118.688 Q 378.125 118.596 378.467 118.5 A 5.356 5.356 0 0 0 378.515 118.486 Z M 301.042 97.711 L 300.548 101.019 A 15.718 15.718 0 0 0 299.418 100.811 Q 298.854 100.729 298.352 100.706 A 8.365 8.365 0 0 0 297.97 100.697 Q 295.112 100.697 293.082 103.017 A 8.144 8.144 0 0 0 291.117 107.59 A 10.825 10.825 0 0 0 291.052 108.797 L 291.052 121.43 L 287.485 121.43 L 287.485 97.883 L 290.429 97.883 L 290.837 102.244 L 291.009 102.244 A 12.044 12.044 0 0 1 292.355 100.32 A 9.2 9.2 0 0 1 294.167 98.699 Q 296.015 97.453 298.228 97.453 A 16.373 16.373 0 0 1 299.693 97.515 A 11.95 11.95 0 0 1 301.042 97.711 Z M 309.013 97.883 L 309.013 121.43 L 305.446 121.43 L 305.446 97.883 L 309.013 97.883 Z M 326.479 120.892 L 322.204 120.892 Q 319.776 120.892 318.423 122.053 Q 317.069 123.213 317.069 125.383 A 3.582 3.582 0 0 0 317.305 126.711 Q 317.645 127.568 318.47 128.145 A 4.185 4.185 0 0 0 318.681 128.283 A 5.712 5.712 0 0 0 320.086 128.885 Q 321.409 129.268 323.27 129.271 A 18.217 18.217 0 0 0 323.3 129.271 A 23.975 23.975 0 0 0 325.641 129.165 Q 327.988 128.934 329.462 128.2 A 5.923 5.923 0 0 0 329.949 127.929 A 5.202 5.202 0 0 0 331.156 126.919 A 3.899 3.899 0 0 0 332.108 124.287 A 4.825 4.825 0 0 0 332.02 123.329 Q 331.908 122.778 331.655 122.367 A 2.248 2.248 0 0 0 330.927 121.634 A 3.383 3.383 0 0 0 330.125 121.284 Q 329.27 121.021 327.918 120.935 A 22.693 22.693 0 0 0 326.479 120.892 Z M 319.003 105.424 A 6.962 6.962 0 0 0 319.146 106.883 Q 319.34 107.788 319.798 108.467 A 3.816 3.816 0 0 0 320.399 109.162 A 4.61 4.61 0 0 0 322.255 110.169 Q 322.961 110.373 323.805 110.417 A 9.183 9.183 0 0 0 324.288 110.43 Q 329.509 110.43 329.509 105.359 A 7.669 7.669 0 0 0 329.247 103.259 Q 328.575 100.904 326.181 100.279 A 7.757 7.757 0 0 0 324.224 100.053 A 7.483 7.483 0 0 0 322.699 100.198 Q 321.764 100.393 321.052 100.848 A 4.105 4.105 0 0 0 320.356 101.406 A 4.28 4.28 0 0 0 319.32 103.15 Q 319.003 104.133 319.003 105.424 Z M 305.146 91.502 Q 305.146 90.277 305.747 89.708 A 2.062 2.062 0 0 1 307.071 89.144 A 2.722 2.722 0 0 1 307.251 89.139 A 2.101 2.101 0 0 1 308.733 89.719 Q 309.356 90.299 309.356 91.502 A 3.69 3.69 0 0 1 309.299 92.178 Q 309.228 92.554 309.073 92.846 A 1.74 1.74 0 0 1 308.733 93.296 A 2.081 2.081 0 0 1 307.251 93.887 A 2.265 2.265 0 0 1 306.471 93.757 A 2.001 2.001 0 0 1 305.747 93.296 A 1.841 1.841 0 0 1 305.298 92.559 Q 305.199 92.265 305.164 91.905 A 4.211 4.211 0 0 1 305.146 91.502 Z"
       id="right_labelLayer"
       stroke="#777777"
       fill="#777777"
       style="stroke:#777777;fill:#777777"
       vector-effect="non-scaling-stroke" />
    <path
       d="M 449 3 L 449 18.875 L 446 18.875 L 446 39.125 L 449 39.125 L 449 59.375 L 446 59.375 L 446 79.625 L 449 79.625 L 449 99.875 L 446 99.875 L 446 120.125 L 449 120.125 L 449 140.375 L 446 140.375 L 446 160.625 L 449 160.625 L 449 180.875 L 446 180.875 L 446 201.125 L 449 201.125 L 449 217 L 464.875 217 L 464.875 220 L 485.125 220 L 485.125 217 L 505.375 217 L 505.375 220 L 525.625 220 L 525.625 217 L 545.875 217 L 545.875 220 L 566.125 220 L 566.125 217 L 586.375 217 L 586.375 220 L 606.625 220 L 606.625 217 L 626.875 217 L 626.875 220 L 647.125 220 L 647.125 217 L 663 217 L 663 201.125 L 666 201.125 L 666 180.875 L 663 180.875 L 663 160.625 L 666 160.625 L 666 140.375 L 663 140.375 L 663 120.125 L 666 120.125 L 666 99.875 L 663 99.875 L 663 79.625 L 666 79.625 L 666 59.375 L 663 59.375 L 663 39.125 L 666 39.125 L 666 18.875 L 663 18.875 L 663 3 L 647.125 3 L 647.125 0 L 626.875 0 L 626.875 3 L 606.625 3 L 606.625 0 L 586.375 0 L 586.375 3 L 566.125 3 L 566.125 0 L 545.875 0 L 545.875 3 L 525.625 3 L 525.625 0 L 505.375 0 L 505.375 3 L 485.125 3 L 485.125 0 L 464.875 0 L 464.875 3 L 449 3 Z"
       id="bottom_outsideCutPath"
       stroke="#FF0000"
       stroke-width="0.1"
       style="stroke:#FF0000;stroke-width:0.1"
       vector-effect="non-scaling-stroke" />
    <path
       d="M 628.381 126.499 L 624.814 126.499 L 624.814 111.181 A 10.521 10.521 0 0 0 624.708 109.634 Q 624.591 108.844 624.342 108.207 A 4.31 4.31 0 0 0 623.611 106.959 Q 622.559 105.728 620.487 105.574 A 8.279 8.279 0 0 0 619.873 105.552 A 9.177 9.177 0 0 0 618.005 105.73 Q 616.895 105.961 616.058 106.492 A 4.723 4.723 0 0 0 614.953 107.464 A 5.893 5.893 0 0 0 613.954 109.273 Q 613.363 110.929 613.363 113.351 L 613.363 126.499 L 609.797 126.499 L 609.797 111.181 A 10.521 10.521 0 0 0 609.691 109.634 Q 609.573 108.844 609.325 108.207 A 4.31 4.31 0 0 0 608.594 106.959 A 3.741 3.741 0 0 0 606.873 105.841 Q 606.254 105.638 605.497 105.578 A 8.351 8.351 0 0 0 604.834 105.552 Q 601.482 105.552 599.925 107.561 Q 598.513 109.381 598.381 113.311 A 24.831 24.831 0 0 0 598.367 114.146 L 598.367 126.499 L 594.801 126.499 L 594.801 102.953 L 597.701 102.953 L 598.281 106.175 L 598.453 106.175 Q 599.463 104.456 601.3 103.49 A 8.467 8.467 0 0 1 604.644 102.551 A 10.227 10.227 0 0 1 605.414 102.523 Q 608.834 102.523 610.786 104.056 A 6.089 6.089 0 0 1 612.633 106.519 L 612.805 106.519 A 7.446 7.446 0 0 1 615.609 103.734 A 8.946 8.946 0 0 1 615.855 103.597 A 9.027 9.027 0 0 1 619.167 102.59 A 11.255 11.255 0 0 1 620.41 102.523 A 12.397 12.397 0 0 1 622.659 102.713 Q 625.012 103.148 626.393 104.575 Q 627.84 106.069 628.234 108.866 A 16.358 16.358 0 0 1 628.381 111.138 L 628.381 126.499 Z M 487.185 123.47 L 486.928 123.47 L 486.176 126.499 L 483.619 126.499 L 483.619 93.07 L 487.185 93.07 L 487.185 101.191 A 74.357 74.357 0 0 1 487.145 103.703 Q 487.102 104.97 487.014 106.089 L 487.185 106.089 Q 489.678 102.566 494.576 102.566 A 10.9 10.9 0 0 1 497.644 102.975 A 8.16 8.16 0 0 1 501.784 105.735 A 10.509 10.509 0 0 1 503.627 109.284 Q 504.351 111.623 504.351 114.705 A 20.911 20.911 0 0 1 504.074 118.223 Q 503.754 120.098 503.062 121.602 A 10.024 10.024 0 0 1 501.763 123.717 A 8.443 8.443 0 0 1 495.762 126.872 A 12.096 12.096 0 0 1 494.576 126.929 A 10.818 10.818 0 0 1 491.858 126.598 A 9.412 9.412 0 0 1 490.376 126.08 Q 488.475 125.232 487.185 123.47 Z M 547.986 123.556 L 547.986 126.285 A 3.508 3.508 0 0 1 547.57 126.45 Q 547.054 126.621 546.278 126.747 Q 545.225 126.917 544.369 126.928 A 9.143 9.143 0 0 1 544.248 126.929 A 9.315 9.315 0 0 1 541.503 126.56 Q 538.486 125.629 537.696 122.351 A 11.21 11.21 0 0 1 537.416 119.732 L 537.416 105.724 L 534.043 105.724 L 534.043 104.005 L 537.416 102.523 L 538.92 97.496 L 540.982 97.496 L 540.982 102.953 L 547.814 102.953 L 547.814 105.724 L 540.982 105.724 L 540.982 119.581 A 7.182 7.182 0 0 0 541.086 120.843 Q 541.306 122.073 541.992 122.847 A 3.313 3.313 0 0 0 544.029 123.931 A 4.767 4.767 0 0 0 544.764 123.986 A 11.713 11.713 0 0 0 546.479 123.863 A 10.8 10.8 0 0 0 546.59 123.846 A 19.292 19.292 0 0 0 547.105 123.758 Q 547.597 123.666 547.938 123.57 A 5.356 5.356 0 0 0 547.986 123.556 Z M 563.519 123.556 L 563.519 126.285 A 3.508 3.508 0 0 1 563.103 126.45 Q 562.587 126.621 561.811 126.747 Q 560.758 126.917 559.902 126.928 A 9.143 9.143 0 0 1 559.781 126.929 A 9.315 9.315 0 0 1 557.036 126.56 Q 554.019 125.629 553.229 122.351 A 11.21 11.21 0 0 1 552.949 119.732 L 552.949 105.724 L 549.576 105.724 L 549.576 104.005 L 552.949 102.523 L 554.453 97.496 L 556.516 97.496 L 556.516 102.953 L 563.348 102.953 L 563.348 105.724 L 556.516 105.724 L 556.516 119.581 A 7.182 7.182 0 0 0 556.619 120.843 Q 556.839 122.073 557.525 122.847 A 3.313 3.313 0 0 0 559.562 123.931 A 4.767 4.767 0 0 0 560.297 123.986 A 11.713 11.713 0 0 0 562.013 123.863 A 10.8 10.8 0 0 0 562.123 123.846 A 19.292 19.292 0 0 0 562.638 123.758 Q 563.13 123.666 563.472 123.57 A 5.356 5.356 0 0 0 563.519 123.556 Z M 530.579 118.288 A 18.422 18.422 0 0 0 530.906 114.705 Q 530.906 112.416 530.421 110.513 A 11.105 11.105 0 0 0 527.995 105.81 Q 525.084 102.523 520.142 102.523 A 13.852 13.852 0 0 0 517.654 102.736 A 9.433 9.433 0 0 0 512.15 105.735 A 9.853 9.853 0 0 0 510.94 107.413 Q 510.008 109.038 509.596 111.123 A 18.518 18.518 0 0 0 509.271 114.705 A 17.841 17.841 0 0 0 509.495 117.594 A 13.193 13.193 0 0 0 510.603 121.193 A 11.722 11.722 0 0 0 510.863 121.701 A 9.655 9.655 0 0 0 514.385 125.447 A 9.931 9.931 0 0 0 516.664 126.46 A 11.453 11.453 0 0 0 519.992 126.929 A 13.849 13.849 0 0 0 522.41 126.727 A 9.508 9.508 0 0 0 528.006 123.696 Q 529.932 121.549 530.579 118.288 Z M 588.221 118.288 A 18.422 18.422 0 0 0 588.549 114.705 Q 588.549 112.416 588.064 110.513 A 11.105 11.105 0 0 0 585.638 105.81 Q 582.726 102.523 577.785 102.523 A 13.852 13.852 0 0 0 575.297 102.736 A 9.433 9.433 0 0 0 569.793 105.735 A 9.853 9.853 0 0 0 568.583 107.413 Q 567.65 109.038 567.239 111.123 A 18.518 18.518 0 0 0 566.914 114.705 A 17.841 17.841 0 0 0 567.138 117.594 A 13.193 13.193 0 0 0 568.246 121.193 A 11.722 11.722 0 0 0 568.506 121.701 A 9.655 9.655 0 0 0 572.027 125.447 A 9.931 9.931 0 0 0 574.307 126.46 A 11.453 11.453 0 0 0 577.635 126.929 A 13.849 13.849 0 0 0 580.053 126.727 A 9.508 9.508 0 0 0 585.648 123.696 Q 587.574 121.549 588.221 118.288 Z M 513.727 119.655 A 7.482 7.482 0 0 0 514.771 121.58 A 5.845 5.845 0 0 0 518.578 123.821 A 8.858 8.858 0 0 0 520.078 123.943 A 8.284 8.284 0 0 0 522.263 123.671 A 5.765 5.765 0 0 0 525.395 121.59 A 7.656 7.656 0 0 0 526.588 119.268 Q 527.211 117.361 527.211 114.705 A 17.795 17.795 0 0 0 527.042 112.169 Q 526.856 110.878 526.464 109.832 A 7.343 7.343 0 0 0 525.395 107.883 A 5.867 5.867 0 0 0 521.748 105.707 A 8.995 8.995 0 0 0 520.035 105.552 A 8.488 8.488 0 0 0 517.922 105.8 A 5.68 5.68 0 0 0 514.75 107.851 Q 513.466 109.506 513.107 112.33 A 18.846 18.846 0 0 0 512.967 114.705 Q 512.967 117.632 513.727 119.655 Z M 571.369 119.655 A 7.482 7.482 0 0 0 572.414 121.58 A 5.845 5.845 0 0 0 576.221 123.821 A 8.858 8.858 0 0 0 577.721 123.943 A 8.284 8.284 0 0 0 579.906 123.671 A 5.765 5.765 0 0 0 583.038 121.59 A 7.656 7.656 0 0 0 584.23 119.268 Q 584.853 117.361 584.853 114.705 A 17.795 17.795 0 0 0 584.685 112.169 Q 584.499 110.878 584.106 109.832 A 7.343 7.343 0 0 0 583.038 107.883 A 5.867 5.867 0 0 0 579.391 105.707 A 8.995 8.995 0 0 0 577.678 105.552 A 8.488 8.488 0 0 0 575.565 105.8 A 5.68 5.68 0 0 0 572.392 107.851 Q 571.109 109.506 570.749 112.33 A 18.846 18.846 0 0 0 570.609 114.705 Q 570.609 117.632 571.369 119.655 Z M 494.06 105.552 A 10.022 10.022 0 0 0 492.119 105.727 Q 491.014 105.946 490.174 106.437 A 4.743 4.743 0 0 0 488.797 107.647 A 6.105 6.105 0 0 0 487.913 109.33 Q 487.317 111.002 487.209 113.542 A 27.478 27.478 0 0 0 487.185 114.705 Q 487.185 118.92 488.379 121.097 A 5.379 5.379 0 0 0 488.84 121.805 A 5.174 5.174 0 0 0 491.464 123.576 Q 492.634 123.943 494.146 123.943 A 7.11 7.11 0 0 0 496.166 123.672 A 5.129 5.129 0 0 0 499.045 121.547 Q 500.196 119.836 500.525 117.056 A 20.435 20.435 0 0 0 500.656 114.662 A 21.071 21.071 0 0 0 500.529 112.261 Q 500.227 109.634 499.208 108.049 A 5.917 5.917 0 0 0 499.045 107.808 Q 497.433 105.552 494.06 105.552 Z"
       id="bottom_labelLayer"
       stroke="#777777"
       fill="#777777"
       style="stroke:#777777;fill:#777777"
       vector-effect="non-scaling-stroke" />
  </g>
  <text
     xml:space="preserve"
     style="font-style:normal;font-variant:normal;font-weight:normal;font-stretch:normal;font-size:4.23333359px;line-height:1;font-family:Hack;-inkscape-font-specification:Hack;letter-spacing:0px;word-spacing:0px;fill:#000000;fill-opacity:1;stroke:none;stroke-width:0.26458335"
     x="285.57751"
     y="265.9711"
     id="text1130"><tspan
       sodipodi:role="line"
       id="tspan1128"
       x="285.57751"
       y="265.9711"
       style="stroke-width:0.26458335;font-size:11.28888912px">fingerwidth 20.25mm</tspan></text>
</svg>
