<?xml version="1.0" encoding="UTF-8" standalone="no"?>
<svg
   xmlns:dc="http://purl.org/dc/elements/1.1/"
   xmlns:cc="http://creativecommons.org/ns#"
   xmlns:rdf="http://www.w3.org/1999/02/22-rdf-syntax-ns#"
   xmlns:svg="http://www.w3.org/2000/svg"
   xmlns="http://www.w3.org/2000/svg"
   xmlns:sodipodi="http://sodipodi.sourceforge.net/DTD/sodipodi-0.dtd"
   xmlns:inkscape="http://www.inkscape.org/namespaces/inkscape"
   width="391.10001mm"
   height="223.10001mm"
   viewBox="0 0 391.10001 223.10001"
   version="1.1"
   preserveAspectRatio="xMidYMid meet"
   id="svg13"
   sodipodi:docname="Electornics-Box_Sides.svg"
   inkscape:version="0.92.3 (2405546, 2018-03-11)">
  <metadata
     id="metadata19">
    <rdf:RDF>
      <cc:Work
         rdf:about="">
        <dc:format>image/svg+xml</dc:format>
        <dc:type
           rdf:resource="http://purl.org/dc/dcmitype/StillImage" />
        <dc:title />
      </cc:Work>
    </rdf:RDF>
  </metadata>
  <defs
     id="defs17" />
  <sodipodi:namedview
     pagecolor="#ffffff"
     bordercolor="#666666"
     borderopacity="1"
     objecttolerance="10"
     gridtolerance="10"
     guidetolerance="10"
     inkscape:pageopacity="0"
     inkscape:pageshadow="2"
     inkscape:window-width="1920"
     inkscape:window-height="1138"
     id="namedview15"
     showgrid="false"
     inkscape:zoom="0.51656745"
     inkscape:cx="559.92242"
     inkscape:cy="505.74004"
     inkscape:window-x="1912"
     inkscape:window-y="-8"
     inkscape:window-maximized="1"
     inkscape:current-layer="svg13"
     inkscape:document-units="mm"
     inkscape:measure-start="529.405,124.566"
     inkscape:measure-end="567.049,124.566" />
  <g
     id="g4805"
     transform="translate(0.05000625,-1.9500061)">
    <path
       d="m 0,115 v 24.625 h 3 v 20.25 H 0 v 20.25 h 3 v 20.25 H 0 v 20.25 4.375 h 26.125 v -3 h 20.25 v 3 h 20.25 v -3 h 20.25 v 3 h 20.25 v -3 h 20.25 v 3 h 20.25 v -3 h 20.25 v 3 h 20.25 5.875 v -24.625 h -3 v -20.25 h 3 v -20.25 h -3 v -20.25 h 3 V 119.375 115 Z"
       id="front_outsideCutPath"
       style="font-size:medium;vector-effect:non-scaling-stroke;fill:none;fill-rule:evenodd;stroke:#ff0000;stroke-width:0.1;stroke-linecap:round"
       inkscape:connector-curvature="0" />
    <path
       d="m 113.033,178.309 h -1.783 v -7.616 a 5.041,5.041 0 0 0 -0.058,-0.791 q -0.066,-0.416 -0.209,-0.748 a 2.121,2.121 0 0 0 -0.389,-0.61 2.01,2.01 0 0 0 -0.824,-0.526 q -0.324,-0.114 -0.723,-0.157 a 4.727,4.727 0 0 0 -0.505,-0.026 5.397,5.397 0 0 0 -1.009,0.088 q -0.563,0.108 -0.996,0.346 a 2.514,2.514 0 0 0 -0.702,0.565 q -0.859,0.999 -0.859,3.298 v 6.177 h -1.783 v -11.774 h 1.45 l 0.29,1.612 h 0.086 a 3.611,3.611 0 0 1 1.414,-1.287 4.342,4.342 0 0 1 0.122,-0.061 4.829,4.829 0 0 1 1.718,-0.459 5.839,5.839 0 0 1 0.484,-0.019 7.04,7.04 0 0 1 1.199,0.095 q 1.256,0.217 2.002,0.93 0.818,0.781 1.013,2.273 a 7.782,7.782 0 0 1 0.062,1.009 z M 78.776,166.535 v 1.386 h -2.997 v 10.388 H 73.996 V 167.921 H 71.89 v -0.806 l 2.106,-0.644 v -0.655 a 7.227,7.227 0 0 1 0.168,-1.638 q 0.631,-2.702 3.624,-2.702 a 5.742,5.742 0 0 1 0.812,0.062 q 0.396,0.057 0.835,0.165 a 11.543,11.543 0 0 1 0.544,0.149 l -0.462,1.429 a 8.659,8.659 0 0 0 -0.673,-0.19 q -0.34,-0.08 -0.64,-0.116 a 3.835,3.835 0 0 0 -0.449,-0.027 2.405,2.405 0 0 0 -0.579,0.065 1.544,1.544 0 0 0 -0.914,0.606 2.063,2.063 0 0 0 -0.273,0.55 q -0.181,0.537 -0.206,1.335 a 8.419,8.419 0 0 0 -0.004,0.269 v 0.762 z m 43.334,10.302 v 1.364 q -0.29,0.14 -0.854,0.231 a 7.729,7.729 0 0 1 -0.504,0.066 q -0.272,0.026 -0.511,0.026 a 4.657,4.657 0 0 1 -1.373,-0.185 q -1.508,-0.466 -1.903,-2.105 a 5.605,5.605 0 0 1 -0.14,-1.309 v -7.004 h -1.687 v -0.859 l 1.687,-0.741 0.752,-2.514 h 1.031 v 2.728 h 3.416 v 1.386 h -3.416 v 6.929 q 0,1.063 0.505,1.633 a 1.657,1.657 0 0 0 1.018,0.542 2.383,2.383 0 0 0 0.368,0.027 q 0.472,0 0.913,-0.07 a 9.647,9.647 0 0 0 0.257,-0.044 q 0.264,-0.049 0.441,-0.101 z m -34.407,-10.388 -0.247,1.655 q -0.731,-0.161 -1.289,-0.161 a 3.09,3.09 0 0 0 -2.283,0.986 4.227,4.227 0 0 0 -0.161,0.174 4.072,4.072 0 0 0 -0.983,2.286 5.413,5.413 0 0 0 -0.032,0.603 v 6.317 h -1.784 v -11.774 h 1.472 l 0.204,2.181 h 0.086 q 0.655,-1.149 1.579,-1.772 a 3.555,3.555 0 0 1 2.03,-0.623 8.186,8.186 0 0 1 0.733,0.031 5.975,5.975 0 0 1 0.675,0.097 z m 12.2,7.754 a 9.211,9.211 0 0 0 0.164,-1.792 10.466,10.466 0 0 0 -0.004,-0.283 q -0.07,-2.604 -1.452,-4.164 a 4.668,4.668 0 0 0 -2.167,-1.398 5.992,5.992 0 0 0 -1.759,-0.245 6.926,6.926 0 0 0 -1.244,0.106 4.717,4.717 0 0 0 -2.752,1.5 4.926,4.926 0 0 0 -0.605,0.839 q -0.466,0.812 -0.672,1.855 a 9.259,9.259 0 0 0 -0.162,1.79 q 0,1.859 0.666,3.245 a 5.861,5.861 0 0 0 0.129,0.254 4.828,4.828 0 0 0 1.761,1.872 4.965,4.965 0 0 0 1.14,0.507 5.726,5.726 0 0 0 1.664,0.235 6.924,6.924 0 0 0 1.209,-0.101 4.754,4.754 0 0 0 2.798,-1.516 4.974,4.974 0 0 0 0.592,-0.814 q 0.483,-0.826 0.694,-1.89 z m -8.806,-1.792 a 9.03,9.03 0 0 0 0.086,1.29 q 0.095,0.655 0.294,1.186 a 3.741,3.741 0 0 0 0.523,0.962 2.923,2.923 0 0 0 1.903,1.121 4.429,4.429 0 0 0 0.75,0.061 4.142,4.142 0 0 0 1.093,-0.136 2.882,2.882 0 0 0 1.566,-1.041 3.828,3.828 0 0 0 0.596,-1.161 q 0.175,-0.536 0.252,-1.191 a 9.393,9.393 0 0 0 0.059,-1.091 8.897,8.897 0 0 0 -0.084,-1.268 q -0.192,-1.332 -0.823,-2.142 a 2.933,2.933 0 0 0 -1.824,-1.088 4.497,4.497 0 0 0 -0.857,-0.078 4.244,4.244 0 0 0 -1.056,0.124 2.84,2.84 0 0 0 -1.586,1.026 3.687,3.687 0 0 0 -0.573,1.107 q -0.17,0.509 -0.249,1.132 a 9.423,9.423 0 0 0 -0.07,1.187 z"
       id="front_labelLayer"
       style="font-size:medium;vector-effect:non-scaling-stroke;fill:#777777;fill-rule:evenodd;stroke:#777777;stroke-width:0.25000001mm;stroke-linecap:round"
       inkscape:connector-curvature="0" />
    <path
       d="m 200,115 v 24.625 h -3 v 20.25 h 3 v 20.25 h -3 v 20.25 h 3 v 20.25 4.375 h 23.125 v -3 h 20.25 v 3 h 20.25 v -3 h 20.25 v 3 h 20.25 v -3 h 20.25 v 3 h 20.25 v -3 h 20.25 v 3 h 20.25 2.875 v -24.625 h 3 v -20.25 h -3 v -20.25 h 3 v -20.25 h -3 V 119.375 115 Z"
       id="left_outsideCutPath"
       style="font-size:medium;vector-effect:non-scaling-stroke;fill:none;fill-rule:evenodd;stroke:#ff0000;stroke-width:0.1;stroke-linecap:round"
       inkscape:connector-curvature="0" />
    <path
       d="m 301.826,166.535 v 1.386 h -2.997 v 10.388 h -1.784 v -10.388 h -2.105 v -0.806 l 2.105,-0.644 v -0.655 a 7.227,7.227 0 0 1 0.169,-1.638 q 0.631,-2.702 3.623,-2.702 a 5.742,5.742 0 0 1 0.813,0.062 q 0.395,0.057 0.835,0.165 a 11.543,11.543 0 0 1 0.544,0.149 l -0.462,1.429 a 8.659,8.659 0 0 0 -0.674,-0.19 q -0.34,-0.08 -0.639,-0.116 a 3.835,3.835 0 0 0 -0.449,-0.027 2.405,2.405 0 0 0 -0.58,0.065 1.544,1.544 0 0 0 -0.913,0.606 2.063,2.063 0 0 0 -0.273,0.55 q -0.181,0.537 -0.206,1.335 a 8.419,8.419 0 0 0 -0.004,0.269 v 0.762 z m -8.347,5.081 v 1.128 h -8.11 a 7.157,7.157 0 0 0 0.125,1.199 q 0.129,0.652 0.387,1.168 a 3.348,3.348 0 0 0 0.535,0.781 3.24,3.24 0 0 0 1.701,0.958 4.909,4.909 0 0 0 1.097,0.116 9.418,9.418 0 0 0 3.528,-0.699 10.792,10.792 0 0 0 0.232,-0.096 v 1.59 q -0.945,0.408 -1.788,0.585 a 7.486,7.486 0 0 1 -0.743,0.115 q -0.366,0.039 -0.779,0.054 a 14.528,14.528 0 0 1 -0.514,0.009 6.929,6.929 0 0 1 -1.734,-0.206 4.907,4.907 0 0 1 -2.386,-1.384 5.248,5.248 0 0 1 -1.255,-2.305 q -0.254,-0.951 -0.254,-2.11 0,-2.847 1.402,-4.523 a 4.57,4.57 0 0 1 3.33,-1.661 6.304,6.304 0 0 1 0.435,-0.014 5.433,5.433 0 0 1 1.53,0.204 4.134,4.134 0 0 1 1.972,1.251 q 1.289,1.456 1.289,3.84 z m 15.909,5.221 v 1.364 q -0.29,0.14 -0.854,0.231 a 7.729,7.729 0 0 1 -0.504,0.066 q -0.271,0.026 -0.511,0.026 a 4.657,4.657 0 0 1 -1.372,-0.185 q -1.509,-0.466 -1.904,-2.105 a 5.605,5.605 0 0 1 -0.14,-1.309 v -7.004 h -1.686 v -0.859 l 1.686,-0.741 0.752,-2.514 h 1.031 v 2.728 h 3.416 v 1.386 h -3.416 v 6.929 q 0,1.063 0.505,1.633 a 1.657,1.657 0 0 0 1.018,0.542 2.383,2.383 0 0 0 0.368,0.027 q 0.473,0 0.913,-0.07 a 9.647,9.647 0 0 0 0.257,-0.044 q 0.264,-0.049 0.441,-0.101 z m -28.993,-15.243 v 16.715 h -1.783 v -16.715 z m 5.017,9.7 h 6.155 a 6.077,6.077 0 0 0 -0.074,-0.977 q -0.161,-0.99 -0.678,-1.606 a 2.443,2.443 0 0 0 -1.471,-0.838 3.665,3.665 0 0 0 -0.677,-0.059 3.515,3.515 0 0 0 -1.016,0.139 2.716,2.716 0 0 0 -1.246,0.785 3.523,3.523 0 0 0 -0.7,1.181 q -0.178,0.486 -0.258,1.071 a 6.737,6.737 0 0 0 -0.035,0.304 z"
       id="left_labelLayer"
       style="font-size:medium;vector-effect:non-scaling-stroke;fill:#777777;fill-rule:evenodd;stroke:#777777;stroke-width:0.25000001mm;stroke-linecap:round"
       inkscape:connector-curvature="0" />
    <path
       d="m 0,2 v 24.625 h 3 v 20.25 H 0 v 20.25 h 3 v 20.25 H 0 v 20.25 4.375 h 26.125 v -3 h 20.25 v 3 h 20.25 v -3 h 20.25 v 3 h 20.25 v -3 h 20.25 v 3 h 20.25 v -3 h 20.25 v 3 H 188.125 194 V 87.375 h -3 v -20.25 h 3 v -20.25 h -3 v -20.25 h 3 V 6.375 2 Z"
       id="back_outsideCutPath"
       style="font-size:medium;vector-effect:non-scaling-stroke;fill:none;fill-rule:evenodd;stroke:#ff0000;stroke-width:0.1000125;stroke-linecap:round;stroke-miterlimit:4;stroke-dasharray:none"
       inkscape:connector-curvature="0" />
    <path
       d="m 112.061,59.224 h 0.085 q 0.462,-0.656 1.408,-1.719 l 3.802,-4.029 h 2.117 l -4.77,5.017 5.103,6.757 h -2.16 l -4.157,-5.565 -1.343,1.161 v 4.404 h -1.761 V 48.535 h 1.761 v 8.862 a 11.883,11.883 0 0 1 -0.005,0.336 q -0.016,0.564 -0.08,1.491 z M 75.978,63.735 H 75.849 L 75.473,65.25 H 74.194 V 48.535 h 1.784 v 4.061 q 0,1.32 -0.081,2.379 a 22.263,22.263 0 0 1 -0.005,0.07 h 0.086 a 4.054,4.054 0 0 1 2.959,-1.719 6.09,6.09 0 0 1 0.736,-0.043 5.45,5.45 0 0 1 1.534,0.205 4.08,4.08 0 0 1 2.07,1.38 5.255,5.255 0 0 1 0.921,1.774 q 0.227,0.731 0.312,1.607 a 11.446,11.446 0 0 1 0.051,1.103 q 0,2.047 -0.645,3.449 a 5.012,5.012 0 0 1 -0.65,1.058 4.221,4.221 0 0 1 -3,1.577 6.048,6.048 0 0 1 -0.593,0.029 q -1.15,0 -2.1,-0.425 a 3.949,3.949 0 0 1 -1.595,-1.305 z m 20.259,1.515 h -1.321 l -0.354,-1.676 h -0.086 q -0.881,1.107 -1.757,1.499 -0.875,0.392 -2.186,0.392 A 5.472,5.472 0 0 1 89.42,65.358 q -0.979,-0.203 -1.631,-0.796 -0.994,-0.902 -0.994,-2.567 0,-3.451 5.342,-3.724 a 17.418,17.418 0 0 1 0.362,-0.014 l 1.998,-0.065 v -0.73 q 0,-0.847 -0.223,-1.423 a 1.99,1.99 0 0 0 -0.373,-0.624 1.81,1.81 0 0 0 -0.742,-0.483 q -0.487,-0.177 -1.165,-0.177 -1.183,0 -2.616,0.583 a 11.942,11.942 0 0 0 -0.714,0.319 l -0.548,-1.364 a 8.222,8.222 0 0 1 1.587,-0.652 9.359,9.359 0 0 1 0.32,-0.089 8.258,8.258 0 0 1 2.079,-0.269 7.531,7.531 0 0 1 1.147,0.081 q 1.257,0.195 1.973,0.854 1.015,0.934 1.015,2.997 z m 11.527,-11.376 -0.548,1.515 a 7.933,7.933 0 0 0 -0.861,-0.287 9.475,9.475 0 0 0 -0.428,-0.106 7.366,7.366 0 0 0 -0.561,-0.103 q -0.273,-0.039 -0.516,-0.049 a 3.953,3.953 0 0 0 -0.159,-0.003 3.955,3.955 0 0 0 -1.606,0.302 q -1.981,0.873 -1.981,4.274 a 8.636,8.636 0 0 0 0.085,1.257 q 0.094,0.638 0.292,1.156 a 3.699,3.699 0 0 0 0.498,0.917 2.832,2.832 0 0 0 1.835,1.096 4.314,4.314 0 0 0 0.759,0.064 7.465,7.465 0 0 0 2.059,-0.299 9.216,9.216 0 0 0 0.96,-0.335 v 1.579 a 5.072,5.072 0 0 1 -1.241,0.44 q -0.573,0.127 -1.24,0.161 a 9.779,9.779 0 0 1 -0.495,0.012 6.665,6.665 0 0 1 -1.621,-0.186 4.519,4.519 0 0 1 -2.337,-1.388 5.158,5.158 0 0 1 -1.073,-1.97 q -0.237,-0.782 -0.303,-1.722 a 10.782,10.782 0 0 1 -0.026,-0.761 9.839,9.839 0 0 1 0.152,-1.789 q 0.185,-0.998 0.594,-1.784 a 4.916,4.916 0 0 1 0.677,-0.992 4.617,4.617 0 0 1 2.528,-1.454 7,7 0 0 1 1.527,-0.157 8.047,8.047 0 0 1 1.698,0.182 q 0.839,0.181 1.321,0.424 a 2.653,2.653 0 0 1 0.011,0.006 z m -30.292,1.345 a 2.372,2.372 0 0 0 -0.689,0.605 q -0.805,1.047 -0.805,3.528 0,2.482 0.827,3.551 a 2.587,2.587 0 0 0 1.312,0.885 q 0.439,0.138 0.974,0.172 a 5.734,5.734 0 0 0 0.367,0.012 3.555,3.555 0 0 0 1.01,-0.136 2.564,2.564 0 0 0 1.439,-1.062 q 0.576,-0.856 0.74,-2.246 a 10.218,10.218 0 0 0 0.066,-1.197 10.535,10.535 0 0 0 -0.064,-1.201 q -0.151,-1.313 -0.66,-2.105 a 2.958,2.958 0 0 0 -0.082,-0.121 2.6,2.6 0 0 0 -1.655,-1.048 4.124,4.124 0 0 0 -0.837,-0.08 q -1.187,0 -1.943,0.443 z m 16.982,5.304 V 59.46 l -1.783,0.075 a 13.093,13.093 0 0 0 -1.046,0.076 q -1.032,0.12 -1.679,0.405 a 2.739,2.739 0 0 0 -0.342,0.18 1.903,1.903 0 0 0 -0.907,1.38 2.817,2.817 0 0 0 -0.033,0.44 q 0,0.851 0.453,1.344 a 1.588,1.588 0 0 0 0.133,0.128 1.941,1.941 0 0 0 0.727,0.386 q 0.288,0.086 0.632,0.11 a 4.011,4.011 0 0 0 0.279,0.009 4.91,4.91 0 0 0 1.06,-0.108 q 0.739,-0.163 1.284,-0.574 a 2.977,2.977 0 0 0 0.271,-0.231 2.986,2.986 0 0 0 0.834,-1.491 q 0.115,-0.48 0.117,-1.048 a 5.64,5.64 0 0 0 0,-0.018 z"
       id="back_labelLayer"
       style="font-size:medium;vector-effect:non-scaling-stroke;fill:#777777;fill-rule:evenodd;stroke:#777777;stroke-width:0.25000001mm;stroke-linecap:round"
       inkscape:connector-curvature="0" />
    <path
       d="m 200,2 v 24.625 h -3 v 20.25 h 3 v 20.25 h -3 v 20.25 h 3 v 20.25 4.375 h 23.125 v -3 h 20.25 v 3 h 20.25 v -3 h 20.25 v 3 h 20.25 v -3 h 20.25 v 3 h 20.25 v -3 h 20.25 v 3 H 385.125 388 V 87.375 h 3 v -20.25 h -3 v -20.25 h 3 v -20.25 h -3 V 6.375 2 Z"
       id="right_outsideCutPath"
       style="font-size:medium;vector-effect:non-scaling-stroke;fill:none;fill-rule:evenodd;stroke:#ff0000;stroke-width:0.1;stroke-linecap:round"
       inkscape:connector-curvature="0" />
    <path
       d="m 307.68,62.715 h -1.783 v -7.616 a 5.041,5.041 0 0 0 -0.058,-0.791 q -0.066,-0.416 -0.208,-0.748 a 2.121,2.121 0 0 0 -0.389,-0.61 2.01,2.01 0 0 0 -0.825,-0.526 q -0.324,-0.114 -0.722,-0.157 a 4.727,4.727 0 0 0 -0.505,-0.026 5.396,5.396 0 0 0 -1.009,0.088 q -0.559,0.107 -0.99,0.343 a 2.497,2.497 0 0 0 -0.713,0.579 q -0.781,0.923 -0.848,2.924 a 11.509,11.509 0 0 0 -0.006,0.385 v 6.155 H 297.84 V 46 h 1.784 v 5.06 a 16.041,16.041 0 0 1 -0.012,0.616 q -0.011,0.288 -0.033,0.536 a 6.975,6.975 0 0 1 -0.041,0.362 h 0.107 a 3.563,3.563 0 0 1 1.248,-1.201 4.352,4.352 0 0 1 0.251,-0.136 4.578,4.578 0 0 1 1.502,-0.446 5.787,5.787 0 0 1 0.716,-0.043 7.235,7.235 0 0 1 1.215,0.095 q 0.647,0.111 1.158,0.349 a 3.214,3.214 0 0 1 0.866,0.582 3.105,3.105 0 0 1 0.765,1.202 q 0.184,0.5 0.26,1.121 a 7.711,7.711 0 0 1 0.054,0.937 z M 291.352,50.941 h 4.071 v 1.128 l -2.18,0.258 a 2.898,2.898 0 0 1 0.251,0.373 q 0.11,0.193 0.209,0.424 a 5.497,5.497 0 0 1 0.077,0.186 3.431,3.431 0 0 1 0.203,0.82 4.406,4.406 0 0 1 0.033,0.55 4.088,4.088 0 0 1 -0.187,1.267 3.306,3.306 0 0 1 -0.995,1.493 q -1.181,1.032 -3.244,1.032 -0.526,0 -0.988,-0.086 a 3.173,3.173 0 0 0 -0.511,0.331 q -0.628,0.506 -0.628,1.183 a 0.924,0.924 0 0 0 0.047,0.303 q 0.086,0.248 0.327,0.397 a 0.989,0.989 0 0 0 0.024,0.015 1.251,1.251 0 0 0 0.277,0.114 q 0.291,0.085 0.733,0.108 a 6.783,6.783 0 0 0 0.354,0.009 h 2.084 a 7.299,7.299 0 0 1 1.109,0.078 q 1.124,0.173 1.829,0.727 a 2.609,2.609 0 0 1 0.97,1.662 3.918,3.918 0 0 1 0.056,0.68 q 0,1.917 -1.508,2.941 a 4.241,4.241 0 0 1 -0.06,0.04 5.348,5.348 0 0 1 -1.379,0.625 Q 291.008,68 289.128,68 q -1.515,0 -2.575,-0.37 a 4.144,4.144 0 0 1 -0.986,-0.489 q -1.17,-0.804 -1.246,-2.228 a 3.765,3.765 0 0 1 -0.005,-0.2 q 0,-1.074 0.687,-1.859 a 3.114,3.114 0 0 1 1.07,-0.779 4.413,4.413 0 0 1 0.864,-0.284 1.851,1.851 0 0 1 -0.718,-0.581 2.197,2.197 0 0 1 -0.039,-0.053 1.653,1.653 0 0 1 -0.304,-0.893 2.048,2.048 0 0 1 -0.002,-0.106 2.039,2.039 0 0 1 0.102,-0.657 1.807,1.807 0 0 1 0.241,-0.471 2.552,2.552 0 0 1 0.337,-0.38 q 0.302,-0.283 0.748,-0.554 a 3.126,3.126 0 0 1 -1.358,-1.088 3.875,3.875 0 0 1 -0.13,-0.191 3.686,3.686 0 0 1 -0.565,-1.776 4.499,4.499 0 0 1 -0.009,-0.286 5.152,5.152 0 0 1 0.135,-1.218 3.39,3.39 0 0 1 1.025,-1.763 q 1.16,-1.048 3.287,-1.048 a 6.835,6.835 0 0 1 0.904,0.058 5.206,5.206 0 0 1 0.761,0.157 z m 25.405,10.302 v 1.364 q -0.29,0.14 -0.854,0.231 a 7.729,7.729 0 0 1 -0.504,0.066 q -0.271,0.026 -0.511,0.026 a 4.657,4.657 0 0 1 -1.372,-0.185 q -1.509,-0.466 -1.904,-2.105 a 5.605,5.605 0 0 1 -0.14,-1.309 v -7.004 h -1.686 v -0.859 l 1.686,-0.742 0.752,-2.513 h 1.031 v 2.728 h 3.416 v 1.386 h -3.416 v 6.929 q 0,1.063 0.505,1.633 a 1.657,1.657 0 0 0 1.019,0.542 2.383,2.383 0 0 0 0.367,0.027 q 0.473,0 0.913,-0.07 a 9.647,9.647 0 0 0 0.258,-0.044 q 0.263,-0.049 0.44,-0.101 z m -38.736,-10.388 -0.247,1.655 q -0.731,-0.161 -1.289,-0.161 a 3.09,3.09 0 0 0 -2.283,0.986 4.227,4.227 0 0 0 -0.161,0.174 4.072,4.072 0 0 0 -0.982,2.286 5.413,5.413 0 0 0 -0.033,0.603 v 6.317 h -1.783 V 50.941 h 1.471 l 0.204,2.181 h 0.086 q 0.656,-1.149 1.579,-1.772 a 3.555,3.555 0 0 1 2.031,-0.624 8.186,8.186 0 0 1 0.733,0.032 5.975,5.975 0 0 1 0.674,0.097 z m 3.985,0.086 v 11.774 h -1.783 V 50.941 Z m 8.734,11.505 h -2.138 a 4.099,4.099 0 0 0 -0.739,0.063 q -0.419,0.077 -0.751,0.248 a 2.089,2.089 0 0 0 -0.401,0.269 1.879,1.879 0 0 0 -0.617,1.066 2.853,2.853 0 0 0 -0.059,0.599 q 0,0.892 0.7,1.382 a 2.092,2.092 0 0 0 0.105,0.069 q 0.806,0.494 2.31,0.494 2.245,0 3.325,-0.672 a 2.601,2.601 0 0 0 0.603,-0.505 1.949,1.949 0 0 0 0.476,-1.316 2.413,2.413 0 0 0 -0.044,-0.479 q -0.117,-0.578 -0.547,-0.847 -0.59,-0.371 -2.223,-0.371 z m -3.739,-7.734 a 3.481,3.481 0 0 0 0.072,0.73 q 0.152,0.708 0.627,1.139 a 2.305,2.305 0 0 0 0.927,0.504 q 0.353,0.101 0.775,0.124 a 4.591,4.591 0 0 0 0.242,0.006 q 2.061,0 2.495,-1.58 a 3.612,3.612 0 0 0 0.115,-0.955 q 0,-2.106 -1.664,-2.541 a 3.878,3.878 0 0 0 -0.978,-0.113 q -0.963,0 -1.586,0.398 a 2.052,2.052 0 0 0 -0.348,0.279 q -0.574,0.574 -0.661,1.621 a 4.691,4.691 0 0 0 -0.016,0.388 z m -6.903,-7.288 a 1.976,1.976 0 0 0 -0.025,0.327 q 0,0.303 0.076,0.528 a 0.921,0.921 0 0 0 0.225,0.369 1.001,1.001 0 0 0 0.362,0.23 1.133,1.133 0 0 0 0.389,0.065 1.04,1.04 0 0 0 0.742,-0.295 q 0.216,-0.206 0.282,-0.559 a 1.845,1.845 0 0 0 0.029,-0.338 2.04,2.04 0 0 0 -0.009,-0.193 q -0.043,-0.457 -0.302,-0.699 a 1.051,1.051 0 0 0 -0.742,-0.29 1.361,1.361 0 0 0 -0.09,0.003 1.031,1.031 0 0 0 -0.661,0.282 q -0.214,0.202 -0.276,0.57 z"
       id="right_labelLayer"
       style="font-size:medium;vector-effect:non-scaling-stroke;fill:#777777;fill-rule:evenodd;stroke:#777777;stroke-width:0.25000001mm;stroke-linecap:round"
       inkscape:connector-curvature="0" />
    <g
       transform="translate(0,2)"
       style="fill:#ececec;fill-opacity:0.51690823"
       id="g4792">
      <rect
         style="opacity:1;fill:#ececec;fill-opacity:0.51690823;stroke:#ff0000;stroke-width:0.01322981;stroke-miterlimit:4;stroke-dasharray:none;stroke-opacity:1"
         id="rect4758"
         width="27.38677"
         height="41.686768"
         x="20.006615"
         y="42.356617" />
      <circle
         style="opacity:1;fill:#ececec;fill-opacity:0.51690823;stroke:#ff0000;stroke-width:0.01318743;stroke-miterlimit:4;stroke-dasharray:none;stroke-opacity:1"
         id="path4772"
         cx="33.700001"
         cy="35.950001"
         r="1.7434063" />
      <circle
         style="opacity:1;fill:#ececec;fill-opacity:0.51690823;stroke:#ff0000;stroke-width:0.01318743;stroke-miterlimit:4;stroke-dasharray:none;stroke-opacity:1"
         id="path4772-9"
         cx="33.700001"
         cy="90.449997"
         r="1.7434063" />
    </g>
    <rect
       rx="0.4405953"
       ry="0.4405953"
       y="77.552826"
       x="155.00282"
       height="6.4943504"
       width="10.49435"
       id="rect4794"
       style="opacity:1;fill:#ececec;fill-opacity:0.51690823;stroke:#ff0000;stroke-width:0.00555625;stroke-linejoin:round;stroke-miterlimit:4;stroke-dasharray:none;stroke-opacity:1" />
    <ellipse
       ry="7.9933863"
       rx="7.9933858"
       cy="192"
       cx="158"
       id="path4796"
       style="opacity:1;fill:#ececec;fill-opacity:0.51690823;stroke:#ff0000;stroke-width:0.01322779;stroke-linejoin:round;stroke-miterlimit:4;stroke-dasharray:none;stroke-opacity:1" />
    <path
       inkscape:connector-curvature="0"
       d="m 37.708915,184.47905 a 0.68383049,0.68383803 0 0 0 -0.483639,0.19986 l -0.85497,0.85438 a 0.6839704,0.68397788 0 1 0 0.966976,0.96759 l 0.65451,-0.65421 h 5.700121 a 0.68389763,0.68390512 0 1 0 0,-1.36762 z m 5.982998,0.25632 c 0.235883,0 0.426882,0.1908 0.426882,0.42749 0,0.23589 -0.190999,0.42659 -0.426882,0.42659 -0.236688,0 -0.427488,-0.1907 -0.427488,-0.42659 0,-0.23669 0.1908,-0.42749 0.427488,-0.42749 z m -6.837969,0.85408 c 0.23588,0 0.427484,0.1916 0.427484,0.42749 0,0.23588 -0.191604,0.42748 -0.427484,0.42748 -0.235887,0 -0.427488,-0.1916 -0.427488,-0.42748 0,-0.23589 0.191601,-0.42749 0.427488,-0.42749 z m 2.136524,6.58203 a 0.68383049,0.68383803 0 0 0 -0.683796,0.6838 v 1.70906 a 0.68383049,0.68383803 0 0 0 0.200461,0.48365 l 0.427484,0.42749 a 0.68383049,0.68383803 0 1 0 0.966677,-0.96699 l -0.22703,-0.22733 v -0.74207 h 1.453637 a 0.68389774,0.68390523 0 0 0 0,-1.36761 z m 2.137433,0.25632 c 0.235878,0 0.42658,0.1908 0.42658,0.42748 0,0.23589 -0.190702,0.42658 -0.42658,0.42658 -0.236691,0 -0.427487,-0.19069 -0.427487,-0.42658 0,-0.23668 0.190796,-0.42748 0.427487,-0.42748 z m -1.709947,2.13654 c 0.235883,0 0.427488,0.1916 0.427488,0.4275 0,0.23588 -0.191605,0.42749 -0.427488,0.42749 -0.235881,0 -0.427486,-0.19161 -0.427486,-0.42749 0,-0.2359 0.191605,-0.4275 0.427486,-0.4275 z m 1.271895,-6.67683 a 0.68383049,0.68383803 0 0 0 -0.673234,0.69377 v 2.56404 a 0.68389774,0.68390523 0 0 0 1.367596,0 v -2.56404 a 0.68383049,0.68383803 0 0 0 -0.694362,-0.69377 z m 0.01058,0.26628 c 0.235883,0 0.427485,0.19161 0.427488,0.42749 0,0.23589 -0.191605,0.42749 -0.427488,0.42749 -0.235882,0 -0.427488,-0.1916 -0.427488,-0.42749 0,-0.23588 0.191606,-0.42749 0.427488,-0.42749 z m 0,2.56404 c 0.235883,0 0.427488,0.1916 0.427488,0.42749 0,0.23588 -0.191605,0.42749 -0.427488,0.42749 -0.235882,0 -0.427488,-0.19161 -0.427488,-0.42749 0,-0.23589 0.191606,-0.42749 0.427488,-0.42749 z m -2.573669,-3.24755 a 0.68383049,0.68383803 0 0 0 -0.473981,0.19986 l -0.854974,0.85498 a 0.68383049,0.68383803 0 0 0 -0.200457,0.48365 v 5.55557 a 0.68394826,0.68395574 0 1 0 1.367895,0 v -5.27239 l 0.170571,-0.17087 0.170875,0.17057 v 1.85367 a 0.68389774,0.68390523 0 1 0 1.367594,0 v -2.13655 a 0.68383049,0.68383803 0 0 0 -0.199857,-0.48365 l -0.854368,-0.85498 a 0.68383049,0.68383803 0 0 0 -0.493298,-0.19986 z m 0.863724,3.24755 c 0.236687,0 0.427487,0.1916 0.427487,0.42749 0,0.23588 -0.1908,0.42749 -0.427487,0.42749 -0.235882,0 -0.426581,-0.19161 -0.426581,-0.42749 0,-0.23589 0.190699,-0.42749 0.426581,-0.42749 z m -1.709039,3.41902 c 0.235884,0 0.427487,0.19161 0.427487,0.42749 0,0.23589 -0.191603,0.4275 -0.427487,0.4275 -0.235881,0 -0.427485,-0.19161 -0.427485,-0.4275 0,-0.23588 0.191604,-0.42749 0.427485,-0.42749 z m -7.272105,-5.39134 a 0.68383049,0.68383803 0 0 0 -0.476393,1.17409 l 0.371031,0.37104 -0.371031,0.37073 a 0.6840774,0.68408489 0 1 0 0.966976,0.96789 l 0.371636,-0.37133 0.37073,0.37074 a 0.68383049,0.68383803 0 1 0 0.966674,-0.9667 l -0.370729,-0.37073 0.371334,-0.37164 a 0.68383049,0.68383803 0 0 0 -0.497528,-1.17378 0.68383049,0.68383803 0 0 0 -0.470355,0.2068 l -0.37073,0.37103 -0.371032,-0.37103 a 0.68383049,0.68383803 0 0 0 -0.490583,-0.20711 z m 0.0073,0.26326 c 0.235883,0 0.427486,0.1916 0.427486,0.42749 0,0.23589 -0.191603,0.42749 -0.427486,0.42749 -0.235882,0 -0.427487,-0.1916 -0.427487,-0.42749 0,-0.23589 0.191605,-0.42749 0.427487,-0.42749 z m 1.709039,0 c 0.235883,0 0.427487,0.1916 0.427488,0.42749 0,0.23589 -0.191605,0.42749 -0.427488,0.42749 -0.235882,0 -0.427487,-0.1916 -0.427487,-0.42749 0,-0.23589 0.191605,-0.42749 0.427487,-0.42749 z m -1.709039,1.70906 c 0.235883,0 0.427486,0.1916 0.427486,0.42749 0,0.23588 -0.191603,0.42749 -0.427486,0.42749 -0.235882,0 -0.427487,-0.19161 -0.427487,-0.42749 0,-0.23589 0.191605,-0.42749 0.427487,-0.42749 z m 1.709039,0 c 0.235883,0 0.427487,0.1916 0.427488,0.42749 0,0.23588 -0.191605,0.42749 -0.427488,0.42749 -0.235882,0 -0.427487,-0.19161 -0.427487,-0.42749 0,-0.23589 0.191605,-0.42749 0.427487,-0.42749 z m 14.520042,-3.68439 a 0.68383049,0.68383803 0 0 0 -0.673533,0.69346 v 5.69928 l -0.454354,0.45435 h -0.571495 a 0.68395251,0.68396 0 1 0 0,1.36792 h 0.854975 a 0.68383049,0.68383803 0 0 0 0.483336,-0.20046 l 0.854974,-0.85498 a 0.68383049,0.68383803 0 0 0 0.20046,-0.48365 v -5.98246 a 0.68383049,0.68383803 0 0 0 -0.694363,-0.69346 z m 0.01058,0.26597 c 0.235883,0 0.426581,0.1908 0.426581,0.42749 0,0.23589 -0.190698,0.42689 -0.426581,0.42689 -0.236688,0 -0.427488,-0.191 -0.427488,-0.42689 0,-0.23669 0.1908,-0.42749 0.427488,-0.42749 z m -1.709947,6.83744 c 0.235883,0 0.427488,0.19161 0.427488,0.42749 0,0.23589 -0.191605,0.4275 -0.427488,0.4275 -0.23588,0 -0.427486,-0.19161 -0.427486,-0.4275 0,-0.23588 0.191606,-0.42749 0.427486,-0.42749 z m -8.546715,-13.07712 a 0.68383049,0.68383803 0 0 0 -0.483336,0.20046 l -0.854973,0.85499 a 0.68383049,0.68383803 0 1 0 0.966978,0.96698 l 0.654814,-0.65452 h 4.844845 a 0.68395008,0.68395756 0 0 0 0,-1.36791 z m 5.128328,0.25662 c 0.235881,0 0.42658,0.19161 0.42658,0.42749 0,0.23589 -0.190699,0.42749 -0.42658,0.42749 -0.23669,0 -0.427487,-0.1916 -0.427487,-0.42749 0,-0.23588 0.190797,-0.42749 0.427487,-0.42749 z m -5.983297,0.85498 c 0.235881,0 0.427485,0.1908 0.427485,0.42749 0,0.23588 -0.191604,0.42658 -0.427485,0.42658 -0.235884,0 -0.427488,-0.1907 -0.427488,-0.42658 0,-0.23669 0.191604,-0.42749 0.427488,-0.42749 z m -6.410485,-0.25662 a 0.68395252,0.68396 0 0 0 0,1.36792 h 4.701444 a 0.68395252,0.68396 0 0 0 0,-1.36792 z m 0,0.25662 c 0.236687,0 0.427487,0.1908 0.427487,0.42749 0,0.23588 -0.1908,0.42658 -0.427487,0.42658 -0.235882,0 -0.426882,-0.1907 -0.426882,-0.42658 0,-0.23669 0.191,-0.42749 0.426882,-0.42749 z m 4.701444,0 c 0.235881,0 0.42658,0.1908 0.42658,0.42749 0,0.23588 -0.190699,0.42658 -0.42658,0.42658 -0.236687,0 -0.427483,-0.1907 -0.427487,-0.42658 0,-0.23669 0.1908,-0.42749 0.427487,-0.42749 z m 8.97389,5.72584 a 0.68383049,0.68383803 0 0 0 -0.683797,0.68411 v 2.56404 a 0.68394878,0.68395626 0 0 0 1.367897,0 v -1.88024 h 0.768631 v 3.5902 a 0.68394798,0.68395546 0 1 0 1.367893,0 v -4.274 a 0.68383049,0.68383803 0 0 0 -0.683797,-0.68411 z m 0,2.82066 c 0.235884,0 0.427488,0.1916 0.427488,0.42749 0,0.23588 -0.191604,0.42749 -0.427488,0.42749 -0.235882,0 -0.427486,-0.19161 -0.427486,-0.42749 0,-0.23589 0.191604,-0.42749 0.427486,-0.42749 z m 2.136827,1.70997 c 0.235884,0 0.427487,0.1908 0.427487,0.42748 0,0.23589 -0.191603,0.42658 -0.427487,0.42658 -0.235881,0 -0.427485,-0.19069 -0.427485,-0.42658 0,-0.23668 0.191604,-0.42748 0.427485,-0.42748 z m -1.719606,-0.26598 a 0.68383049,0.68383803 0 0 0 -0.67353,0.69346 v 0.5712 l -1.508581,1.5095 a 0.68383049,0.68383803 0 0 0 -0.200459,0.48335 v 0.85438 a 0.68389774,0.68390523 0 1 0 1.367592,0 v -0.5712 l 1.508881,-1.5095 a 0.68383049,0.68383803 0 0 0 0.200461,-0.48365 v -0.85408 a 0.68383049,0.68383803 0 0 0 -0.694364,-0.69346 z m 0.01027,0.26598 c 0.235882,0 0.427486,0.1908 0.427486,0.42748 0,0.23589 -0.191604,0.42658 -0.427486,0.42658 -0.235884,0 -0.427488,-0.19069 -0.427488,-0.42658 0,-0.23668 0.191604,-0.42748 0.427488,-0.42748 z m -1.709042,3.41841 c 0.235882,0 0.426582,0.1916 0.426582,0.4275 0,0.23588 -0.1907,0.42748 -0.426582,0.42748 -0.236688,0 -0.427486,-0.1916 -0.427486,-0.42748 0,-0.2359 0.190798,-0.4275 0.427486,-0.4275 z m -2.602051,-13.07712 a 0.68389763,0.68390512 0 1 0 0,1.36761 h 5.699212 l 0.454357,0.45466 v 1.14239 l -0.454357,0.45437 h -4.807128 a 0.68395008,0.68395756 0 1 0 0,1.36791 h 5.090288 a 0.68383049,0.68383803 0 0 0 0.483641,-0.20046 l 0.854973,-0.85499 a 0.68383049,0.68383803 0 0 0 0.20046,-0.48364 v -1.70906 a 0.68383049,0.68383803 0 0 0 -0.20046,-0.48335 l -0.854973,-0.85497 a 0.68383049,0.68383803 0 0 0 -0.483641,-0.20047 z m 0.03804,0.25631 c 0.235883,0 0.426579,0.19161 0.426579,0.42749 0,0.23589 -0.190696,0.4275 -0.426579,0.4275 -0.236686,0 -0.427487,-0.19161 -0.427487,-0.4275 0,-0.23588 0.190801,-0.42749 0.427487,-0.42749 z m 0.854065,3.41902 c 0.235883,0 0.427488,0.19161 0.427488,0.4275 0,0.23588 -0.191605,0.42749 -0.427488,0.42749 -0.23588,0 -0.427486,-0.19161 -0.427486,-0.42749 0,-0.23589 0.191606,-0.4275 0.427486,-0.4275 z m -1.709139,21.7957 0.427486,0.4267 h 1.709141 l 0.427487,-0.4267 v -5.55577 l -0.427489,-0.42749 H 39.41802 v -5.98326 l -0.427486,-0.42749 -0.426679,0.42749 v 5.98326 h -0.427488 l -0.427485,0.42749 z M 34.076444,195.84611 H 33.00813 l -0.427487,0.42749 v 2.99164 l 0.427487,0.42748 0.854168,0.42749 v 8.11991 l 0.427486,0.4267 h 1.709945 l 0.426684,-0.4267 v -8.11991 l 0.85497,-0.42749 0.427485,-0.42748 v -2.99164 l -0.427485,-0.42749 H 36.21307 v 2.3508 l -1.068313,0.42749 -1.068313,-0.42749 z m 1.068313,10.89821 c 0.471765,0 0.640827,0.16906 0.640827,0.64083 0,0.47177 -0.169062,0.64083 -0.640827,0.64083 -0.471766,0 -0.640827,-0.16906 -0.640827,-0.64083 0,-0.47177 0.169061,-0.64083 0.640827,-0.64083 z m 0,0 m 0.417121,-20.13838 a 0.68383049,0.68383803 0 0 0 -0.673531,0.69347 v 1.45274 h -0.768933 v -1.02525 a 0.68383049,0.68383803 0 0 0 -0.683797,-0.68381 H 29.58914 a 0.68383049,0.68383803 0 0 0 -0.483638,0.20046 l -1.281553,1.28157 a 0.68383049,0.68383803 0 0 0 -0.200461,0.48365 v 2.99153 a 0.68383049,0.68383803 0 0 0 0.200158,0.48334 l 0.854068,0.85498 a 0.68383049,0.68383803 0 0 0 0.483941,0.20047 h 3.990476 l 1.308725,1.30874 v 2.28085 a 0.68394798,0.68395546 0 1 0 1.367892,0 v -2.56434 A 0.68383049,0.68383803 0 0 0 35.628291,194.081 l -1.709343,-1.70906 a 0.68383049,0.68383803 0 0 0 -0.483336,-0.20046 h -3.990778 l -0.45345,-0.45406 v -2.42547 l 0.880937,-0.88094 h 2.879494 v 1.04517 1.68914 a 0.68389763,0.68390512 0 1 0 1.367594,0 v -1.02525 h 0.768934 v 2.30773 a 0.68394826,0.68395574 0 0 0 1.367895,0 v -5.12839 a 0.68383049,0.68383803 0 0 0 -0.694365,-0.69347 z m 0.01027,0.26598 c 0.235882,0 0.427487,0.1916 0.427487,0.42749 0,0.23588 -0.191605,0.42749 -0.427487,0.42749 -0.235884,0 -0.427486,-0.19161 -0.427486,-0.42749 0,-0.23589 0.191602,-0.42749 0.427486,-0.42749 z m -2.136525,0.42749 c 0.235882,0 0.42658,0.1908 0.42658,0.42749 0,0.23589 -0.190698,0.42689 -0.42658,0.42689 -0.236689,0 -0.427485,-0.191 -0.427489,-0.42689 0,-0.23669 0.1908,-0.42749 0.427489,-0.42749 z m 0,3.41842 c 0.235882,0 0.42658,0.1916 0.42658,0.42749 0,0.23588 -0.190698,0.42749 -0.42658,0.42749 -0.236689,0 -0.427485,-0.19161 -0.427489,-0.42749 0,-0.23589 0.1908,-0.42749 0.427489,-0.42749 z m 2.136525,1.28247 c 0.235882,0 0.427487,0.19161 0.427487,0.4275 0,0.23588 -0.191605,0.42748 -0.427487,0.42748 -0.235884,0 -0.427486,-0.1916 -0.427486,-0.42748 0,-0.23589 0.191602,-0.4275 0.427486,-0.4275 z m -0.427486,4.70089 c 0.235881,0 0.427486,0.19161 0.427486,0.42749 0,0.23589 -0.191605,0.4275 -0.427486,0.4275 -0.235882,0 -0.427487,-0.19161 -0.427487,-0.4275 0,-0.23588 0.191605,-0.42749 0.427487,-0.42749 z m 1.696059,-13.93874 a 0.68383049,0.68383803 0 0 0 -0.470352,0.20711 l -2.363865,2.36357 h -5.699213 a 0.68383049,0.68383803 0 0 0 -0.483338,0.20046 l -0.427487,0.4275 a 0.68383049,0.68383803 0 1 0 0.966977,0.96698 l 0.227329,-0.22703 h 5.69891 a 0.68383049,0.68383803 0 0 0 0.483641,-0.20046 l 2.564013,-2.56434 a 0.68383049,0.68383803 0 0 0 -0.496622,-1.17379 z m 0.01326,0.26295 c 0.235882,0 0.427485,0.19161 0.427485,0.42749 0,0.23589 -0.191603,0.4275 -0.427485,0.4275 -0.235886,0 -0.427487,-0.19161 -0.427487,-0.4275 0,-0.23588 0.191601,-0.42749 0.427487,-0.42749 z m -8.974188,2.99154 c 0.235883,0 0.427487,0.1916 0.427487,0.42748 0,0.23589 -0.191604,0.4275 -0.427487,0.4275 -0.235882,0 -0.427486,-0.19161 -0.427486,-0.4275 0,-0.23588 0.191604,-0.42748 0.427486,-0.42748 z m -1.292713,1.0165 a 0.68383049,0.68383803 0 0 0 -0.673533,0.69346 v 5.12838 a 0.68383049,0.68383803 0 0 0 0.20046,0.48334 l 1.709945,1.70937 a 0.68383049,0.68383803 0 0 0 0.483338,0.20046 h 4.273353 a 0.68395252,0.68396 0 1 0 0,-1.36792 h -3.990174 l -1.309026,-1.30873 v -4.8449 a 0.68383049,0.68383803 0 0 0 -0.694363,-0.69346 z m 0.01026,0.26597 c 0.235883,0 0.427487,0.1908 0.427487,0.42749 0,0.23589 -0.191604,0.42689 -0.427487,0.42689 -0.235882,0 -0.427486,-0.191 -0.427486,-0.42689 0,-0.23669 0.191604,-0.42749 0.427486,-0.42749 z m 5.983299,6.83744 c 0.235882,0 0.427485,0.19161 0.427485,0.42749 0,0.23589 -0.191603,0.4275 -0.427485,0.4275 -0.235883,0 -0.427488,-0.19161 -0.427485,-0.4275 0,-0.23588 0.191602,-0.42749 0.427485,-0.42749 z m -5.128325,-10.51278 a 0.68383049,0.68383803 0 0 0 -0.483337,0.20046 l -2.564012,2.56405 a 0.68383049,0.68383803 0 0 0 -0.200461,0.48334 v 5.12838 a 0.68389763,0.68390512 0 0 0 1.367594,0 v -4.84489 l 2.163697,-2.16373 h 5.699818 a 0.68389763,0.68390512 0 0 0 0,-1.36761 z m 5.983299,0.25632 c 0.235881,0 0.42658,0.1916 0.42658,0.42749 0,0.23588 -0.190699,0.42749 -0.42658,0.42749 -0.236687,0 -0.427483,-0.19161 -0.427487,-0.42749 0,-0.23589 0.1908,-0.42749 0.427487,-0.42749 z m -8.547311,7.69242 c 0.235882,0 0.427486,0.19161 0.427486,0.42749 0,0.23589 -0.191604,0.4275 -0.427486,0.4275 -0.235883,0 -0.427486,-0.19161 -0.427486,-0.4275 0,-0.23588 0.191603,-0.42749 0.427486,-0.42749 z M 35.97004,172 c -10.135681,0.002 -18.823287,7.68347 -19.866643,17.98512 -1.113397,10.98837 6.892226,20.79822 17.88046,21.91162 10.989058,1.11261 20.799505,-6.89288 21.9129,-17.88125 C 57.00935,183.02711 49.003035,173.21727 38.014787,172.10386 37.328073,172.03466 36.645484,172 35.97004,172 Z m -0.350202,1.0796 c 0.06762,-0.006 0.112517,0.0289 0.118948,0.0967 0,0.0258 -0.0064,0.058 -0.01599,0.0773 l -1.066,1.5907 c -0.01288,0.0193 -0.01599,0.029 -0.01599,0.0387 0.0032,0.0101 0.0097,0.013 0.02265,0.0323 l 1.645334,1.9708 c 0.01288,0.0161 0.02275,0.0322 0.02597,0.058 0.0065,0.0676 -0.0322,0.11281 -0.09661,0.11925 l -0.769835,0.074 c -0.04187,0.006 -0.08694,-0.013 -0.11593,-0.0516 l -1.123659,-1.4458 c -0.01288,-0.0161 -0.0322,-0.0355 -0.05797,-0.0323 -0.0161,0 -0.03562,0.0195 -0.04529,0.0356 l -0.231857,0.35081 0.115928,1.17863 c 0.0065,0.0644 -0.0322,0.10949 -0.09661,0.11593 l -0.65693,0.0646 c -0.06441,0.006 -0.109486,-0.0322 -0.115928,-0.0967 l -0.367121,-3.79367 c -0.0065,-0.0676 0.02919,-0.1095 0.09359,-0.11593 l 0.656928,-0.0643 c 0.06441,-0.006 0.112506,0.029 0.118948,0.0966 l 0.103248,1.08835 c 0.0161,0.1578 0.01288,0.32526 -0.0096,0.43474 l 1.09468,-1.70664 c 0.01931,-0.029 0.04509,-0.0451 0.07729,-0.0483 z m -5.272028,0.95491 c 0.371635,-0.001 0.692451,0.15477 0.900559,0.44923 0.04187,0.0547 0.04488,0.061 0.05132,0.0803 0.0096,0.0289 0.0033,0.0548 -0.02566,0.0773 l -0.460394,0.38975 c -0.01287,0.0101 -0.0291,0.0192 -0.04196,0.0257 -0.03542,0.0129 -0.08684,1e-4 -0.112608,-0.0353 -0.138475,-0.18355 -0.322028,-0.23177 -0.569987,-0.14159 l -0.41873,0.15124 c -0.231857,0.0837 -0.318703,0.32193 -0.238198,0.5377 l 0.576322,1.58769 c 0.08371,0.22864 0.29616,0.34124 0.528017,0.25752 l 0.418733,-0.15125 c 0.247944,-0.0902 0.350994,-0.2383 0.347786,-0.47338 -0.0032,-0.0515 0.02888,-0.087 0.0643,-0.0999 0.01288,-0.006 0.02898,-0.0101 0.0483,-0.0101 l 0.602285,-0.003 c 0.03541,0.003 0.06129,0.0192 0.07094,0.0449 0.0065,0.0193 0.01912,0.058 0.02233,0.12558 0.04187,0.52169 -0.29284,0.94354 -0.882143,1.1593 l -0.418731,0.15126 c -0.824381,0.29948 -1.342839,0.0452 -1.584357,-0.61497 l -0.640924,-1.7616 c -0.231857,-0.63439 0.0161,-1.20428 0.811499,-1.49411 l 0.418733,-0.15124 c 0.184143,-0.0674 0.363621,-0.1008 0.532546,-0.10144 z m 8.567537,0.35594 c 0.01403,-0.002 0.02919,-0.002 0.04529,0.002 l 0.451036,0.0804 c 0.06119,0.0128 0.09328,0.0582 0.08362,0.12256 l -0.102946,0.55369 0.576321,0.10627 c 0.06439,0.0129 0.09981,0.0614 0.08694,0.12257 l -0.08061,0.45074 c -0.01288,0.0644 -0.06119,0.0998 -0.12559,0.0869 l -0.576321,-0.10627 -0.112608,0.60862 c -0.01288,0.0644 -0.06139,0.0998 -0.122571,0.0869 l -0.45073,-0.0806 c -0.06441,-0.0128 -0.09983,-0.0612 -0.08694,-0.12559 l 0.112603,-0.60863 -0.58266,-0.10929 c -0.06764,-0.0101 -0.09983,-0.0612 -0.08694,-0.12559 l 0.08031,-0.45105 c 0.01288,-0.0612 0.05797,-0.0933 0.125588,-0.0836 l 0.582965,0.10958 0.102946,-0.55398 c 0.0073,-0.0483 0.03818,-0.0785 0.08031,-0.0851 z m 4.272449,0.0939 c 0.01365,0.002 0.02769,0.007 0.04136,0.0139 l 0.624625,0.33148 c 0.04188,0.0225 0.06129,0.0582 0.06129,0.0936 l -0.164233,2.18003 c -0.01607,0.12237 -0.04509,0.24141 -0.0483,0.24786 l 0.02566,0.0129 c 0.0032,-0.006 0.09661,-0.10315 0.183556,-0.17721 l 1.687608,-1.37486 c 0.02576,-0.0226 0.07076,-0.0259 0.112604,-0.003 l 0.618287,0.32847 c 0.05797,0.0289 0.07719,0.0805 0.04498,0.14159 l -1.780588,3.37162 c -0.02899,0.058 -0.08694,0.0743 -0.144912,0.0453 l -0.566965,-0.30281 c -0.05796,-0.0289 -0.07395,-0.0836 -0.04499,-0.14159 l 0.496018,-0.93709 c 0.26728,-0.50559 0.640832,-1.04015 0.656929,-1.07236 l -0.02265,-0.0129 c -0.0065,0.0129 -0.338122,0.36077 -0.521677,0.51535 l -0.972409,0.78887 c -0.0322,0.0258 -0.07729,0.0257 -0.115929,0.006 l -0.434731,-0.23186 c -0.0483,-0.0258 -0.07427,-0.0578 -0.06461,-0.0996 l 0.122569,-1.25591 c 0.02254,-0.2383 0.122269,-0.72144 0.122269,-0.73754 l -0.01298,-0.0101 c -0.01609,0.0322 -0.244639,0.65381 -0.518357,1.17228 l -0.499034,0.94343 c -0.02898,0.058 -0.08715,0.074 -0.141892,0.0449 l -0.582659,-0.30914 c -0.05475,-0.0289 -0.07427,-0.0836 -0.04529,-0.1416 l 1.780887,-3.37162 c 0.02416,-0.0459 0.06264,-0.0646 0.103554,-0.0589 z m -17.365123,1.63479 c 0.02053,-10e-4 0.03975,0.005 0.05585,0.019 l 3.126748,2.56645 c 0.01288,0.0129 0.0162,0.0192 0.02264,0.0257 0.0161,0.0258 0.0096,0.0485 -0.02898,0.0743 l -0.637607,0.43474 c -0.02899,0.0193 -0.05806,0.0193 -0.08061,0 l -0.42809,-0.37374 c -0.02899,-0.0193 -0.04518,-0.0159 -0.08061,0.007 l -0.991732,0.67625 c -0.03865,0.0258 -0.04851,0.0385 -0.03562,0.0706 l 0.190195,0.53467 c 0.0065,0.0322 -0.0032,0.058 -0.02898,0.0773 l -0.634588,0.43142 c -0.03865,0.0258 -0.06752,0.0258 -0.08362,0 -0.0096,-0.0129 -0.01922,-0.0386 -0.02567,-0.0547 0,-0.0101 -1.226911,-3.82901 -1.226911,-3.82901 -0.0096,-0.0419 0.0096,-0.0805 0.0483,-0.10626 l 0.775876,-0.53135 c 0.02093,-0.0128 0.04287,-0.0208 0.06339,-0.0221 z m 0.187781,1.13635 -0.08997,0.0613 0.06099,0.11895 0.454054,1.31085 c 0.0161,0.0354 0.04529,0.0483 0.09358,0.016 l 0.598965,-0.40907 c 0.0483,-0.0322 0.0483,-0.0643 0.01932,-0.0933 l -1.049997,-0.9048 z m 22.658584,0.83054 c 0.03049,-0.004 0.06191,0.007 0.08603,0.0317 l 0.676251,0.65694 c 0.03543,0.0322 0.04498,0.074 0.02567,0.11262 l -1.883839,3.58114 c -0.0065,0.0161 -0.0095,0.0225 -0.01598,0.0289 -0.02252,0.0193 -0.04519,0.0191 -0.08061,-0.0163 l -0.553677,-0.53437 c -0.02577,-0.0258 -0.0324,-0.0516 -0.0163,-0.0807 l 0.28016,-0.49601 c 0.01609,-0.029 0.0066,-0.0418 -0.02567,-0.074 l -0.859806,-0.83415 c -0.0354,-0.0354 -0.0483,-0.0386 -0.07729,-0.0257 l -0.486356,0.29616 c -0.02898,0.0129 -0.05474,0.0101 -0.07729,-0.0126 l -0.550656,-0.53465 c -0.03541,-0.0322 -0.04187,-0.0613 -0.01932,-0.0806 0.0097,-0.0128 0.03221,-0.0258 0.0483,-0.0387 0.0097,-0.003 3.5005,-1.97081 3.500498,-1.97081 0.0096,-0.005 0.01971,-0.008 0.02988,-0.009 z m -12.669413,0.13706 c 7.608612,0 13.776167,6.16852 13.776167,13.77723 0,5.87699 -3.680527,10.89336 -8.861887,12.87303 v 3.63095 l -0.615869,0.61588 -0.186876,0.18839 h -2.240377 l -0.187779,-0.18839 -0.426582,-0.4275 -0.188383,-0.18838 -0.61587,0.61588 -0.186873,0.18839 H 34.02401 l -0.186572,-0.18839 -0.615871,-0.61588 v -3.00632 c -6.277837,-1.28489 -10.998715,-6.83976 -10.998715,-13.49766 0,-7.60871 6.168165,-13.77723 13.776773,-13.77723 z m -13.296757,0.33813 c 0.02536,-0.002 0.05213,0.007 0.07789,0.0299 l 2.89157,2.48614 c 0.0483,0.0419 0.05484,0.0965 0.01297,0.14794 l -0.42839,0.49602 c -0.04509,0.0515 -0.102947,0.0548 -0.151251,0.013 l -1.101321,-0.94677 c -0.0483,-0.0419 -0.103047,-0.0356 -0.14491,0.0127 l -0.740552,0.86313 c -0.04186,0.0483 -0.03864,0.10638 0.0096,0.14824 l 1.10132,0.94676 c 0.0483,0.0419 0.05152,0.0965 0.0096,0.14793 l -0.428391,0.49935 c -0.04186,0.0483 -0.102948,0.0546 -0.151251,0.0127 l -2.891862,-2.48585 c -0.05152,-0.0451 -0.05152,-0.0999 -0.0096,-0.14823 l 0.428392,-0.49904 c 0.04186,-0.0515 0.09973,-0.0581 0.151251,-0.013 l 1.030374,0.88547 c 0.0483,0.0419 0.103047,0.0356 0.14491,-0.0126 l 0.740856,-0.86313 c 0.04186,-0.0483 0.03864,-0.10638 -0.0096,-0.14824 l -1.030681,-0.88548 c -0.05152,-0.045 -0.05474,-0.0968 -0.0096,-0.14823 l 0.428393,-0.49572 c 0.02093,-0.0258 0.04499,-0.0405 0.07034,-0.0428 z m 25.611141,0.60621 -0.09993,0.0806 -1.197929,0.7149 c -0.03218,0.0193 -0.03854,0.0484 0.0033,0.0903 l 0.521677,0.50538 c 0.04187,0.0419 0.07399,0.0355 0.09328,0.003 l 0.679575,-1.21393 0.08031,-0.10325 z m 3.002968,1.83767 c 0.02893,0.004 0.05404,0.0227 0.07216,0.0534 l 0.344766,0.56364 c 0.0322,0.0548 0.02235,0.1095 -0.03562,0.14492 l -0.93377,0.56998 c -0.135226,0.0806 -0.2867,0.15125 -0.399408,0.18024 l 2.012749,0.24152 c 0.03542,0.006 0.06121,0.0259 0.07729,0.0516 l 0.37043,0.61195 c 0.03542,0.058 0.02234,0.10949 -0.03562,0.14491 -0.02255,0.0129 -0.05142,0.0258 -0.07397,0.0193 l -1.899835,-0.26749 c -0.02577,0 -0.02897,1e-4 -0.03864,0.003 -0.0065,0.006 -0.0096,0.016 -0.01931,0.0353 l -1.062679,2.3349 c -0.0097,0.0226 -0.01941,0.0354 -0.04197,0.0483 -0.05794,0.0354 -0.116029,0.0224 -0.148232,-0.0323 l -0.402428,-0.66025 c -0.01929,-0.0387 -0.02252,-0.0867 0,-0.12862 l 0.811499,-1.63931 c 0.0096,-0.0161 0.01941,-0.0481 0.0033,-0.0706 -0.0065,-0.0129 -0.03231,-0.0195 -0.05162,-0.0259 l -0.412089,-0.0513 -1.014374,0.61497 c -0.05474,0.0322 -0.11271,0.0194 -0.144913,-0.0353 l -0.344751,-0.56363 c -0.0322,-0.0547 -0.01913,-0.11271 0.03562,-0.14491 l 3.258677,-1.98047 c 0.01449,-0.009 0.02878,-0.0146 0.04257,-0.0172 0.01034,-0.002 0.02054,-0.002 0.03019,-0.001 z m 2.205662,4.24924 c 0.04164,0.004 0.07246,0.0332 0.08694,0.0791 l 0.714894,2.32192 c 0.01929,0.0612 -0.0032,0.11261 -0.06762,0.13193 l -0.556999,0.1739 c -0.06119,0.0193 -0.112919,-0.0128 -0.132233,-0.074 l -0.457069,-1.48776 c -0.01931,-0.0644 -0.07084,-0.0903 -0.135251,-0.0709 l -0.553982,0.17088 c -0.0612,0.0193 -0.08693,0.0708 -0.06762,0.13525 l 0.376767,1.22027 c 0.01929,0.0644 -0.0095,0.11292 -0.07397,0.13224 l -0.55398,0.17058 c -0.06119,0.0193 -0.109602,-0.006 -0.12891,-0.071 l -0.376768,-1.22028 c -0.01931,-0.0644 -0.07407,-0.0903 -0.135252,-0.0709 l -0.582661,0.18023 c -0.06118,0.0193 -0.09026,0.0708 -0.07094,0.13525 l 0.45737,1.48777 c 0.01931,0.0612 -0.0032,0.11291 -0.06762,0.13223 l -0.55398,0.17057 c -0.06441,0.0193 -0.115959,-0.0101 -0.13525,-0.0709 l -0.714891,-2.32162 c -0.01931,-0.0612 0.0066,-0.11593 0.07094,-0.13525 l 3.613106,-1.11432 c 0.01608,-0.005 0.0311,-0.006 0.04499,-0.005 z m -33.302874,0.20319 c 0.08775,0.006 0.310652,0.74377 0.378277,0.80093 0.06843,0.0572 0.833236,0.15145 0.854973,0.2376 0.02093,0.0853 -0.611845,0.52561 -0.644853,0.60773 -0.03381,0.0821 0.113513,0.83908 0.03864,0.88578 -0.07568,0.0466 -0.689934,-0.41864 -0.777687,-0.42508 -0.08855,-0.006 -0.763197,0.3669 -0.830822,0.30974 -0.06762,-0.0564 0.185969,-0.78483 0.164233,-0.87097 -0.02093,-0.0861 -0.585077,-0.61105 -0.551265,-0.69316 0.033,-0.0822 0.803449,-0.066 0.879125,-0.11352 0.07487,-0.0467 0.400818,-0.7455 0.489375,-0.73905 z m 33.497901,3.95429 c 0.52753,0.0257 1.034599,0.51051 1.088942,1.29545 0.04508,0.65694 -0.222096,1.16273 -0.711574,1.37848 -0.06761,0.0193 -0.07397,0.0224 -0.09329,0.0224 -0.02897,0.003 -0.05474,-0.0101 -0.06762,-0.0483 l -0.24484,-0.55065 c -0.0065,-0.0161 -0.0098,-0.0288 -0.01298,-0.0449 -0.0032,-0.0387 0.02274,-0.0772 0.06461,-0.10295 0.196435,-0.10627 0.305811,-0.31579 0.286502,-0.58629 -0.01931,-0.29949 -0.196535,-0.4603 -0.39941,-0.44741 -0.199653,0.0129 -0.318703,0.18657 -0.460393,0.70825 -0.218975,0.84371 -0.608724,1.24957 -1.152945,1.28821 -0.743874,0.0483 -1.255692,-0.44128 -1.316875,-1.32685 -0.0483,-0.71812 0.228437,-1.27523 0.737232,-1.46844 0.06441,-0.0258 0.07417,-0.0257 0.09026,-0.0257 0.02899,-0.003 0.05807,0.0128 0.07094,0.0483 l 0.267182,0.57965 c 0.0065,0.0161 0.0098,0.0321 0.01298,0.0449 0.0032,0.0387 -0.02274,0.0774 -0.0646,0.0999 -0.209318,0.11593 -0.328366,0.32213 -0.305822,0.66992 0.02254,0.32202 0.196433,0.47649 0.41541,0.4604 0.199653,-0.0128 0.354225,-0.16433 0.483035,-0.6989 0.212536,-0.86303 0.595746,-1.25269 1.207589,-1.29455 0.03522,-0.002 0.0705,-0.003 0.105665,-0.001 z m -32.696116,1.86633 c 0.02255,-0.003 0.04841,0.0225 0.05162,0.0546 l 0.04167,0.80185 c 0.0032,0.0483 -0.0095,0.0807 -0.04167,0.10325 l -0.892105,0.5087 c -0.08373,0.0387 -0.351107,0.174 -0.447714,0.21587 v 0.0193 c 0.244738,-0.0289 0.421951,0.0417 0.843802,0.20589 l 0.560321,0.2545 c 0.03542,0.0161 0.05142,0.0547 0.05465,0.0966 l 0.04529,0.84049 c 0,0.0322 -0.02909,0.0547 -0.05162,0.058 -0.0161,0 -0.03532,-0.003 -0.04499,-0.006 l -1.967764,-0.9534 c -0.0161,-0.006 -0.0321,-0.016 -0.05465,-0.016 -0.02255,0.003 -0.03532,0.0161 -0.05465,0.029 l -1.751909,1.11099 c -0.01932,0.0161 -0.02888,0.016 -0.04499,0.016 -0.0322,0.003 -0.0484,-0.0255 -0.05162,-0.0706 l -0.04498,-0.81484 c -0.0032,-0.0676 0.02567,-0.0968 0.0643,-0.11925 l 0.904786,-0.49904 c 0.08051,-0.0418 0.302903,-0.16434 0.40273,-0.2062 l -0.0033,-0.0193 c -0.177112,0.0101 -0.473375,-0.0773 -0.801839,-0.2222 l -0.566661,-0.2542 c -0.04187,-0.0193 -0.07406,-0.0483 -0.07729,-0.11593 l -0.04197,-0.80517 c -0.0032,-0.0483 0.01278,-0.0707 0.04499,-0.074 0.0161,0 0.03552,0.006 0.05162,0.0127 l 1.986785,0.96608 c 0.02255,0.0129 0.04187,0.013 0.05797,0.013 0.01932,0 0.03552,-0.006 0.05162,-0.0193 l 1.732588,-1.10132 c 0.0096,-0.006 0.02567,-0.0101 0.04499,-0.0101 z m 29.874228,1.892 3.735374,0.59234 c 0.06441,0.0101 0.09661,0.0582 0.08694,0.12257 l -0.231855,1.45214 c -0.13203,0.84049 -0.656928,1.18526 -1.400802,1.06933 l -0.09329,-0.0163 c -0.621506,-0.0967 -1.143284,-0.60843 -1.008036,-1.45213 l 0.09026,-0.58931 c 0.01288,-0.0644 -0.01951,-0.10961 -0.08393,-0.11926 l -1.229929,-0.19654 c -0.06441,-0.0101 -0.09993,-0.0579 -0.09026,-0.12226 l 0.102947,-0.65061 c 0.0097,-0.0644 0.05816,-0.0996 0.122568,-0.09 z m 2.083394,1.21395 c -0.06762,-0.0101 -0.11271,0.0225 -0.125589,0.0869 l -0.09329,0.60864 c -0.03864,0.24149 0.09661,0.45416 0.357444,0.49602 l 0.08695,0.0126 c 0.26084,0.0419 0.460393,-0.11896 0.499035,-0.36048 l 0.09329,-0.60862 c 0.01288,-0.0644 -0.01933,-0.10962 -0.08694,-0.11925 z m -31.647571,0.82178 c 0.04166,0.002 0.07245,0.0293 0.08694,0.0752 l 0.209216,0.62463 c 0.01932,0.0612 -0.0032,0.11603 -0.06763,0.13858 l -1.291213,0.42507 c -0.06119,0.0193 -0.08393,0.0675 -0.06461,0.13193 l 0.354427,1.07567 c 0.01932,0.0612 0.06742,0.09 0.128609,0.0706 l 1.291515,-0.42507 c 0.06441,-0.0225 0.112708,1.6e-4 0.13525,0.0646 L 22.32,198.01172 c 0.01932,0.0612 -0.0032,0.11271 -0.06762,0.13525 l -3.622767,1.1916 c -0.06119,0.0193 -0.112607,-0.006 -0.131928,-0.0676 l -0.206196,-0.62494 c -0.02255,-0.0644 0.0034,-0.11262 0.06461,-0.13193 l 1.381482,-0.45406 c 0.06119,-0.0226 0.08362,-0.0741 0.0643,-0.13526 l -0.354116,-1.07567 c -0.01932,-0.0644 -0.06772,-0.0902 -0.12891,-0.0676 l -1.381481,0.45405 c -0.06119,0.0193 -0.112608,-0.009 -0.131929,-0.0706 l -0.209517,-0.62493 c -0.01932,-0.0612 0.0065,-0.11593 0.06762,-0.13524 l 3.622767,-1.1913 c 0.0161,-0.006 0.0314,-0.008 0.04529,-0.007 z m 29.01835,0.82872 c 0.0063,-5.7e-4 0.01288,-1e-5 0.01931,0.002 0.01611,0.006 0.03855,0.0257 0.05465,0.0353 0.0065,0.006 3.126748,2.52147 3.126748,2.52147 0.03221,0.0289 0.04196,0.0742 0.02264,0.11925 l -0.357444,0.86947 c -0.01931,0.045 -0.05484,0.0707 -0.09993,0.0643 l -4.021878,-0.42175 c -0.01933,-0.006 -0.02596,-0.0101 -0.03562,-0.013 -0.02576,-0.0101 -0.03209,-0.0322 -0.01598,-0.0773 l 0.293141,-0.71158 c 0.01608,-0.0322 0.03865,-0.0485 0.06762,-0.0453 l 0.566664,0.0773 c 0.0322,0 0.04519,-0.009 0.06128,-0.0513 l 0.457076,-1.10797 c 0.01931,-0.0451 0.01608,-0.061 -0.0096,-0.0804 l -0.454054,-0.34476 c -0.02253,-0.0193 -0.02888,-0.045 -0.01598,-0.0773 l 0.293141,-0.70824 c 0.01208,-0.0315 0.02943,-0.0483 0.0483,-0.0507 z m 0.825991,1.73019 c -0.01612,0.003 -0.0308,0.0175 -0.04348,0.0465 l -0.277141,0.67294 c -0.02254,0.0547 -0.0064,0.0806 0.0323,0.0903 l 1.375143,0.18023 0.125589,0.0323 0.04167,-0.0999 -0.112607,-0.0643 -1.101323,-0.84381 c -0.0081,-0.006 -0.01594,-0.0108 -0.02354,-0.013 -0.0057,-0.002 -0.0112,-0.002 -0.01661,-0.001 z m -27.916728,1.99254 c 0.03064,0.002 0.05917,0.0208 0.07849,0.0522 l 0.518357,0.78252 c 0.02899,0.0419 0.02899,0.0867 0,0.11896 l -2.60175,3.09478 c -0.01288,0.0193 -0.01952,0.0225 -0.02597,0.0257 -0.02576,0.0161 -0.0483,0.0101 -0.07729,-0.032 l -0.42507,-0.64093 c -0.01932,-0.0289 -0.01923,-0.0581 0.0033,-0.0806 l 0.376767,-0.42508 c 0.02255,-0.0258 0.01942,-0.0448 -0.0064,-0.0804 l -0.66357,-0.99839 c -0.02576,-0.0419 -0.03522,-0.0483 -0.07064,-0.0387 l -0.53798,0.18357 c -0.02898,0.006 -0.05465,0 -0.07396,-0.029 l -0.42175,-0.63762 c -0.02899,-0.0419 -0.02576,-0.0675 0,-0.0836 0.01288,-0.006 0.03854,-0.0195 0.05465,-0.0259 0.0096,-0.003 3.84164,-1.18164 3.84164,-1.18164 0.01046,-0.003 0.02088,-0.005 0.0311,-0.004 z m 25.654915,0.30251 c 0.210817,0.0113 0.423261,0.099 0.634587,0.25601 l 1.504051,1.11734 c 0.544222,0.40575 0.64714,1.0178 0.14159,1.69728 l -0.267178,0.36046 c -0.370327,0.49914 -0.898647,0.6827 -1.388124,0.4927 -0.06441,-0.0226 -0.07085,-0.0289 -0.08694,-0.0387 -0.02253,-0.0193 -0.0322,-0.0448 -0.01931,-0.0803 l 0.173892,-0.57664 c 0.0032,-0.0161 0.0097,-0.0321 0.01931,-0.0449 0.02255,-0.029 0.07105,-0.0484 0.112909,-0.0323 0.218979,0.0773 0.399109,0.0161 0.55368,-0.19321 l 0.26748,-0.36047 c 0.148133,-0.19966 0.08682,-0.44118 -0.09993,-0.57965 l -1.355823,-1.00473 c -0.196433,-0.14813 -0.431511,-0.12578 -0.579641,0.0706 l -0.267178,0.36078 c -0.154571,0.20929 -0.157792,0.39277 -0.02898,0.58599 0.03216,0.0387 0.02587,0.0869 0.0033,0.11593 -0.0096,0.0129 -0.02274,0.0228 -0.03562,0.0356 l -0.502356,0.32848 c -0.0322,0.0225 -0.06435,0.0191 -0.08362,0.003 -0.01608,-0.0101 -0.04834,-0.0352 -0.08694,-0.09 -0.322024,-0.4122 -0.270602,-0.9501 0.102947,-1.45244 l 0.26416,-0.35745 c 0.326022,-0.43877 0.672368,-0.63225 1.023732,-0.61346 z m -26.23335,0.68349 -0.119249,0.0546 -1.316876,0.44138 c -0.03864,0.0161 -0.05152,0.0417 -0.01932,0.09 l 0.40243,0.60561 c 0.0322,0.0483 0.0643,0.0513 0.09329,0.0224 l 0.917767,-1.04005 0.09993,-0.0836 z m 2.575787,1.58318 c 0.02536,4.4e-4 0.05022,0.0125 0.07276,0.035 l 0.470355,0.46372 c 0.04509,0.045 0.05133,0.0999 0.003,0.14823 l -2.676016,2.71469 c -0.04509,0.0483 -0.106168,0.0482 -0.151252,0.003 l -0.470053,-0.46373 c -0.04509,-0.0451 -0.04509,-0.10294 0,-0.15125 l 2.676016,-2.7147 c 0.02416,-0.0242 0.04981,-0.0354 0.07517,-0.035 z m 21.098985,0.32696 c 0.02616,0.003 0.05122,0.0171 0.07215,0.0428 l 2.398875,2.9242 c 0.04188,0.0483 0.0322,0.10608 -0.01932,0.14793 l -1.877198,1.5394 c -0.05152,0.0419 -0.106369,0.0353 -0.148231,-0.013 l -0.370426,-0.45074 c -0.03865,-0.0483 -0.03522,-0.10939 0.0163,-0.15124 l 1.204268,-0.98873 c 0.05152,-0.0419 0.05806,-0.0934 0.01298,-0.14491 l -0.367106,-0.44773 c -0.03864,-0.0515 -0.09671,-0.0611 -0.148229,-0.0193 l -0.988714,0.81151 c -0.05152,0.0451 -0.106167,0.0389 -0.151251,-0.0127 l -0.36711,-0.44771 c -0.03865,-0.0515 -0.03552,-0.10617 0.01598,-0.15125 l 0.988716,-0.81151 c 0.05152,-0.0419 0.05484,-0.0966 0.01299,-0.14491 l -0.386428,-0.47338 c -0.04187,-0.0515 -0.09671,-0.0612 -0.148231,-0.0193 l -1.20427,0.98842 c -0.05152,0.0419 -0.109685,0.0389 -0.151548,-0.0127 l -0.367104,-0.44771 c -0.04187,-0.0515 -0.03522,-0.10939 0.0163,-0.15125 l 1.8772,-1.53939 c 0.02576,-0.0209 0.05323,-0.0298 0.07939,-0.0268 z m -19.532743,1.17559 c 0.02576,-0.005 0.05384,0.002 0.08122,0.0193 l 0.515337,0.32545 c 0.03542,0.0193 0.05465,0.0513 0.05465,0.0804 l -0.09962,2.48283 c 0,0.14813 -0.02274,0.335 -0.03562,0.38009 l 0.01932,0.0101 c 0.09983,-0.28661 0.325344,-0.73433 0.515337,-1.03703 l 0.679571,-1.07869 c 0.03542,-0.0548 0.08997,-0.0677 0.147929,-0.0323 l 0.553982,0.3511 c 0.05797,0.0354 0.06772,0.0902 0.0323,0.14492 l -2.032071,3.2267 c -0.03542,0.0548 -0.09026,0.0677 -0.148231,0.0323 l -0.508698,-0.32213 c -0.03542,-0.0226 -0.05162,-0.0452 -0.05162,-0.0903 l 0.04197,-2.42155 c 0.0065,-0.15458 0.02888,-0.28993 0.03532,-0.30281 l -0.02235,-0.0126 c -0.05152,0.17712 -0.24494,0.56657 -0.460695,0.91113 l -0.67625,1.07567 c -0.03542,0.0548 -0.09319,0.0677 -0.14793,0.0323 l -0.56032,-0.35111 c -0.05474,-0.0354 -0.06773,-0.0935 -0.03231,-0.14823 l 2.03207,-3.22672 c 0.01771,-0.0273 0.04096,-0.0435 0.06672,-0.0483 z m 12.809193,1.46301 c -0.420243,0.11513 -0.847729,0.21013 -1.28246,0.285 v 2.39648 l 0.05253,0.0525 h 1.177702 l 0.05223,-0.0525 z m -5.128026,0.40485 v 0.53135 c 0.210121,-0.095 0.434533,-0.12559 0.640629,-0.12559 0.206093,0 0.430805,0.0306 0.640928,0.12559 v -0.45256 c -0.432318,-0.006 -0.859703,-0.0329 -1.281557,-0.0788 z"
       style="color:#000000;font-style:normal;font-variant:normal;font-weight:normal;font-stretch:normal;font-size:medium;line-height:normal;font-family:sans-serif;font-variant-ligatures:normal;font-variant-position:normal;font-variant-caps:normal;font-variant-numeric:normal;font-variant-alternates:normal;font-feature-settings:normal;text-indent:0;text-align:start;text-decoration:none;text-decoration-line:none;text-decoration-style:solid;text-decoration-color:#000000;letter-spacing:normal;word-spacing:normal;text-transform:none;writing-mode:lr-tb;direction:ltr;text-orientation:mixed;dominant-baseline:auto;baseline-shift:baseline;text-anchor:start;white-space:normal;shape-padding:0;clip-rule:nonzero;display:inline;overflow:visible;visibility:visible;opacity:1;isolation:auto;mix-blend-mode:normal;color-interpolation:sRGB;color-interpolation-filters:linearRGB;solid-color:#000000;solid-opacity:1;vector-effect:none;fill:#000000;fill-opacity:1;fill-rule:nonzero;stroke:none;stroke-width:1.33761311;stroke-linecap:round;stroke-linejoin:round;stroke-miterlimit:4;stroke-dasharray:none;stroke-dashoffset:0;stroke-opacity:1;color-rendering:auto;image-rendering:auto;shape-rendering:auto;text-rendering:auto;enable-background:accumulate"
       id="path166" />
    <g
       transform="translate(0,2)"
       id="text4806"
       style="font-style:normal;font-variant:normal;font-weight:normal;font-stretch:normal;font-size:2.11666656px;line-height:6.61458302px;font-family:'Curlz MT';-inkscape-font-specification:'Curlz MT';letter-spacing:0px;word-spacing:0px;fill:#000000;fill-opacity:1;stroke:none;stroke-width:0.26458332;stroke-opacity:1"
       aria-label="Girls Day 2020">
      <path
         inkscape:connector-curvature="0"
         id="path4827"
         style="font-style:normal;font-variant:normal;font-weight:normal;font-stretch:normal;font-size:9.87777805px;line-height:17.65652847px;font-family:'Curlz MT';-inkscape-font-specification:'Curlz MT, Normal';font-variant-ligatures:normal;font-variant-caps:normal;font-variant-numeric:normal;font-feature-settings:normal;text-align:start;writing-mode:lr-tb;text-anchor:start;fill:#000000;fill-opacity:1;stroke:none;stroke-width:0.26458332;stroke-opacity:1"
         d="m 74.934182,190.43187 q -0.299034,0.0579 -0.699354,0.0868 0,0.61736 0.08682,1.5 0.09164,0.87781 0.09164,1.31671 0,0.53055 -0.327973,0.91157 -0.32315,0.38103 -0.810287,0.38103 -0.332796,0 -0.655946,-0.21704 -0.318327,-0.21704 -0.318327,-0.49196 0,-0.26527 0.221864,-0.5016 0.226688,-0.23151 0.506429,-0.23151 0.207395,0 0.347266,0.13504 0.139871,0.13987 0.139871,0.27974 0,0.11576 -0.110932,0.19775 -0.106109,0.082 -0.207395,0.082 -0.16881,0 -0.16881,-0.18811 0.07235,0.0482 0.130225,0.0482 0.09646,0 0.09646,-0.15917 0,-0.23633 -0.207395,-0.23633 -0.106109,0 -0.192925,0.15916 -0.08199,0.16399 -0.08199,0.32315 0,0.27974 0.139871,0.44855 0.144694,0.17364 0.371381,0.17364 0.400321,0 0.655947,-0.30868 0.255626,-0.30386 0.255626,-0.6463 0,-0.32798 -0.139871,-0.82958 -0.135048,-0.50161 -0.16881,-0.73312 -0.55466,0.93087 -1.649512,0.93087 -1.147905,0 -2.059478,-0.83923 -0.911572,-0.83923 -0.911572,-1.99678 0,-1.45176 0.844048,-2.56108 0.844049,-1.11415 2.03054,-1.11415 0.766878,0 1.229899,0.40997 0.467844,0.40514 0.467844,0.86334 0,0.44855 -0.390674,0.80064 -0.385851,0.34727 -0.863341,0.34727 -0.284565,0 -0.487136,-0.20257 -0.202572,-0.20258 -0.202572,-0.51126 0,-0.22668 0.178456,-0.43408 0.183279,-0.20739 0.371381,-0.20739 0.139871,0 0.303858,0.13987 0.163986,0.13987 0.163986,0.22669 0,0.17845 -0.09164,0.29421 -0.09164,0.11093 -0.217041,0.0916 0.02894,-0.2074 -0.08199,-0.28457 -0.106109,-0.082 -0.192925,-0.082 -0.110932,0 -0.178456,0.11575 -0.06752,0.11094 -0.06752,0.23151 0,0.0965 0.149517,0.2701 0.154341,0.17363 0.352089,0.17363 0.337619,0 0.540191,-0.25562 0.202572,-0.26045 0.202572,-0.70418 0,-0.45338 -0.342443,-0.78617 -0.337619,-0.33762 -0.853695,-0.33762 -0.998388,0 -1.586811,0.8971 -0.588422,0.89228 -0.588422,2.39228 0,1.22989 0.713824,2.04983 0.718647,0.81511 1.745974,0.81511 0.622185,0 0.945335,-0.59807 0.327973,-0.59807 0.327973,-1.52894 -0.347266,0 -1.234723,0.11094 v -0.28457 q 0.882634,-0.0482 1.282954,-0.0627 0.405143,-0.0145 0.704178,-0.0579 0.299034,-0.0482 0.491959,-0.10128 z" />
      <path
         inkscape:connector-curvature="0"
         id="path4829"
         style="font-style:normal;font-variant:normal;font-weight:normal;font-stretch:normal;font-size:9.87777805px;line-height:17.65652847px;font-family:'Curlz MT';-inkscape-font-specification:'Curlz MT, Normal';font-variant-ligatures:normal;font-variant-caps:normal;font-variant-numeric:normal;font-feature-settings:normal;text-align:start;writing-mode:lr-tb;text-anchor:start;fill:#000000;fill-opacity:1;stroke:none;stroke-width:0.26458332;stroke-opacity:1"
         d="m 76.757327,187.02191 -0.05788,0.01 q -0.183279,-0.29421 -0.545014,-0.29421 -0.274919,0 -0.501606,0.16398 -0.226687,0.16399 -0.226687,0.38103 0,0.26045 0.192925,0.41479 0.192925,0.15434 0.376205,0.15434 0.366558,0 0.366558,-0.32315 0,-0.36656 -0.284565,-0.36656 -0.05306,0 -0.115755,0.0434 -0.0627,0.0386 -0.0627,0.0965 0,0.11576 0.139871,0.11576 0.0627,0 0.15434,-0.0579 -0.05305,0.24598 -0.226687,0.24598 -0.07717,0 -0.139871,-0.0916 -0.05788,-0.0916 -0.05788,-0.15434 0,-0.12058 0.101286,-0.20739 0.101286,-0.0916 0.24598,-0.0916 0.192925,0 0.356912,0.1061 0.163986,0.10611 0.163986,0.29904 0,0.20257 -0.207394,0.34726 -0.202572,0.13988 -0.443729,0.13988 -0.284565,0 -0.496782,-0.19775 -0.212218,-0.19775 -0.212218,-0.49679 0,-0.3135 0.221864,-0.55466 0.221864,-0.24115 0.47749,-0.24115 0.641477,0 0.781348,0.55948 z m 0.347265,5.81188 q -1.114144,0 -1.389062,0.0338 -0.274919,0.0386 -0.47749,0.082 v -0.26527 l 0.622184,-0.0193 q 0,-2.09324 -0.217041,-4.0032 l -0.535368,-0.0193 v -0.17845 q 0.496783,0.01 0.689708,0.01 0.342443,0 0.921219,-0.17845 v 0.22186 l -0.434082,0.10611 -0.101286,1.55305 -0.115755,2.45015 q 0.549837,0 1.036973,-0.0627 z" />
      <path
         inkscape:connector-curvature="0"
         id="path4831"
         style="font-style:normal;font-variant:normal;font-weight:normal;font-stretch:normal;font-size:9.87777805px;line-height:17.65652847px;font-family:'Curlz MT';-inkscape-font-specification:'Curlz MT, Normal';font-variant-ligatures:normal;font-variant-caps:normal;font-variant-numeric:normal;font-feature-settings:normal;text-align:start;writing-mode:lr-tb;text-anchor:start;fill:#000000;fill-opacity:1;stroke:none;stroke-width:0.26458332;stroke-opacity:1"
         d="m 78.324845,189.47206 q 0.197749,-0.66559 0.55466,-1.01768 0.361735,-0.35209 0.733117,-0.35209 0.356912,0 0.612538,0.29421 0.255626,0.28939 0.255626,0.709 0,0.49196 -0.289388,0.80064 -0.289388,0.30869 -0.747586,0.30869 -0.236333,0 -0.40032,-0.18328 -0.163987,-0.18328 -0.163987,-0.43891 0,-0.1254 0.212218,-0.30868 0.217041,-0.1881 0.352089,-0.1881 0.192925,0 0.332796,0.0916 0.139871,0.0916 0.139871,0.25562 0,0.18328 -0.32315,0.25563 0.05788,-0.14469 0.05788,-0.23633 0,-0.18811 -0.130225,-0.18811 -0.110932,0 -0.188102,0.13505 -0.07717,0.13505 -0.07717,0.2701 0,0.1254 0.106109,0.24598 0.110932,0.12058 0.23151,0.12058 0.327973,0 0.516076,-0.23152 0.192925,-0.23633 0.192925,-0.58842 0,-0.2508 -0.226687,-0.42926 -0.226688,-0.18328 -0.516076,-0.18328 -0.299034,0 -0.545014,0.15917 -0.24598,0.15434 -0.458198,0.55466 -0.207394,0.40032 -0.207394,0.5016 0,0.0772 0.183279,2.70578 0.588422,-0.17845 1.070736,-0.48231 l 0.05788,0.23633 q -0.540191,0.2701 -1.003212,0.42444 -0.463021,0.15434 -1.181667,0.24598 v -0.24598 q 0.424435,0 0.819932,-0.11093 0,-0.51126 -0.23151,-1.76527 -0.226687,-1.25402 -0.487137,-2.11253 l -0.684885,0.24598 -0.04823,-0.15917 q 0.935688,-0.24115 1.490348,-0.75241 -0.02894,0.40997 -0.02894,0.56431 0,0.42444 0.01929,0.84887 z" />
      <path
         inkscape:connector-curvature="0"
         id="path4833"
         style="font-style:normal;font-variant:normal;font-weight:normal;font-stretch:normal;font-size:9.87777805px;line-height:17.65652847px;font-family:'Curlz MT';-inkscape-font-specification:'Curlz MT, Normal';font-variant-ligatures:normal;font-variant-caps:normal;font-variant-numeric:normal;font-feature-settings:normal;text-align:start;writing-mode:lr-tb;text-anchor:start;fill:#000000;fill-opacity:1;stroke:none;stroke-width:0.26458332;stroke-opacity:1"
         d="m 82.467917,191.78234 q -0.06752,0.32798 -0.270095,0.32798 -0.32315,0 -0.32315,-0.33762 0,-0.24598 0.202571,-0.42926 0.202572,-0.18328 0.458198,-0.18328 0.217041,0 0.381027,0.19775 0.163987,0.19775 0.163987,0.44855 0,0.48231 -0.472667,0.82958 -0.472667,0.34244 -0.930865,0.34244 -0.188102,0 -0.381028,-0.19292 -0.192925,-0.18811 -0.192925,-0.44856 0,-0.60289 0.173633,-1.61092 0.173633,-1.00804 0.24598,-2.0209 0.07717,-1.01285 0.07717,-2.92764 l -0.593246,0.0193 0.0096,-0.16398 q 0.906749,0 1.784559,-0.26045 v 0.16881 l -0.405143,0.13022 q -0.294211,2.38745 -0.434082,3.22668 -0.135048,0.8344 -0.41479,1.85691 -0.274918,1.0225 -0.274918,1.40353 0,0.20257 0.15434,0.42926 0.159164,0.22186 0.327973,0.22186 0.405143,0 0.689708,-0.2508 0.289388,-0.25563 0.289388,-0.67524 0,-0.15434 -0.09646,-0.27974 -0.09164,-0.1254 -0.241157,-0.1254 -0.381028,0 -0.381028,0.30385 0,0.11094 0.135048,0.11094 0.149517,0 0.255626,-0.13023 z" />
      <path
         inkscape:connector-curvature="0"
         id="path4835"
         style="font-style:normal;font-variant:normal;font-weight:normal;font-stretch:normal;font-size:9.87777805px;line-height:17.65652847px;font-family:'Curlz MT';-inkscape-font-specification:'Curlz MT, Normal';font-variant-ligatures:normal;font-variant-caps:normal;font-variant-numeric:normal;font-feature-settings:normal;text-align:start;writing-mode:lr-tb;text-anchor:start;fill:#000000;fill-opacity:1;stroke:none;stroke-width:0.26458332;stroke-opacity:1"
         d="m 84.464695,192.06209 q -0.207395,-0.19775 -0.356912,-0.19775 -0.08199,0 -0.202572,0.13022 -0.115755,0.13023 -0.115755,0.2074 0,0.23633 0.274919,0.44372 0.279742,0.2074 0.704177,0.2074 0.202572,0 0.434082,-0.2508 0.231511,-0.25081 0.231511,-0.54019 0,-0.24598 -0.188102,-0.52573 -0.18328,-0.28456 -1.04662,-0.97909 -0.371382,-0.29421 -0.516076,-0.49196 -0.144694,-0.20257 -0.226687,-0.4582 -0.07717,-0.25563 -0.07717,-0.51125 0,-0.46302 0.376204,-0.85852 0.376205,-0.3955 0.916396,-0.3955 0.424435,0 0.742762,0.2074 0.32315,0.20257 0.32315,0.55948 0,0.28939 -0.221864,0.54019 -0.217041,0.24598 -0.496783,0.24598 -0.226687,0 -0.381027,-0.22669 -0.154341,-0.23151 -0.154341,-0.44372 0,-0.26528 0.303858,-0.26528 0.09646,0 0.178456,0.0338 -0.0096,0.0193 -0.04341,0.0579 -0.173633,0.19293 -0.173633,0.35209 0,0.11576 0.173633,0.1881 0.173632,0.0675 0.289388,0.0675 0.09646,0 0.173632,-0.10129 0.07717,-0.10611 0.07717,-0.20257 0,-0.32797 -0.241157,-0.5836 -0.236334,-0.26045 -0.56913,-0.26045 -0.30868,0 -0.516075,0.24116 -0.207395,0.23633 -0.207395,0.50643 0,0.94051 0.858518,1.59163 0.911572,0.70418 0.911572,1.38424 0,0.3955 -0.163986,0.68489 -0.163987,0.28456 -0.395497,0.46784 -0.231511,0.1881 -0.366559,0.22669 -0.135047,0.0434 -0.419612,0.0434 -0.303858,0 -0.520899,-0.29904 -0.217041,-0.29903 -0.217041,-0.64147 0,-0.24598 0.183279,-0.44373 0.18328,-0.19775 0.385851,-0.19775 0.144694,0 0.250803,0.0772 0.110932,0.0772 0.110932,0.19292 0,0.10129 -0.08199,0.21705 z" />
      <path
         inkscape:connector-curvature="0"
         id="path4837"
         style="font-style:normal;font-variant:normal;font-weight:normal;font-stretch:normal;font-size:9.87777805px;line-height:17.65652847px;font-family:'Curlz MT';-inkscape-font-specification:'Curlz MT, Normal';font-variant-ligatures:normal;font-variant-caps:normal;font-variant-numeric:normal;font-feature-settings:normal;text-align:start;writing-mode:lr-tb;text-anchor:start;fill:#000000;fill-opacity:1;stroke:none;stroke-width:0.26458332;stroke-opacity:1"
         d="m 91.332838,186.74699 q 0.192925,-0.0193 0.395497,-0.0193 1.027327,0 1.876199,0.3762 0.848872,0.37139 1.244369,1.00804 0.395497,0.63183 0.395497,1.31189 0,1.14308 -1.263662,2.24758 -1.258837,1.1045 -3.390663,1.16238 l -0.05788,-0.25081 0.858518,-0.0482 q -0.197749,-3.0241 -0.73794,-5.50319 -0.559483,0.15916 -0.897103,0.49196 -0.337619,0.33279 -0.337619,0.78617 0,0.13504 0.09164,0.26045 0.09164,0.12057 0.183279,0.12057 0.149518,0 0.299035,-0.11093 0.15434,-0.11575 0.15434,-0.29421 0,-0.13505 -0.05305,-0.23633 -0.04823,-0.10611 -0.115756,-0.10611 -0.115755,0 -0.115755,0.15916 0,0.0627 0.06752,0.11576 l -0.03858,0.0579 q -0.236334,0 -0.236334,-0.19775 0,-0.13505 0.110933,-0.22187 0.115755,-0.0916 0.265272,-0.0916 0.16881,0 0.299034,0.13987 0.135048,0.13987 0.135048,0.29422 0,0.23151 -0.274919,0.43408 -0.270095,0.19775 -0.545014,0.19775 -0.274918,0 -0.472667,-0.20258 -0.197748,-0.20257 -0.197748,-0.40032 0,-0.36655 0.458197,-0.76687 0.458198,-0.40515 1.167199,-0.5836 l -0.135048,-0.59325 0.80064,-0.12058 z m 0.265272,5.76847 q 1.336008,-0.20257 2.102887,-1.00321 0.771701,-0.80064 0.771701,-2.08842 0,-1.12379 -0.781348,-1.80867 -0.781347,-0.68971 -1.92443,-0.68971 -0.212218,0 -0.395497,0.0193 0.226687,3.21703 0.226687,5.57072 z" />
      <path
         inkscape:connector-curvature="0"
         id="path4839"
         style="font-style:normal;font-variant:normal;font-weight:normal;font-stretch:normal;font-size:9.87777805px;line-height:17.65652847px;font-family:'Curlz MT';-inkscape-font-specification:'Curlz MT, Normal';font-variant-ligatures:normal;font-variant-caps:normal;font-variant-numeric:normal;font-feature-settings:normal;text-align:start;writing-mode:lr-tb;text-anchor:start;fill:#000000;fill-opacity:1;stroke:none;stroke-width:0.26458332;stroke-opacity:1"
         d="m 97.106129,189.5637 q -0.03376,0.19775 -0.226687,0.19775 -0.106109,0 -0.173633,-0.0724 -0.06752,-0.0772 -0.06752,-0.19775 0,-0.13987 0.120579,-0.26044 0.125401,-0.12541 0.265272,-0.12541 0.651123,0 0.651123,0.37621 0,0.3135 -0.332796,0.57877 -0.332796,0.26045 -0.573953,0.26045 -0.284565,0 -0.482314,-0.15916 -0.197748,-0.16399 -0.197748,-0.43408 0,-0.55949 0.525722,-1.13826 0.525721,-0.57878 1.094851,-0.57878 0.467844,0 0.786171,0.40515 0.318327,0.40032 0.318327,0.98874 0,0.41961 -0.120579,0.71865 -0.115755,0.29903 -0.356912,0.70417 -0.617361,1.02251 -0.617361,1.8762 0,0.0965 0.0096,0.19775 h -0.197748 l 0.0096,-0.64148 q -0.602891,0.3955 -0.868164,0.3955 -0.327973,0 -0.540191,-0.19775 -0.212218,-0.20257 -0.212218,-0.52572 0,-0.30386 0.313504,-0.53537 0.318327,-0.23633 0.704178,-0.23633 0.274918,0 0.87781,-0.0579 0.356912,-0.77652 0.356912,-1.38424 0,-1.39871 -0.641477,-1.39871 -0.588422,0 -0.844048,0.38103 -0.255627,0.37621 -0.255627,1.0418 0,0.18328 0.106109,0.3135 0.110932,0.13023 0.270096,0.13023 0.197748,0 0.376204,-0.18328 0.178456,-0.18328 0.178456,-0.40032 0,-0.12058 -0.110932,-0.2074 -0.110932,-0.0916 -0.24598,-0.0916 -0.05788,0 -0.106109,0.0579 -0.04341,0.0579 -0.04341,0.12058 0,0.12058 0.101286,0.12058 0.08199,0 0.149517,-0.0386 z m 0.641477,1.70739 q -0.405143,0.0241 -0.655946,0.0675 -0.24598,0.0386 -0.40032,0.22668 -0.149517,0.18328 -0.149517,0.38585 0,0.19293 0.101285,0.31833 0.106109,0.1254 0.274919,0.1254 0.294211,0 0.660769,-0.37138 z" />
      <path
         inkscape:connector-curvature="0"
         id="path4841"
         style="font-style:normal;font-variant:normal;font-weight:normal;font-stretch:normal;font-size:9.87777805px;line-height:17.65652847px;font-family:'Curlz MT';-inkscape-font-specification:'Curlz MT, Normal';font-variant-ligatures:normal;font-variant-caps:normal;font-variant-numeric:normal;font-feature-settings:normal;text-align:start;writing-mode:lr-tb;text-anchor:start;fill:#000000;fill-opacity:1;stroke:none;stroke-width:0.26458332;stroke-opacity:1"
         d="m 102.03537,188.29522 q 0.0289,0.0434 0.0289,0.0868 0,0.0868 -0.0868,0.16399 -0.082,0.0772 -0.14951,0.0772 -0.1447,0 -0.26528,-0.15434 -0.12057,-0.15434 -0.12057,-0.28939 0,-0.22186 0.19292,-0.43408 0.19293,-0.21704 0.37138,-0.21704 0.2701,0 0.49196,0.22669 0.22187,0.22186 0.22187,0.48231 0,0.2701 -0.12541,0.65595 -0.12057,0.38102 -0.60771,1.336 -0.48714,0.95498 -0.709,1.48553 -0.22186,0.53054 -0.35209,1.07556 -0.26527,1.1045 -0.66077,1.32154 -0.395496,0.22186 -0.61736,0.22186 -0.376204,0 -0.607715,-0.17363 -0.23151,-0.17363 -0.23151,-0.40997 0,-0.2508 0.260449,-0.43408 0.260449,-0.17846 0.598069,-0.17846 0.144694,0 0.260449,0.10129 0.115758,0.10129 0.115758,0.25563 0,0.1254 -0.159166,0.23633 -0.159164,0.11093 -0.303858,0.11093 -0.120578,0 -0.120578,-0.10128 0.05788,0 0.144694,-0.082 0.08682,-0.082 0.08682,-0.20257 0,-0.17845 -0.125401,-0.17845 -0.192925,0 -0.318327,0.0916 -0.125401,0.0965 -0.125401,0.26045 0,0.21704 0.173632,0.3955 0.173633,0.17846 0.400321,0.17846 0.245979,0 0.506424,-0.3955 0.26045,-0.3955 0.38103,-0.81029 0.1254,-0.41479 0.40514,-1.15273 -0.87299,-2.45979 -1.697738,-3.48712 -0.217041,0.0579 -0.680062,0.21704 l -0.05305,-0.1881 q 0.496783,-0.11093 1.297423,-0.49196 0.260447,0.33762 0.482317,0.89228 0.22669,0.54983 0.42926,1.26366 l 0.40032,1.418 0.75241,-1.51446 q 0.3135,-0.63183 0.41479,-0.98392 0.1061,-0.35692 0.1061,-0.59325 0,-0.23151 -0.14951,-0.37138 -0.1447,-0.14469 -0.38103,-0.14469 -0.11093,0 -0.1881,0.0627 -0.0724,0.0579 -0.0724,0.14469 0,0.28939 0.15916,0.28939 0.0916,0 0.22669,-0.0627 z" />
      <path
         inkscape:connector-curvature="0"
         id="path4843"
         style="font-style:normal;font-variant:normal;font-weight:normal;font-stretch:normal;font-size:9.87777805px;line-height:17.65652847px;font-family:'Curlz MT';-inkscape-font-specification:'Curlz MT, Normal';font-variant-ligatures:normal;font-variant-caps:normal;font-variant-numeric:normal;font-feature-settings:normal;text-align:start;writing-mode:lr-tb;text-anchor:start;fill:#000000;fill-opacity:1;stroke:none;stroke-width:0.26458332;stroke-opacity:1"
         d="m 109.32795,191.36755 q 0.1881,-0.0193 0.1881,0.21705 0,0.13022 -0.13022,0.24115 -0.13023,0.10611 -0.25563,0.10611 -0.15916,0 -0.31833,-0.10129 -0.15434,-0.10128 -0.15434,-0.25562 0,-0.27974 0.17846,-0.53537 0.17846,-0.26045 0.47267,-0.26045 0.27974,0 0.51607,0.29904 0.23634,0.29903 0.23634,0.71382 0,0.30386 -0.36174,0.61736 -0.35691,0.3135 -0.67524,0.3135 -0.1881,0 -0.82475,-0.17363 -0.63183,-0.17363 -1.11415,-0.17363 -0.42926,0 -0.55948,0.0675 -0.1254,0.0675 -0.15916,0.20257 -0.21704,-0.2508 -0.21704,-0.5643 0,-0.2701 0.2508,-0.78135 0.25562,-0.51608 0.85369,-1.0225 1.14791,-0.97428 1.48553,-1.56752 0.34244,-0.59807 0.34244,-1.14309 0,-0.48713 -0.30868,-0.92604 -0.30386,-0.4389 -0.74759,-0.4389 -0.46302,0 -0.7717,0.34244 -0.30385,0.33762 -0.30385,0.69453 0,0.32797 0.19292,0.55466 0.19293,0.22669 0.40997,0.22669 0.1881,0 0.29903,-0.14469 0.11576,-0.1447 0.11576,-0.32798 0,-0.0916 -0.0579,-0.21222 -0.0579,-0.1254 -0.11093,-0.1254 -0.0724,0 -0.15434,0.0868 -0.082,0.082 -0.082,0.18328 0,0.0627 0.0868,0.16398 -0.10129,0.0627 -0.16881,0.0627 -0.0772,0 -0.14952,-0.0627 -0.0675,-0.0675 -0.0675,-0.14469 0,-0.19292 0.12058,-0.32315 0.1254,-0.13505 0.26527,-0.13505 0.62218,0 0.62218,0.43891 0,0.22669 -0.27009,0.47749 -0.2701,0.2508 -0.66559,0.2508 -0.28457,0 -0.54984,-0.27492 -0.26045,-0.27492 -0.26045,-0.54501 0,-0.53537 0.54984,-0.95016 0.55466,-0.41479 1.1479,-0.41479 0.60772,0 1.06592,0.51608 0.46302,0.51125 0.46302,1.00803 0,0.38585 -0.27492,0.93087 -0.2701,0.54501 -0.62219,0.79581 -1.70739,1.2299 -2.07877,1.78939 -0.37138,0.55466 -0.37138,0.96945 0.32797,-0.26045 0.83923,-0.26045 0.42443,0 1.25883,0.46302 0.47267,0.26045 0.60772,0.26045 0.30386,0 0.51607,-0.24598 0.21705,-0.25081 0.21705,-0.60289 0,-0.22187 -0.19293,-0.40032 -0.19293,-0.18328 -0.42926,-0.18328 -0.3762,0 -0.3762,0.34726 0,0.10129 0.0772,0.20257 0.0772,0.10129 0.16881,0.10129 0.23633,0 0.23633,-0.34727 z" />
      <path
         inkscape:connector-curvature="0"
         id="path4845"
         style="font-style:normal;font-variant:normal;font-weight:normal;font-stretch:normal;font-size:9.87777805px;line-height:17.65652847px;font-family:'Curlz MT';-inkscape-font-specification:'Curlz MT, Normal';font-variant-ligatures:normal;font-variant-caps:normal;font-variant-numeric:normal;font-feature-settings:normal;text-align:start;writing-mode:lr-tb;text-anchor:start;fill:#000000;fill-opacity:1;stroke:none;stroke-width:0.26458332;stroke-opacity:1"
         d="m 112.8826,187.88043 q -0.23634,-0.12058 -0.23634,-0.29421 0,-0.13505 0.1447,-0.25081 0.14952,-0.11575 0.23151,-0.11575 0.34726,0 0.52572,0.16399 0.18328,0.16398 0.18328,0.41961 0,0.16398 -0.2701,0.3955 -0.27009,0.22668 -0.51125,0.22668 -0.24598,0 -0.47749,-0.24115 -0.23151,-0.24598 -0.23151,-0.57878 0,-0.43891 0.33762,-0.75723 0.34244,-0.31833 0.66077,-0.31833 0.77652,0 1.36977,0.92122 0.59325,0.91639 0.59325,1.66398 0,0.68489 -0.36174,1.59646 -0.35691,0.91157 -0.8971,1.48552 -0.54019,0.57396 -1.08038,0.57396 -0.52573,0 -1.12379,-0.47749 -0.59807,-0.47749 -0.90193,-1.21061 -0.30386,-0.73794 -0.30386,-1.3553 0,-1.17202 0.69453,-2.2524 0.69453,-1.08521 1.57717,-1.4373 l 0.0772,0.1254 q -1.61093,0.81994 -1.61093,3.33761 0,1.21061 0.28939,1.89549 0.29421,0.68489 0.68488,0.95016 0.3955,0.26527 0.70418,0.26527 0.36174,0 0.78617,-0.46784 0.42444,-0.47267 0.62701,-1.19614 0.20739,-0.72829 0.20739,-1.11897 0,-0.65112 -0.1254,-1.24436 -0.11093,-0.53055 -0.35691,-1.15756 -0.11575,-0.29903 -0.34244,-0.48231 -0.27974,-0.22669 -0.50643,-0.22669 -0.37138,0 -0.61254,0.26045 -0.23633,0.26045 -0.23633,0.55949 0,0.33279 0.15916,0.53536 0.16399,0.20258 0.40032,0.20258 0.14952,0 0.2701,-0.12541 0.1254,-0.13022 0.1254,-0.27009 0,-0.23634 -0.0675,-0.37138 -0.0627,-0.13987 -0.15916,-0.13987 -0.16881,0 -0.23633,0.51125 z" />
      <path
         inkscape:connector-curvature="0"
         id="path4847"
         style="font-style:normal;font-variant:normal;font-weight:normal;font-stretch:normal;font-size:9.87777805px;line-height:17.65652847px;font-family:'Curlz MT';-inkscape-font-specification:'Curlz MT, Normal';font-variant-ligatures:normal;font-variant-caps:normal;font-variant-numeric:normal;font-feature-settings:normal;text-align:start;writing-mode:lr-tb;text-anchor:start;fill:#000000;fill-opacity:1;stroke:none;stroke-width:0.26458332;stroke-opacity:1"
         d="m 118.85846,191.36755 q 0.1881,-0.0193 0.1881,0.21705 0,0.13022 -0.13022,0.24115 -0.13023,0.10611 -0.25563,0.10611 -0.15916,0 -0.31833,-0.10129 -0.15434,-0.10128 -0.15434,-0.25562 0,-0.27974 0.17846,-0.53537 0.17846,-0.26045 0.47267,-0.26045 0.27974,0 0.51607,0.29904 0.23634,0.29903 0.23634,0.71382 0,0.30386 -0.36174,0.61736 -0.35691,0.3135 -0.67524,0.3135 -0.1881,0 -0.82475,-0.17363 -0.63183,-0.17363 -1.11415,-0.17363 -0.42926,0 -0.55948,0.0675 -0.1254,0.0675 -0.15916,0.20257 -0.21704,-0.2508 -0.21704,-0.5643 0,-0.2701 0.2508,-0.78135 0.25562,-0.51608 0.85369,-1.0225 1.14791,-0.97428 1.48553,-1.56752 0.34244,-0.59807 0.34244,-1.14309 0,-0.48713 -0.30868,-0.92604 -0.30386,-0.4389 -0.74759,-0.4389 -0.46302,0 -0.7717,0.34244 -0.30385,0.33762 -0.30385,0.69453 0,0.32797 0.19292,0.55466 0.19293,0.22669 0.40997,0.22669 0.1881,0 0.29903,-0.14469 0.11576,-0.1447 0.11576,-0.32798 0,-0.0916 -0.0579,-0.21222 -0.0579,-0.1254 -0.11093,-0.1254 -0.0724,0 -0.15434,0.0868 -0.082,0.082 -0.082,0.18328 0,0.0627 0.0868,0.16398 -0.10129,0.0627 -0.16881,0.0627 -0.0772,0 -0.14952,-0.0627 -0.0675,-0.0675 -0.0675,-0.14469 0,-0.19292 0.12058,-0.32315 0.1254,-0.13505 0.26527,-0.13505 0.62218,0 0.62218,0.43891 0,0.22669 -0.27009,0.47749 -0.2701,0.2508 -0.66559,0.2508 -0.28457,0 -0.54984,-0.27492 -0.26045,-0.27492 -0.26045,-0.54501 0,-0.53537 0.54984,-0.95016 0.55466,-0.41479 1.1479,-0.41479 0.60772,0 1.06592,0.51608 0.46302,0.51125 0.46302,1.00803 0,0.38585 -0.27492,0.93087 -0.2701,0.54501 -0.62219,0.79581 -1.70739,1.2299 -2.07877,1.78939 -0.37138,0.55466 -0.37138,0.96945 0.32797,-0.26045 0.83923,-0.26045 0.42443,0 1.25883,0.46302 0.47267,0.26045 0.60772,0.26045 0.30386,0 0.51607,-0.24598 0.21705,-0.25081 0.21705,-0.60289 0,-0.22187 -0.19293,-0.40032 -0.19293,-0.18328 -0.42926,-0.18328 -0.3762,0 -0.3762,0.34726 0,0.10129 0.0772,0.20257 0.0772,0.10129 0.16881,0.10129 0.23633,0 0.23633,-0.34727 z" />
      <path
         inkscape:connector-curvature="0"
         id="path4849"
         style="font-style:normal;font-variant:normal;font-weight:normal;font-stretch:normal;font-size:9.87777805px;line-height:17.65652847px;font-family:'Curlz MT';-inkscape-font-specification:'Curlz MT, Normal';font-variant-ligatures:normal;font-variant-caps:normal;font-variant-numeric:normal;font-feature-settings:normal;text-align:start;writing-mode:lr-tb;text-anchor:start;fill:#000000;fill-opacity:1;stroke:none;stroke-width:0.26458332;stroke-opacity:1"
         d="m 122.41311,187.88043 q -0.23633,-0.12058 -0.23633,-0.29421 0,-0.13505 0.14469,-0.25081 0.14952,-0.11575 0.23151,-0.11575 0.34727,0 0.52572,0.16399 0.18328,0.16398 0.18328,0.41961 0,0.16398 -0.27009,0.3955 -0.2701,0.22668 -0.51125,0.22668 -0.24598,0 -0.47749,-0.24115 -0.23152,-0.24598 -0.23152,-0.57878 0,-0.43891 0.33762,-0.75723 0.34245,-0.31833 0.66077,-0.31833 0.77653,0 1.36977,0.92122 0.59325,0.91639 0.59325,1.66398 0,0.68489 -0.36174,1.59646 -0.35691,0.91157 -0.8971,1.48552 -0.54019,0.57396 -1.08038,0.57396 -0.52572,0 -1.12379,-0.47749 -0.59807,-0.47749 -0.90193,-1.21061 -0.30385,-0.73794 -0.30385,-1.3553 0,-1.17202 0.69453,-2.2524 0.69453,-1.08521 1.57716,-1.4373 l 0.0772,0.1254 q -1.61092,0.81994 -1.61092,3.33761 0,1.21061 0.28938,1.89549 0.29421,0.68489 0.68489,0.95016 0.3955,0.26527 0.70418,0.26527 0.36173,0 0.78617,-0.46784 0.42443,-0.47267 0.627,-1.19614 0.2074,-0.72829 0.2074,-1.11897 0,-0.65112 -0.1254,-1.24436 -0.11093,-0.53055 -0.35691,-1.15756 -0.11576,-0.29903 -0.34245,-0.48231 -0.27974,-0.22669 -0.50643,-0.22669 -0.37138,0 -0.61253,0.26045 -0.23634,0.26045 -0.23634,0.55949 0,0.33279 0.15917,0.53536 0.16398,0.20258 0.40032,0.20258 0.14951,0 0.27009,-0.12541 0.1254,-0.13022 0.1254,-0.27009 0,-0.23634 -0.0675,-0.37138 -0.0627,-0.13987 -0.15916,-0.13987 -0.16881,0 -0.23634,0.51125 z" />
    </g>
    <circle
       r="1.5486766"
       cy="191.99469"
       cx="138.5553"
       id="path4808"
       style="opacity:1;fill:#ececec;fill-opacity:0.51690823;stroke:#ff0000;stroke-width:0.01322917;stroke-linejoin:round;stroke-miterlimit:4;stroke-dasharray:none;stroke-opacity:1" />
    <circle
       r="1.5434079"
       cy="192"
       cx="177.45"
       id="path4808-4"
       style="opacity:1;fill:#ececec;fill-opacity:0.51690823;stroke:#ff0000;stroke-width:0.01318416;stroke-linejoin:round;stroke-miterlimit:4;stroke-dasharray:none;stroke-opacity:1" />
  </g>
  <text
     xml:space="preserve"
     style="font-style:normal;font-variant:normal;font-weight:normal;font-stretch:normal;font-size:4.23333406px;line-height:1;font-family:Hack;-inkscape-font-specification:Hack;letter-spacing:0px;word-spacing:0px;fill:#008a00;fill-opacity:0.52173913;stroke:none;stroke-width:0.26458338;"
     x="239.94769"
     y="94.836319"
     id="text1130"><tspan
       sodipodi:role="line"
       id="tspan1128"
       x="239.94769"
       y="94.836319"
       style="font-size:11.28888893px;stroke-width:0.26458338;fill:#008a00;fill-opacity:0.52173913;">fingerwidth 20.25mm</tspan></text>
</svg>
