<?xml version="1.0" encoding="UTF-8" standalone="no"?>
<svg
   xmlns:dc="http://purl.org/dc/elements/1.1/"
   xmlns:cc="http://creativecommons.org/ns#"
   xmlns:rdf="http://www.w3.org/1999/02/22-rdf-syntax-ns#"
   xmlns:svg="http://www.w3.org/2000/svg"
   xmlns="http://www.w3.org/2000/svg"
   xmlns:sodipodi="http://sodipodi.sourceforge.net/DTD/sodipodi-0.dtd"
   xmlns:inkscape="http://www.inkscape.org/namespaces/inkscape"
   width="194mm"
   height="194mm"
   viewBox="0 0 194 194"
   version="1.1"
   preserveAspectRatio="xMidYMid meet"
   id="svg13"
   sodipodi:docname="Electornics-Box_Bottom.svg"
   inkscape:version="0.92.3 (2405546, 2018-03-11)">
  <metadata
     id="metadata19">
    <rdf:RDF>
      <cc:Work
         rdf:about="">
        <dc:format>image/svg+xml</dc:format>
        <dc:type
           rdf:resource="http://purl.org/dc/dcmitype/StillImage" />
        <dc:title></dc:title>
      </cc:Work>
    </rdf:RDF>
  </metadata>
  <defs
     id="defs17" />
  <sodipodi:namedview
     pagecolor="#ffffff"
     bordercolor="#666666"
     borderopacity="1"
     objecttolerance="10"
     gridtolerance="10"
     guidetolerance="10"
     inkscape:pageopacity="0"
     inkscape:pageshadow="2"
     inkscape:window-width="1920"
     inkscape:window-height="1138"
     id="namedview15"
     showgrid="false"
     inkscape:zoom="0.36526835"
     inkscape:cx="1506.9974"
     inkscape:cy="811.40796"
     inkscape:window-x="1912"
     inkscape:window-y="-8"
     inkscape:window-maximized="1"
     inkscape:current-layer="svg13"
     inkscape:document-units="mm"
     inkscape:measure-start="529.405,124.566"
     inkscape:measure-end="567.049,124.566" />
  <g
     id="g4777"
     transform="translate(-394,-29)">
    <path
       d="m 397,32 v 23.125 h -3 v 20.25 h 3 v 20.25 h -3 v 20.25 h 3 v 20.25 h -3 v 20.25 h 3 v 20.25 h -3 v 20.25 h 3 v 20.25 2.875 h 23.125 v 3 h 20.25 v -3 h 20.25 v 3 h 20.25 v -3 h 20.25 v 3 h 20.25 v -3 h 20.25 v 3 h 20.25 v -3 h 20.25 2.875 v -23.125 h 3 v -20.25 h -3 v -20.25 h 3 v -20.25 h -3 v -20.25 h 3 v -20.25 h -3 v -20.25 h 3 v -20.25 h -3 V 34.875 32 h -23.125 v -3 h -20.25 v 3 h -20.25 v -3 h -20.25 v 3 h -20.25 v -3 h -20.25 v 3 h -20.25 v -3 h -20.25 v 3 h -20.25 z"
       id="bottom_outsideCutPath"
       style="font-size:medium;vector-effect:non-scaling-stroke;fill:none;fill-rule:evenodd;stroke:#ff0000;stroke-width:0.1;stroke-linecap:round"
       inkscape:connector-curvature="0" />
    <path
       d="m 554.827,140.55 h -3.145 v -13.508 a 9.278,9.278 0 0 0 -0.094,-1.365 q -0.104,-0.696 -0.323,-1.258 a 3.801,3.801 0 0 0 -0.644,-1.1 3.309,3.309 0 0 0 -1.539,-0.995 q -0.548,-0.177 -1.216,-0.227 a 7.3,7.3 0 0 0 -0.542,-0.019 8.092,8.092 0 0 0 -1.647,0.156 q -0.979,0.204 -1.716,0.673 a 4.165,4.165 0 0 0 -0.975,0.857 q -1.402,1.686 -1.402,5.191 v 11.595 h -3.145 v -13.508 a 9.278,9.278 0 0 0 -0.094,-1.365 q -0.103,-0.696 -0.322,-1.258 a 3.801,3.801 0 0 0 -0.645,-1.1 q -0.918,-1.074 -2.73,-1.219 a 7.364,7.364 0 0 0 -0.585,-0.022 7.811,7.811 0 0 0 -1.616,0.156 q -0.997,0.211 -1.739,0.707 a 4.122,4.122 0 0 0 -0.974,0.908 5.274,5.274 0 0 0 -0.782,1.486 q -0.592,1.673 -0.592,4.321 v 10.894 h -3.145 v -20.765 h 2.558 l 0.511,2.842 h 0.152 q 0.89,-1.515 2.51,-2.368 a 7.466,7.466 0 0 1 2.949,-0.827 9.018,9.018 0 0 1 0.679,-0.025 q 4.869,0 6.366,3.523 h 0.151 a 6.566,6.566 0 0 1 2.474,-2.455 7.889,7.889 0 0 1 0.217,-0.121 7.96,7.96 0 0 1 2.919,-0.888 9.925,9.925 0 0 1 1.097,-0.059 10.932,10.932 0 0 1 1.983,0.168 q 2.075,0.383 3.293,1.641 1.276,1.317 1.623,3.784 a 14.425,14.425 0 0 1 0.13,2.004 z m -124.509,-2.672 h -0.227 l -0.663,2.672 h -2.255 v -29.479 h 3.145 v 7.161 q 0,2.406 -0.151,4.319 h 0.151 q 2.198,-3.107 6.517,-3.107 4.092,0 6.356,2.795 a 9.267,9.267 0 0 1 1.625,3.13 q 0.4,1.289 0.55,2.834 a 20.186,20.186 0 0 1 0.089,1.946 q 0,3.609 -1.136,6.082 a 8.84,8.84 0 0 1 -1.147,1.865 7.445,7.445 0 0 1 -5.291,2.782 10.667,10.667 0 0 1 -1.046,0.05 q -2.027,0 -3.704,-0.748 a 6.965,6.965 0 0 1 -2.813,-2.302 z m 53.615,0.076 v 2.406 a 3.093,3.093 0 0 1 -0.367,0.146 q -0.391,0.129 -0.951,0.229 a 11.762,11.762 0 0 1 -0.188,0.032 q -0.994,0.161 -1.79,0.161 a 8.214,8.214 0 0 1 -2.421,-0.325 q -2.661,-0.821 -3.357,-3.712 a 9.885,9.885 0 0 1 -0.247,-2.309 v -12.353 h -2.974 v -1.515 l 2.974,-1.307 1.326,-4.434 h 1.819 v 4.812 h 6.025 v 2.444 h -6.025 v 12.22 q 0,1.876 0.891,2.88 a 2.922,2.922 0 0 0 1.796,0.956 4.204,4.204 0 0 0 0.648,0.048 10.328,10.328 0 0 0 1.513,-0.108 9.524,9.524 0 0 0 0.097,-0.015 q 0.777,-0.123 1.231,-0.256 z m 13.698,0 v 2.406 a 3.093,3.093 0 0 1 -0.367,0.146 q -0.392,0.129 -0.952,0.229 a 11.762,11.762 0 0 1 -0.187,0.032 q -0.995,0.161 -1.791,0.161 a 8.214,8.214 0 0 1 -2.42,-0.325 q -2.661,-0.821 -3.357,-3.712 a 9.885,9.885 0 0 1 -0.247,-2.309 v -12.353 h -2.975 v -1.515 l 2.975,-1.307 1.326,-4.434 h 1.819 v 4.812 h 6.024 v 2.444 h -6.024 v 12.22 q 0,1.876 0.89,2.88 a 2.922,2.922 0 0 0 1.796,0.956 4.204,4.204 0 0 0 0.648,0.048 10.328,10.328 0 0 0 1.513,-0.108 9.524,9.524 0 0 0 0.097,-0.015 q 0.777,-0.123 1.232,-0.256 z m -31.317,0.123 a 8.773,8.773 0 0 0 1.045,-1.435 q 1.513,-2.588 1.513,-6.493 a 18.458,18.458 0 0 0 -0.007,-0.5 q -0.124,-4.593 -2.56,-7.344 a 8.233,8.233 0 0 0 -3.822,-2.465 10.568,10.568 0 0 0 -3.103,-0.433 12.215,12.215 0 0 0 -2.194,0.188 8.318,8.318 0 0 0 -4.853,2.644 q -2.539,2.832 -2.539,7.91 a 15.733,15.733 0 0 0 0.197,2.548 11.634,11.634 0 0 0 0.977,3.173 10.337,10.337 0 0 0 0.229,0.448 8.514,8.514 0 0 0 3.106,3.303 8.757,8.757 0 0 0 2.01,0.894 10.099,10.099 0 0 0 2.935,0.413 12.212,12.212 0 0 0 2.132,-0.178 8.384,8.384 0 0 0 4.934,-2.673 z m 50.83,0 a 8.773,8.773 0 0 0 1.045,-1.435 q 1.513,-2.588 1.513,-6.493 a 18.458,18.458 0 0 0 -0.007,-0.5 q -0.124,-4.593 -2.56,-7.344 a 8.233,8.233 0 0 0 -3.822,-2.465 10.568,10.568 0 0 0 -3.103,-0.433 12.215,12.215 0 0 0 -2.194,0.188 8.318,8.318 0 0 0 -4.853,2.644 q -2.539,2.832 -2.539,7.91 a 15.733,15.733 0 0 0 0.198,2.548 11.634,11.634 0 0 0 0.977,3.173 10.337,10.337 0 0 0 0.229,0.448 8.514,8.514 0 0 0 3.105,3.303 8.757,8.757 0 0 0 2.01,0.894 10.099,10.099 0 0 0 2.935,0.413 12.212,12.212 0 0 0 2.132,-0.178 8.384,8.384 0 0 0 4.934,-2.673 z m -64.092,-7.928 a 15.926,15.926 0 0 0 0.152,2.275 q 0.167,1.155 0.519,2.09 a 6.598,6.598 0 0 0 0.921,1.697 5.155,5.155 0 0 0 3.357,1.977 7.811,7.811 0 0 0 1.322,0.107 7.305,7.305 0 0 0 1.928,-0.24 5.084,5.084 0 0 0 2.761,-1.834 q 1.191,-1.543 1.496,-4.149 a 16.566,16.566 0 0 0 0.105,-1.923 15.692,15.692 0 0 0 -0.148,-2.237 q -0.165,-1.138 -0.511,-2.06 a 6.475,6.475 0 0 0 -0.942,-1.719 5.173,5.173 0 0 0 -3.216,-1.919 7.932,7.932 0 0 0 -1.511,-0.136 7.485,7.485 0 0 0 -1.863,0.218 5.009,5.009 0 0 0 -2.797,1.809 6.502,6.502 0 0 0 -1.011,1.953 q -0.562,1.69 -0.562,4.091 z m 50.831,0 a 15.926,15.926 0 0 0 0.151,2.275 q 0.167,1.155 0.519,2.09 a 6.598,6.598 0 0 0 0.921,1.697 5.155,5.155 0 0 0 3.357,1.977 7.811,7.811 0 0 0 1.323,0.107 7.305,7.305 0 0 0 1.927,-0.24 5.084,5.084 0 0 0 2.762,-1.834 q 1.19,-1.543 1.495,-4.149 a 16.566,16.566 0 0 0 0.105,-1.923 15.692,15.692 0 0 0 -0.148,-2.237 q -0.164,-1.138 -0.51,-2.06 a 6.475,6.475 0 0 0 -0.942,-1.719 5.173,5.173 0 0 0 -3.217,-1.919 7.932,7.932 0 0 0 -1.51,-0.136 7.485,7.485 0 0 0 -1.864,0.218 5.009,5.009 0 0 0 -2.797,1.809 6.502,6.502 0 0 0 -1.011,1.953 q -0.561,1.69 -0.561,4.091 z m -67.502,-8.071 a 8.837,8.837 0 0 0 -1.712,0.154 q -0.975,0.193 -1.715,0.626 a 4.183,4.183 0 0 0 -1.215,1.067 5.384,5.384 0 0 0 -0.78,1.485 q -0.525,1.473 -0.62,3.713 a 24.23,24.23 0 0 0 -0.021,1.026 q 0,3.717 1.053,5.637 a 4.743,4.743 0 0 0 0.406,0.624 4.562,4.562 0 0 0 2.314,1.562 q 0.774,0.242 1.717,0.303 a 10.112,10.112 0 0 0 0.648,0.02 q 2.899,0 4.32,-2.112 1.015,-1.509 1.305,-3.961 a 18.02,18.02 0 0 0 0.116,-2.111 18.58,18.58 0 0 0 -0.113,-2.118 q -0.266,-2.315 -1.164,-3.713 a 5.217,5.217 0 0 0 -0.144,-0.213 4.586,4.586 0 0 0 -2.92,-1.848 7.274,7.274 0 0 0 -1.475,-0.141 z"
       id="bottom_labelLayer"
       style="font-size:medium;vector-effect:non-scaling-stroke;fill:#777777;fill-rule:evenodd;stroke:#777777;stroke-width:0.25000001mm;stroke-linecap:round"
       inkscape:connector-curvature="0" />
  </g>
</svg>
