<svg width="696mm" height="263mm" viewBox="0 0 696 263" xmlns="http://www.w3.org/2000/svg" version="1.1" preserveAspectRatio="xMidYMid meet"><g id="svgGroup" stroke-linecap="round" fill-rule="evenodd" font-size="9pt" stroke="#000" stroke-width="0.25mm" fill="none" style="stroke:#000;stroke-width:0.25mm;fill:none"><path d="M 0 133 L 0 142.313 L 3 142.313 L 3 154.688 L 0 154.688 L 0 167.063 L 3 167.063 L 3 179.438 L 0 179.438 L 0 191.813 L 3 191.813 L 3 204.188 L 0 204.188 L 0 216.563 L 3 216.563 L 3 228.938 L 0 228.938 L 0 241.313 L 3 241.313 L 3 253.688 L 0 253.688 L 0 263 L 22.188 263 L 22.188 260 L 34.563 260 L 34.563 263 L 46.938 263 L 46.938 260 L 59.313 260 L 59.313 263 L 71.688 263 L 71.688 260 L 84.063 260 L 84.063 263 L 96.438 263 L 96.438 260 L 108.813 260 L 108.813 263 L 121.188 263 L 121.188 260 L 133.563 260 L 133.563 263 L 145.938 263 L 145.938 260 L 158.313 260 L 158.313 263 L 170.688 263 L 170.688 260 L 183.063 260 L 183.063 263 L 195.438 263 L 195.438 260 L 207.813 260 L 207.813 263 L 220.188 263 L 230 263 L 230 253.688 L 227 253.688 L 227 241.313 L 230 241.313 L 230 228.938 L 227 228.938 L 227 216.563 L 230 216.563 L 230 204.188 L 227 204.188 L 227 191.813 L 230 191.813 L 230 179.438 L 227 179.438 L 227 167.063 L 230 167.063 L 230 154.688 L 227 154.688 L 227 142.313 L 230 142.313 L 230 133 L 0 133 Z" id="front_outsideCutPath" stroke="#FF0000" stroke-width="0.1" style="stroke:#FF0000;stroke-width:0.1" vector-effect="non-scaling-stroke"/><path d="M 133.948 207.82 L 131.84 207.82 L 131.84 198.819 Q 131.84 197.117 131.066 196.28 A 2.376 2.376 0 0 0 130.091 195.658 Q 129.709 195.523 129.238 195.472 A 5.587 5.587 0 0 0 128.641 195.442 A 6.378 6.378 0 0 0 127.448 195.546 Q 126.156 195.792 125.442 196.622 A 3.445 3.445 0 0 0 124.843 197.669 Q 124.482 198.63 124.434 200.062 A 13.501 13.501 0 0 0 124.426 200.52 L 124.426 207.82 L 122.319 207.82 L 122.319 193.905 L 124.033 193.905 L 124.375 195.81 L 124.477 195.81 A 4.267 4.267 0 0 1 126.149 194.289 A 5.132 5.132 0 0 1 126.292 194.217 A 5.707 5.707 0 0 1 128.323 193.675 A 6.901 6.901 0 0 1 128.895 193.652 A 8.32 8.32 0 0 1 130.311 193.764 Q 131.796 194.021 132.678 194.864 Q 133.644 195.786 133.875 197.55 A 9.197 9.197 0 0 1 133.948 198.742 L 133.948 207.82 Z M 93.462 193.905 L 93.462 195.543 L 89.92 195.543 L 89.92 207.82 L 87.813 207.82 L 87.813 195.543 L 85.325 195.543 L 85.325 194.591 L 87.813 193.829 L 87.813 193.055 Q 87.813 188.627 91.153 188.022 A 6.406 6.406 0 0 1 92.294 187.926 Q 93.399 187.926 94.884 188.37 L 94.338 190.059 Q 93.473 189.779 92.786 189.698 A 4.532 4.532 0 0 0 92.256 189.665 A 2.842 2.842 0 0 0 91.571 189.743 A 1.825 1.825 0 0 0 90.492 190.459 A 2.438 2.438 0 0 0 90.169 191.109 Q 89.955 191.744 89.925 192.687 A 9.95 9.95 0 0 0 89.92 193.004 L 89.92 193.905 L 93.462 193.905 Z M 144.675 206.08 L 144.675 207.693 A 2.073 2.073 0 0 1 144.429 207.79 Q 144.124 207.891 143.666 207.966 Q 143.044 208.066 142.538 208.073 A 5.405 5.405 0 0 1 142.466 208.073 A 5.504 5.504 0 0 1 140.844 207.855 Q 138.429 207.11 138.429 203.821 L 138.429 195.543 L 136.436 195.543 L 136.436 194.528 L 138.429 193.652 L 139.318 190.681 L 140.537 190.681 L 140.537 193.905 L 144.574 193.905 L 144.574 195.543 L 140.537 195.543 L 140.537 203.732 Q 140.537 204.615 140.831 205.21 A 2.044 2.044 0 0 0 141.133 205.661 A 1.958 1.958 0 0 0 142.337 206.302 A 2.817 2.817 0 0 0 142.771 206.334 Q 143.33 206.334 143.85 206.252 Q 144.347 206.173 144.647 206.088 A 3.167 3.167 0 0 0 144.675 206.08 Z M 104.012 193.804 L 103.72 195.759 Q 102.857 195.569 102.197 195.569 Q 100.508 195.569 99.309 196.94 A 4.812 4.812 0 0 0 98.148 199.642 A 6.397 6.397 0 0 0 98.109 200.355 L 98.109 207.82 L 96.001 207.82 L 96.001 193.905 L 97.741 193.905 L 97.982 196.483 L 98.083 196.483 A 7.117 7.117 0 0 1 98.879 195.346 A 5.436 5.436 0 0 1 99.95 194.388 A 4.201 4.201 0 0 1 102.349 193.652 A 9.675 9.675 0 0 1 103.215 193.688 A 7.061 7.061 0 0 1 104.012 193.804 Z M 118.625 200.85 Q 118.625 204.252 116.911 206.163 Q 115.197 208.073 112.175 208.073 A 6.768 6.768 0 0 1 110.209 207.796 A 5.868 5.868 0 0 1 108.862 207.197 A 5.705 5.705 0 0 1 106.781 204.984 A 6.926 6.926 0 0 1 106.627 204.684 A 7.796 7.796 0 0 1 105.973 202.557 A 10.543 10.543 0 0 1 105.84 200.85 A 10.942 10.942 0 0 1 106.032 198.734 Q 106.412 196.81 107.542 195.55 A 5.574 5.574 0 0 1 110.794 193.778 A 8.185 8.185 0 0 1 112.264 193.652 A 7.081 7.081 0 0 1 114.343 193.942 A 5.517 5.517 0 0 1 116.904 195.594 Q 118.537 197.437 118.62 200.515 A 12.368 12.368 0 0 1 118.625 200.85 Z M 108.024 200.85 A 10.672 10.672 0 0 0 108.125 202.374 Q 108.237 203.148 108.473 203.775 A 4.421 4.421 0 0 0 109.09 204.912 A 3.454 3.454 0 0 0 111.34 206.237 A 5.234 5.234 0 0 0 112.226 206.309 A 4.895 4.895 0 0 0 113.517 206.148 A 3.407 3.407 0 0 0 115.368 204.919 A 4.524 4.524 0 0 0 116.073 203.547 Q 116.28 202.913 116.37 202.139 A 11.101 11.101 0 0 0 116.441 200.85 A 10.515 10.515 0 0 0 116.341 199.351 Q 116.231 198.589 115.999 197.971 A 4.339 4.339 0 0 0 115.368 196.819 A 3.467 3.467 0 0 0 113.213 195.533 A 5.315 5.315 0 0 0 112.201 195.442 Q 110.131 195.442 109.078 196.8 Q 108.319 197.778 108.107 199.446 A 11.136 11.136 0 0 0 108.024 200.85 Z" id="front_labelLayer" stroke="#777777" fill="#777777" style="stroke:#777777;fill:#777777" vector-effect="non-scaling-stroke"/><path d="M 236 133 L 236 142.313 L 233 142.313 L 233 154.688 L 236 154.688 L 236 167.063 L 233 167.063 L 233 179.438 L 236 179.438 L 236 191.813 L 233 191.813 L 233 204.188 L 236 204.188 L 236 216.563 L 233 216.563 L 233 228.938 L 236 228.938 L 236 241.313 L 233 241.313 L 233 253.688 L 236 253.688 L 236 263 L 255.188 263 L 255.188 260 L 267.563 260 L 267.563 263 L 279.938 263 L 279.938 260 L 292.313 260 L 292.313 263 L 304.688 263 L 304.688 260 L 317.063 260 L 317.063 263 L 329.438 263 L 329.438 260 L 341.813 260 L 341.813 263 L 354.188 263 L 354.188 260 L 366.563 260 L 366.563 263 L 378.938 263 L 378.938 260 L 391.313 260 L 391.313 263 L 403.688 263 L 403.688 260 L 416.063 260 L 416.063 263 L 428.438 263 L 428.438 260 L 440.813 260 L 440.813 263 L 453.188 263 L 460 263 L 460 253.688 L 463 253.688 L 463 241.313 L 460 241.313 L 460 228.938 L 463 228.938 L 463 216.563 L 460 216.563 L 460 204.188 L 463 204.188 L 463 191.813 L 460 191.813 L 460 179.438 L 463 179.438 L 463 167.063 L 460 167.063 L 460 154.688 L 463 154.688 L 463 142.313 L 460 142.313 L 460 133 L 236 133 Z" id="left_outsideCutPath" stroke="#FF0000" stroke-width="0.1" style="stroke:#FF0000;stroke-width:0.1" vector-effect="non-scaling-stroke"/><path d="M 357.249 193.905 L 357.249 195.543 L 353.707 195.543 L 353.707 207.82 L 351.599 207.82 L 351.599 195.543 L 349.111 195.543 L 349.111 194.591 L 351.599 193.829 L 351.599 193.055 Q 351.599 188.627 354.939 188.022 A 6.406 6.406 0 0 1 356.081 187.926 Q 357.185 187.926 358.67 188.37 L 358.125 190.059 Q 357.259 189.779 356.572 189.698 A 4.532 4.532 0 0 0 356.042 189.665 A 2.842 2.842 0 0 0 355.357 189.743 A 1.825 1.825 0 0 0 354.278 190.459 A 2.438 2.438 0 0 0 353.956 191.109 Q 353.742 191.744 353.711 192.687 A 9.95 9.95 0 0 0 353.707 193.004 L 353.707 193.905 L 357.249 193.905 Z M 347.384 199.91 L 347.384 201.243 L 337.799 201.243 A 8.458 8.458 0 0 0 337.947 202.659 Q 338.23 204.09 339.037 204.963 A 3.829 3.829 0 0 0 341.048 206.096 A 5.802 5.802 0 0 0 342.344 206.233 A 11.13 11.13 0 0 0 346.513 205.407 A 12.755 12.755 0 0 0 346.788 205.293 L 346.788 207.172 A 12.652 12.652 0 0 1 345.635 207.608 A 9.675 9.675 0 0 1 344.674 207.864 A 8.847 8.847 0 0 1 343.796 208 Q 343.105 208.073 342.268 208.073 A 8.189 8.189 0 0 1 340.219 207.831 A 5.799 5.799 0 0 1 337.399 206.195 A 6.202 6.202 0 0 1 335.916 203.47 Q 335.658 202.504 335.622 201.357 A 12.038 12.038 0 0 1 335.616 200.977 A 11.066 11.066 0 0 1 335.82 198.782 Q 336.198 196.916 337.272 195.632 Q 338.929 193.652 341.722 193.652 A 6.421 6.421 0 0 1 343.53 193.893 A 4.885 4.885 0 0 1 345.861 195.372 A 5.893 5.893 0 0 1 347.196 198.064 A 8.577 8.577 0 0 1 347.384 199.91 Z M 366.186 206.08 L 366.186 207.693 A 2.073 2.073 0 0 1 365.94 207.79 Q 365.635 207.891 365.177 207.966 Q 364.555 208.066 364.048 208.073 A 5.405 5.405 0 0 1 363.977 208.073 A 5.504 5.504 0 0 1 362.355 207.855 Q 359.94 207.11 359.94 203.821 L 359.94 195.543 L 357.947 195.543 L 357.947 194.528 L 359.94 193.652 L 360.829 190.681 L 362.047 190.681 L 362.047 193.905 L 366.084 193.905 L 366.084 195.543 L 362.047 195.543 L 362.047 203.732 Q 362.047 204.615 362.342 205.21 A 2.044 2.044 0 0 0 362.644 205.661 A 1.958 1.958 0 0 0 363.848 206.302 A 2.817 2.817 0 0 0 364.282 206.334 Q 364.84 206.334 365.361 206.252 Q 365.858 206.173 366.158 206.088 A 3.167 3.167 0 0 0 366.186 206.08 Z M 331.921 188.066 L 331.921 207.82 L 329.814 207.82 L 329.814 188.066 L 331.921 188.066 Z M 337.85 199.53 L 345.125 199.53 A 7.181 7.181 0 0 0 345.038 198.375 Q 344.937 197.756 344.718 197.26 A 3.26 3.26 0 0 0 344.236 196.476 Q 343.347 195.416 341.697 195.416 A 4.154 4.154 0 0 0 340.497 195.581 A 3.209 3.209 0 0 0 339.024 196.508 A 4.163 4.163 0 0 0 338.197 197.905 Q 337.933 198.625 337.85 199.53 Z" id="left_labelLayer" stroke="#777777" fill="#777777" style="stroke:#777777;fill:#777777" vector-effect="non-scaling-stroke"/><path d="M 0 0 L 0 9.313 L 3 9.313 L 3 21.688 L 0 21.688 L 0 34.063 L 3 34.063 L 3 46.438 L 0 46.438 L 0 58.813 L 3 58.813 L 3 71.188 L 0 71.188 L 0 83.563 L 3 83.563 L 3 95.938 L 0 95.938 L 0 108.313 L 3 108.313 L 3 120.688 L 0 120.688 L 0 130 L 22.188 130 L 22.188 127 L 34.563 127 L 34.563 130 L 46.938 130 L 46.938 127 L 59.313 127 L 59.313 130 L 71.688 130 L 71.688 127 L 84.063 127 L 84.063 130 L 96.438 130 L 96.438 127 L 108.813 127 L 108.813 130 L 121.188 130 L 121.188 127 L 133.563 127 L 133.563 130 L 145.938 130 L 145.938 127 L 158.313 127 L 158.313 130 L 170.688 130 L 170.688 127 L 183.063 127 L 183.063 130 L 195.438 130 L 195.438 127 L 207.813 127 L 207.813 130 L 220.188 130 L 230 130 L 230 120.688 L 227 120.688 L 227 108.313 L 230 108.313 L 230 95.938 L 227 95.938 L 227 83.563 L 230 83.563 L 230 71.188 L 227 71.188 L 227 58.813 L 230 58.813 L 230 46.438 L 227 46.438 L 227 34.063 L 230 34.063 L 230 21.688 L 227 21.688 L 227 9.313 L 230 9.313 L 230 0 L 0 0 Z" id="back_outsideCutPath" stroke="#FF0000" stroke-width="0.1" style="stroke:#FF0000;stroke-width:0.1" vector-effect="non-scaling-stroke"/><path d="M 132.799 67.628 L 132.9 67.628 A 12.476 12.476 0 0 1 133.209 67.21 Q 133.564 66.749 134.071 66.159 A 45.28 45.28 0 0 1 134.563 65.597 L 139.058 60.836 L 141.559 60.836 L 135.922 66.765 L 141.952 74.75 L 139.4 74.75 L 134.487 68.174 L 132.9 69.545 L 132.9 74.75 L 130.818 74.75 L 130.818 54.996 L 132.9 54.996 L 132.9 65.47 A 14.044 14.044 0 0 1 132.894 65.866 Q 132.875 66.517 132.802 67.575 A 85.972 85.972 0 0 1 132.799 67.628 Z M 90.155 72.96 L 90.003 72.96 L 89.559 74.75 L 88.048 74.75 L 88.048 54.996 L 90.155 54.996 L 90.155 59.795 A 43.938 43.938 0 0 1 90.131 61.279 Q 90.106 62.028 90.054 62.689 L 90.155 62.689 A 4.791 4.791 0 0 1 93.653 60.658 A 7.198 7.198 0 0 1 94.522 60.607 A 6.441 6.441 0 0 1 96.335 60.849 A 4.822 4.822 0 0 1 98.782 62.48 Q 100.299 64.352 100.299 67.78 Q 100.299 70.199 99.537 71.856 A 5.923 5.923 0 0 1 98.769 73.106 A 4.989 4.989 0 0 1 95.223 74.97 A 7.148 7.148 0 0 1 94.522 75.004 A 6.392 6.392 0 0 1 92.916 74.808 A 5.562 5.562 0 0 1 92.041 74.502 A 4.668 4.668 0 0 1 90.155 72.96 Z M 114.099 74.75 L 112.537 74.75 L 112.118 72.769 L 112.017 72.769 Q 110.976 74.077 109.941 74.54 A 4.86 4.86 0 0 1 108.937 74.857 Q 108.45 74.958 107.886 74.989 A 9.484 9.484 0 0 1 107.357 75.004 Q 105.702 75.004 104.619 74.321 A 3.629 3.629 0 0 1 104.114 73.937 Q 102.939 72.871 102.939 70.903 A 3.647 3.647 0 0 1 105.014 67.462 Q 106.558 66.64 109.252 66.503 A 20.585 20.585 0 0 1 109.681 66.485 L 112.042 66.409 L 112.042 65.546 A 6.053 6.053 0 0 0 111.983 64.671 Q 111.838 63.682 111.337 63.127 A 2.139 2.139 0 0 0 110.461 62.556 Q 110.11 62.428 109.676 62.378 A 5.207 5.207 0 0 0 109.084 62.347 A 6.861 6.861 0 0 0 107.505 62.543 Q 106.401 62.805 105.148 63.413 L 104.501 61.801 A 9.717 9.717 0 0 1 106.376 61.03 A 11.06 11.06 0 0 1 106.754 60.925 A 9.76 9.76 0 0 1 109.211 60.607 A 8.901 8.901 0 0 1 110.567 60.703 Q 111.263 60.811 111.819 61.039 A 3.587 3.587 0 0 1 112.899 61.712 A 3.337 3.337 0 0 1 113.76 63.04 Q 113.961 63.586 114.043 64.264 A 8.292 8.292 0 0 1 114.099 65.254 L 114.099 74.75 Z M 127.721 61.306 L 127.073 63.096 A 9.375 9.375 0 0 0 126.056 62.757 A 11.197 11.197 0 0 0 125.55 62.632 Q 124.844 62.475 124.277 62.452 A 4.672 4.672 0 0 0 124.09 62.448 Q 120.324 62.448 119.903 66.715 A 11.645 11.645 0 0 0 119.85 67.856 Q 119.85 69.539 120.295 70.708 A 4.371 4.371 0 0 0 120.884 71.792 A 3.347 3.347 0 0 0 123.053 73.088 A 5.099 5.099 0 0 0 123.95 73.163 A 8.822 8.822 0 0 0 126.384 72.809 A 10.892 10.892 0 0 0 127.518 72.414 L 127.518 74.28 Q 126.121 75.004 124.001 75.004 A 7.876 7.876 0 0 1 122.085 74.784 A 5.341 5.341 0 0 1 119.323 73.144 A 6.096 6.096 0 0 1 118.055 70.816 Q 117.666 69.53 117.666 67.882 A 11.628 11.628 0 0 1 117.846 65.767 Q 118.064 64.588 118.548 63.658 A 5.81 5.81 0 0 1 119.348 62.486 A 5.457 5.457 0 0 1 122.336 60.768 A 8.272 8.272 0 0 1 124.141 60.582 A 9.51 9.51 0 0 1 126.146 60.798 A 10.519 10.519 0 0 1 126.731 60.94 Q 127.328 61.105 127.721 61.306 Z M 91.921 62.895 A 2.803 2.803 0 0 0 91.107 63.61 Q 90.155 64.848 90.155 67.78 A 13.934 13.934 0 0 0 90.224 69.22 Q 90.376 70.673 90.861 71.558 A 3.179 3.179 0 0 0 91.133 71.976 Q 92.009 73.108 93.834 73.226 A 6.776 6.776 0 0 0 94.269 73.239 A 4.201 4.201 0 0 0 95.462 73.079 A 3.031 3.031 0 0 0 97.163 71.824 A 4.838 4.838 0 0 0 97.762 70.529 Q 97.949 69.914 98.038 69.17 A 12.075 12.075 0 0 0 98.115 67.755 A 12.451 12.451 0 0 0 98.04 66.336 Q 97.861 64.784 97.26 63.847 A 3.496 3.496 0 0 0 97.163 63.705 A 3.073 3.073 0 0 0 95.207 62.467 A 4.874 4.874 0 0 0 94.218 62.372 Q 92.815 62.372 91.921 62.895 Z M 111.991 69.164 L 111.991 67.907 L 109.884 67.996 Q 107.785 68.07 106.664 68.565 A 3.237 3.237 0 0 0 106.259 68.777 Q 105.148 69.469 105.148 70.929 Q 105.148 71.933 105.683 72.516 A 1.877 1.877 0 0 0 105.84 72.668 Q 106.438 73.183 107.447 73.253 A 4.74 4.74 0 0 0 107.776 73.265 Q 109.477 73.265 110.547 72.459 A 3.518 3.518 0 0 0 110.868 72.185 A 3.529 3.529 0 0 0 111.852 70.423 Q 111.989 69.856 111.991 69.185 A 6.672 6.672 0 0 0 111.991 69.164 Z" id="back_labelLayer" stroke="#777777" fill="#777777" style="stroke:#777777;fill:#777777" vector-effect="non-scaling-stroke"/><path d="M 236 0 L 236 9.313 L 233 9.313 L 233 21.688 L 236 21.688 L 236 34.063 L 233 34.063 L 233 46.438 L 236 46.438 L 236 58.813 L 233 58.813 L 233 71.188 L 236 71.188 L 236 83.563 L 233 83.563 L 233 95.938 L 236 95.938 L 236 108.313 L 233 108.313 L 233 120.688 L 236 120.688 L 236 130 L 255.188 130 L 255.188 127 L 267.563 127 L 267.563 130 L 279.938 130 L 279.938 127 L 292.313 127 L 292.313 130 L 304.688 130 L 304.688 127 L 317.063 127 L 317.063 130 L 329.438 130 L 329.438 127 L 341.813 127 L 341.813 130 L 354.188 130 L 354.188 127 L 366.563 127 L 366.563 130 L 378.938 130 L 378.938 127 L 391.313 127 L 391.313 130 L 403.688 130 L 403.688 127 L 416.063 127 L 416.063 130 L 428.438 130 L 428.438 127 L 440.813 127 L 440.813 130 L 453.188 130 L 460 130 L 460 120.688 L 463 120.688 L 463 108.313 L 460 108.313 L 460 95.938 L 463 95.938 L 463 83.563 L 460 83.563 L 460 71.188 L 463 71.188 L 463 58.813 L 460 58.813 L 460 46.438 L 463 46.438 L 463 34.063 L 460 34.063 L 460 21.688 L 463 21.688 L 463 9.313 L 460 9.313 L 460 0 L 236 0 Z" id="right_outsideCutPath" stroke="#FF0000" stroke-width="0.1" style="stroke:#FF0000;stroke-width:0.1" vector-effect="non-scaling-stroke"/><path d="M 364.167 71.754 L 362.06 71.754 L 362.06 62.753 Q 362.06 61.052 361.286 60.214 A 2.376 2.376 0 0 0 360.311 59.592 Q 359.929 59.457 359.458 59.406 A 5.587 5.587 0 0 0 358.861 59.376 A 6.377 6.377 0 0 0 357.669 59.48 Q 357.008 59.606 356.499 59.885 A 2.951 2.951 0 0 0 355.655 60.569 A 3.506 3.506 0 0 0 355.06 61.624 Q 354.701 62.59 354.653 64.025 A 13.602 13.602 0 0 0 354.646 64.479 L 354.646 71.754 L 352.539 71.754 L 352.539 52 L 354.646 52 L 354.646 57.979 Q 354.646 58.756 354.593 59.342 A 8.244 8.244 0 0 1 354.544 59.769 L 354.671 59.769 A 4.21 4.21 0 0 1 356.146 58.35 A 5.144 5.144 0 0 1 356.442 58.189 A 5.41 5.41 0 0 1 358.218 57.662 A 6.84 6.84 0 0 1 359.064 57.611 Q 360.742 57.611 361.869 58.136 A 3.799 3.799 0 0 1 362.892 58.824 A 3.669 3.669 0 0 1 363.797 60.245 Q 364.014 60.836 364.104 61.569 A 9.113 9.113 0 0 1 364.167 62.677 L 364.167 71.754 Z M 344.871 57.84 L 349.682 57.84 L 349.682 59.173 L 347.105 59.477 Q 347.404 59.852 347.649 60.419 A 6.497 6.497 0 0 1 347.74 60.639 A 4.054 4.054 0 0 1 347.98 61.608 A 5.207 5.207 0 0 1 348.019 62.258 A 4.831 4.831 0 0 1 347.797 63.756 A 3.908 3.908 0 0 1 346.623 65.52 Q 345.226 66.739 342.789 66.739 A 6.773 6.773 0 0 1 342.005 66.695 A 5.719 5.719 0 0 1 341.621 66.638 Q 340.852 67.044 340.523 67.569 A 1.586 1.586 0 0 0 340.275 68.428 Q 340.275 68.981 340.716 69.255 A 1.17 1.17 0 0 0 340.745 69.272 A 1.478 1.478 0 0 0 341.072 69.407 Q 341.416 69.507 341.938 69.535 A 8.017 8.017 0 0 0 342.357 69.545 L 344.82 69.545 A 8.627 8.627 0 0 1 346.13 69.638 Q 347.458 69.842 348.292 70.497 Q 349.504 71.449 349.504 73.265 Q 349.504 75.53 347.723 76.74 A 5.009 5.009 0 0 1 347.651 76.788 A 6.32 6.32 0 0 1 346.022 77.526 Q 344.464 78 342.243 78 A 11.807 11.807 0 0 1 340.659 77.901 Q 339.855 77.792 339.199 77.563 A 4.898 4.898 0 0 1 338.034 76.984 Q 336.651 76.034 336.561 74.351 A 4.45 4.45 0 0 1 336.555 74.115 Q 336.555 72.846 337.368 71.919 A 3.68 3.68 0 0 1 338.632 70.998 A 5.216 5.216 0 0 1 339.653 70.662 A 2.187 2.187 0 0 1 338.804 69.975 A 2.596 2.596 0 0 1 338.758 69.913 A 1.954 1.954 0 0 1 338.399 68.857 A 2.42 2.42 0 0 1 338.396 68.732 A 2.41 2.41 0 0 1 338.517 67.956 A 2.136 2.136 0 0 1 338.802 67.399 Q 339.109 66.968 339.684 66.558 A 6.62 6.62 0 0 1 340.084 66.295 Q 339.005 65.851 338.326 64.784 A 4.357 4.357 0 0 1 337.658 62.685 A 5.317 5.317 0 0 1 337.647 62.347 A 6.089 6.089 0 0 1 337.807 60.907 A 4.006 4.006 0 0 1 339.018 58.824 Q 340.202 57.754 342.239 57.609 A 9.308 9.308 0 0 1 342.903 57.586 Q 343.995 57.586 344.871 57.84 Z M 374.895 70.015 L 374.895 71.627 A 2.073 2.073 0 0 1 374.649 71.724 Q 374.344 71.826 373.886 71.9 Q 373.263 72.001 372.757 72.007 A 5.405 5.405 0 0 1 372.686 72.008 A 5.504 5.504 0 0 1 371.064 71.789 Q 368.649 71.044 368.649 67.755 L 368.649 59.477 L 366.656 59.477 L 366.656 58.462 L 368.649 57.586 L 369.538 54.615 L 370.756 54.615 L 370.756 57.84 L 374.793 57.84 L 374.793 59.477 L 370.756 59.477 L 370.756 67.666 Q 370.756 68.549 371.051 69.144 A 2.044 2.044 0 0 0 371.353 69.596 A 1.958 1.958 0 0 0 372.557 70.236 A 2.817 2.817 0 0 0 372.991 70.268 Q 373.549 70.268 374.07 70.186 Q 374.567 70.107 374.867 70.023 A 3.167 3.167 0 0 0 374.895 70.015 Z M 329.116 57.738 L 328.824 59.693 Q 327.96 59.503 327.3 59.503 Q 325.612 59.503 324.412 60.874 A 4.812 4.812 0 0 0 323.251 63.576 A 6.397 6.397 0 0 0 323.212 64.289 L 323.212 71.754 L 321.105 71.754 L 321.105 57.84 L 322.844 57.84 L 323.085 60.417 L 323.187 60.417 A 7.117 7.117 0 0 1 323.983 59.28 A 5.436 5.436 0 0 1 325.053 58.322 A 4.201 4.201 0 0 1 327.453 57.586 A 9.675 9.675 0 0 1 328.319 57.623 A 7.061 7.061 0 0 1 329.116 57.738 Z M 333.826 57.84 L 333.826 71.754 L 331.718 71.754 L 331.718 57.84 L 333.826 57.84 Z M 344.147 71.436 L 341.621 71.436 A 4.844 4.844 0 0 0 340.748 71.51 Q 339.924 71.661 339.386 72.122 Q 338.586 72.808 338.586 74.09 A 2.117 2.117 0 0 0 338.726 74.875 Q 338.951 75.443 339.539 75.804 Q 340.486 76.385 342.251 76.388 A 10.723 10.723 0 0 0 342.268 76.388 A 14.167 14.167 0 0 0 343.652 76.325 Q 345.28 76.164 346.197 75.594 A 3.074 3.074 0 0 0 346.911 74.997 A 2.304 2.304 0 0 0 347.473 73.442 Q 347.473 72.742 347.205 72.308 A 1.328 1.328 0 0 0 346.775 71.874 A 1.999 1.999 0 0 0 346.301 71.668 Q 345.796 71.512 344.997 71.461 A 13.409 13.409 0 0 0 344.147 71.436 Z M 339.729 62.296 A 4.114 4.114 0 0 0 339.814 63.158 Q 339.993 63.996 340.554 64.505 Q 341.379 65.254 342.852 65.254 A 4.591 4.591 0 0 0 344.054 65.11 Q 345.937 64.598 345.937 62.258 A 4.531 4.531 0 0 0 345.782 61.017 Q 345.385 59.625 343.971 59.256 A 4.583 4.583 0 0 0 342.814 59.122 Q 341.676 59.122 340.94 59.592 A 2.426 2.426 0 0 0 340.529 59.922 A 2.529 2.529 0 0 0 339.917 60.952 Q 339.788 61.352 339.747 61.837 A 5.544 5.544 0 0 0 339.729 62.296 Z M 331.57 53.683 A 2.335 2.335 0 0 0 331.541 54.069 Q 331.541 54.428 331.631 54.694 A 1.088 1.088 0 0 0 331.896 55.129 Q 332.251 55.478 332.785 55.478 A 1.229 1.229 0 0 0 333.661 55.129 Q 334.029 54.78 334.029 54.069 A 2.411 2.411 0 0 0 334.018 53.841 Q 333.999 53.633 333.941 53.463 A 1.064 1.064 0 0 0 333.661 53.016 A 1.242 1.242 0 0 0 332.785 52.673 Q 332.251 52.673 331.896 53.009 A 0.986 0.986 0 0 0 331.678 53.319 Q 331.604 53.479 331.57 53.683 Z" id="right_labelLayer" stroke="#777777" fill="#777777" style="stroke:#777777;fill:#777777" vector-effect="non-scaling-stroke"/><path d="M 469 36 L 469 55.188 L 466 55.188 L 466 67.563 L 469 67.563 L 469 79.938 L 466 79.938 L 466 92.313 L 469 92.313 L 469 104.688 L 466 104.688 L 466 117.063 L 469 117.063 L 469 129.438 L 466 129.438 L 466 141.813 L 469 141.813 L 469 154.188 L 466 154.188 L 466 166.563 L 469 166.563 L 469 178.938 L 466 178.938 L 466 191.313 L 469 191.313 L 469 203.688 L 466 203.688 L 466 216.063 L 469 216.063 L 469 228.438 L 466 228.438 L 466 240.813 L 469 240.813 L 469 253.188 L 469 260 L 488.188 260 L 488.188 263 L 500.563 263 L 500.563 260 L 512.938 260 L 512.938 263 L 525.313 263 L 525.313 260 L 537.688 260 L 537.688 263 L 550.063 263 L 550.063 260 L 562.438 260 L 562.438 263 L 574.813 263 L 574.813 260 L 587.188 260 L 587.188 263 L 599.563 263 L 599.563 260 L 611.938 260 L 611.938 263 L 624.313 263 L 624.313 260 L 636.688 260 L 636.688 263 L 649.063 263 L 649.063 260 L 661.438 260 L 661.438 263 L 673.813 263 L 673.813 260 L 686.188 260 L 693 260 L 693 240.813 L 696 240.813 L 696 228.438 L 693 228.438 L 693 216.063 L 696 216.063 L 696 203.688 L 693 203.688 L 693 191.313 L 696 191.313 L 696 178.938 L 693 178.938 L 693 166.563 L 696 166.563 L 696 154.188 L 693 154.188 L 693 141.813 L 696 141.813 L 696 129.438 L 693 129.438 L 693 117.063 L 696 117.063 L 696 104.688 L 693 104.688 L 693 92.313 L 696 92.313 L 696 79.938 L 693 79.938 L 693 67.563 L 696 67.563 L 696 55.188 L 693 55.188 L 693 42.813 L 693 36 L 673.813 36 L 673.813 33 L 661.438 33 L 661.438 36 L 649.063 36 L 649.063 33 L 636.688 33 L 636.688 36 L 624.313 36 L 624.313 33 L 611.938 33 L 611.938 36 L 599.563 36 L 599.563 33 L 587.188 33 L 587.188 36 L 574.813 36 L 574.813 33 L 562.438 33 L 562.438 36 L 550.063 36 L 550.063 33 L 537.688 33 L 537.688 36 L 525.313 36 L 525.313 33 L 512.938 33 L 512.938 36 L 500.563 36 L 500.563 33 L 488.188 33 L 488.188 36 L 475.813 36 L 469 36 Z" id="bottom_outsideCutPath" stroke="#FF0000" stroke-width="0.1" style="stroke:#FF0000;stroke-width:0.1" vector-effect="non-scaling-stroke"/><path d="M 656.671 165.249 L 652.942 165.249 L 652.942 149.235 Q 652.942 147.391 652.449 146.126 A 4.506 4.506 0 0 0 651.684 144.821 A 3.923 3.923 0 0 0 649.861 143.642 Q 649.211 143.432 648.418 143.373 A 8.655 8.655 0 0 0 647.776 143.35 A 9.594 9.594 0 0 0 645.824 143.536 Q 644.663 143.777 643.788 144.333 A 4.938 4.938 0 0 0 642.633 145.349 Q 640.978 147.339 640.971 151.465 A 20.559 20.559 0 0 0 640.971 151.503 L 640.971 165.249 L 637.242 165.249 L 637.242 149.235 Q 637.242 147.391 636.748 146.126 A 4.506 4.506 0 0 0 635.984 144.821 A 3.911 3.911 0 0 0 634.185 143.652 Q 633.538 143.44 632.747 143.377 A 8.731 8.731 0 0 0 632.054 143.35 A 9.261 9.261 0 0 0 630.138 143.535 Q 628.957 143.785 628.076 144.373 A 4.887 4.887 0 0 0 626.921 145.45 A 6.253 6.253 0 0 0 625.994 147.211 Q 625.393 148.911 625.307 151.461 A 25.959 25.959 0 0 0 625.293 152.334 L 625.293 165.249 L 621.564 165.249 L 621.564 140.632 L 624.597 140.632 L 625.203 144.001 L 625.383 144.001 Q 626.438 142.204 628.359 141.194 A 8.852 8.852 0 0 1 631.855 140.213 A 10.692 10.692 0 0 1 632.66 140.183 Q 636.235 140.183 638.277 141.785 A 6.365 6.365 0 0 1 640.207 144.361 L 640.387 144.361 A 7.785 7.785 0 0 1 643.319 141.45 A 9.353 9.353 0 0 1 643.576 141.306 Q 645.665 140.183 648.338 140.183 Q 651.154 140.183 653.016 141.158 A 6.145 6.145 0 0 1 654.593 142.328 Q 656.671 144.473 656.671 149.19 L 656.671 165.249 Z M 509.058 162.082 L 508.788 162.082 L 508.002 165.249 L 505.329 165.249 L 505.329 130.3 L 509.058 130.3 L 509.058 138.79 A 77.737 77.737 0 0 1 509.015 141.417 Q 508.97 142.742 508.878 143.912 L 509.058 143.912 A 8.477 8.477 0 0 1 515.245 140.318 A 12.734 12.734 0 0 1 516.784 140.228 A 11.396 11.396 0 0 1 519.991 140.656 A 8.531 8.531 0 0 1 524.32 143.541 Q 527.004 146.854 527.004 152.918 A 21.861 21.861 0 0 1 526.714 156.597 Q 526.379 158.557 525.656 160.129 A 10.48 10.48 0 0 1 524.297 162.341 A 8.827 8.827 0 0 1 518.024 165.639 A 12.646 12.646 0 0 1 516.784 165.699 A 11.309 11.309 0 0 1 513.942 165.352 A 9.84 9.84 0 0 1 512.393 164.811 A 8.258 8.258 0 0 1 509.058 162.082 Z M 572.622 162.172 L 572.622 165.025 Q 572.074 165.289 571.059 165.47 A 13.944 13.944 0 0 1 570.836 165.508 Q 569.735 165.686 568.84 165.698 A 9.556 9.556 0 0 1 568.714 165.699 A 9.738 9.738 0 0 1 565.844 165.312 Q 562.689 164.339 561.864 160.912 A 11.72 11.72 0 0 1 561.571 158.174 L 561.571 143.53 L 558.045 143.53 L 558.045 141.733 L 561.571 140.183 L 563.143 134.927 L 565.3 134.927 L 565.3 140.632 L 572.442 140.632 L 572.442 143.53 L 565.3 143.53 L 565.3 158.017 A 7.508 7.508 0 0 0 565.408 159.336 Q 565.537 160.059 565.821 160.632 A 3.617 3.617 0 0 0 566.355 161.431 A 3.464 3.464 0 0 0 568.485 162.565 A 4.984 4.984 0 0 0 569.253 162.621 A 12.245 12.245 0 0 0 571.047 162.493 A 11.284 11.284 0 0 0 571.162 162.475 A 20.169 20.169 0 0 0 571.7 162.383 Q 572.215 162.287 572.572 162.187 A 5.603 5.603 0 0 0 572.622 162.172 Z M 588.861 162.172 L 588.861 165.025 Q 588.313 165.289 587.298 165.47 A 13.944 13.944 0 0 1 587.076 165.508 Q 585.975 165.686 585.079 165.698 A 9.556 9.556 0 0 1 584.953 165.699 A 9.738 9.738 0 0 1 582.083 165.312 Q 578.929 164.339 578.103 160.912 A 11.72 11.72 0 0 1 577.81 158.174 L 577.81 143.53 L 574.284 143.53 L 574.284 141.733 L 577.81 140.183 L 579.383 134.927 L 581.539 134.927 L 581.539 140.632 L 588.682 140.632 L 588.682 143.53 L 581.539 143.53 L 581.539 158.017 A 7.508 7.508 0 0 0 581.647 159.336 Q 581.777 160.059 582.06 160.632 A 3.617 3.617 0 0 0 582.595 161.431 A 3.464 3.464 0 0 0 584.724 162.565 A 4.984 4.984 0 0 0 585.492 162.621 A 12.245 12.245 0 0 0 587.286 162.493 A 11.284 11.284 0 0 0 587.401 162.475 A 20.169 20.169 0 0 0 587.94 162.383 Q 588.454 162.287 588.811 162.187 A 5.603 5.603 0 0 0 588.861 162.172 Z M 554.423 156.665 A 19.259 19.259 0 0 0 554.766 152.918 Q 554.766 147.056 551.722 143.62 A 9.761 9.761 0 0 0 547.191 140.697 A 12.529 12.529 0 0 0 543.513 140.183 Q 538.167 140.183 535.157 143.541 A 10.301 10.301 0 0 0 533.892 145.295 Q 532.917 146.994 532.487 149.174 A 19.359 19.359 0 0 0 532.147 152.918 A 18.652 18.652 0 0 0 532.382 155.94 A 13.793 13.793 0 0 0 533.54 159.702 A 12.255 12.255 0 0 0 533.811 160.233 A 10.094 10.094 0 0 0 537.493 164.149 A 10.382 10.382 0 0 0 539.876 165.208 A 11.973 11.973 0 0 0 543.355 165.699 A 14.478 14.478 0 0 0 545.884 165.487 A 9.94 9.94 0 0 0 551.733 162.318 Q 553.747 160.073 554.423 156.665 Z M 614.686 156.665 A 19.259 19.259 0 0 0 615.028 152.918 Q 615.028 147.056 611.985 143.62 A 9.761 9.761 0 0 0 607.453 140.697 A 12.529 12.529 0 0 0 603.775 140.183 Q 598.43 140.183 595.42 143.541 A 10.301 10.301 0 0 0 594.155 145.295 Q 593.18 146.994 592.75 149.174 A 19.359 19.359 0 0 0 592.41 152.918 A 18.652 18.652 0 0 0 592.644 155.94 A 13.793 13.793 0 0 0 593.803 159.702 A 12.255 12.255 0 0 0 594.074 160.233 A 10.094 10.094 0 0 0 597.756 164.149 A 10.382 10.382 0 0 0 600.139 165.208 A 11.973 11.973 0 0 0 603.618 165.699 A 14.478 14.478 0 0 0 606.146 165.487 A 9.94 9.94 0 0 0 611.996 162.318 Q 614.01 160.073 614.686 156.665 Z M 536.011 152.918 A 18.881 18.881 0 0 0 536.19 155.616 Q 536.593 158.398 537.897 160.106 A 6.111 6.111 0 0 0 541.877 162.45 A 9.26 9.26 0 0 0 543.445 162.577 Q 547.106 162.577 549.004 160.117 Q 550.416 158.288 550.778 155.198 A 19.64 19.64 0 0 0 550.902 152.918 Q 550.902 148.224 549.004 145.787 A 6.134 6.134 0 0 0 545.191 143.512 A 9.404 9.404 0 0 0 543.4 143.35 A 8.873 8.873 0 0 0 541.191 143.609 A 5.938 5.938 0 0 0 537.875 145.753 A 7.709 7.709 0 0 0 536.677 148.069 Q 536.323 149.133 536.157 150.435 A 19.702 19.702 0 0 0 536.011 152.918 Z M 596.273 152.918 A 18.881 18.881 0 0 0 596.453 155.616 Q 596.856 158.398 598.16 160.106 A 6.111 6.111 0 0 0 602.14 162.45 A 9.26 9.26 0 0 0 603.708 162.577 Q 607.369 162.577 609.267 160.117 Q 610.678 158.288 611.04 155.198 A 19.64 19.64 0 0 0 611.165 152.918 Q 611.165 148.224 609.267 145.787 A 6.134 6.134 0 0 0 605.454 143.512 A 9.404 9.404 0 0 0 603.663 143.35 A 8.873 8.873 0 0 0 601.454 143.609 A 5.938 5.938 0 0 0 598.138 145.753 A 7.709 7.709 0 0 0 596.939 148.069 Q 596.585 149.133 596.42 150.435 A 19.702 19.702 0 0 0 596.273 152.918 Z M 516.245 143.35 A 10.477 10.477 0 0 0 514.216 143.533 Q 513.06 143.762 512.182 144.275 A 4.959 4.959 0 0 0 510.742 145.54 A 6.383 6.383 0 0 0 509.818 147.3 Q 509.195 149.047 509.082 151.703 A 28.726 28.726 0 0 0 509.058 152.918 Q 509.058 158.107 510.787 160.342 A 5.409 5.409 0 0 0 513.531 162.193 Q 514.448 162.481 515.567 162.553 A 11.989 11.989 0 0 0 516.335 162.577 A 7.433 7.433 0 0 0 518.446 162.294 A 5.362 5.362 0 0 0 521.456 160.072 A 8.559 8.559 0 0 0 522.515 157.781 Q 523.141 155.734 523.141 152.873 A 22.028 22.028 0 0 0 523.007 150.363 Q 522.691 147.618 521.627 145.96 A 6.185 6.185 0 0 0 521.456 145.708 Q 519.771 143.35 516.245 143.35 Z" id="bottom_labelLayer" stroke="#777777" fill="#777777" style="stroke:#777777;fill:#777777" vector-effect="non-scaling-stroke"/></g></svg>